<svg width="198" height="24" viewBox="0 0 198 24" fill="none" xmlns="http://www.w3.org/2000/svg">
<g clip-path="url(#clip0_664_22818)">
<path d="M8.06425 20.1173V15.6693C8.06425 15.3813 8.17026 15.168 8.45826 15.168C8.78426 15.168 8.92225 15.3813 9.03425 15.7067C9.71725 17.7173 11.0453 20.8 12.5493 22.3413C13.4823 23.312 14.6663 23.9573 15.9203 23.9573C17.9623 23.9573 19.9363 22.3787 19.9363 20.224C19.9363 18.8587 19.1092 17.9627 18.4262 17.2107C16.9922 15.5947 15.3763 13.4773 14.8373 12.0107C14.7303 11.7227 14.6242 11.472 14.6242 11.2907C14.6242 11.0027 14.7302 10.8267 14.9812 10.5707C15.9522 9.6 18.1763 7.376 18.9973 5.62133C19.2483 5.08267 19.5733 4.33067 19.5733 3.57867C19.5733 1.568 17.8133 0.133333 15.8083 0.133333C14.5863 0.133333 13.1523 0.634667 12.1493 2.68267C11.2533 4.54933 9.99424 6.55467 9.02924 7.66933C8.77824 7.95733 8.67225 8.02667 8.45325 8.02667C8.16525 8.02667 8.05827 7.776 8.05827 7.52533V4.01067C8.05827 1.856 6.66125 0.170667 4.29325 0.170667C1.92525 0.170667 0.490234 1.856 0.490234 4.01067V20.1173C0.490234 22.2347 1.85625 23.9573 4.29325 23.9573C6.73025 23.9573 8.05827 22.2347 8.05827 20.1173M38.6613 14.304V20.08C38.6613 22.2347 37.2643 23.952 34.9283 23.952C32.4533 23.952 31.0883 22.2293 31.0883 20.08V4.128C31.0883 1.94133 32.4853 0.144 34.9973 0.144C36.4323 0.144 37.7973 0.645334 39.0883 3.22667L42.3894 9.86133C42.5704 10.256 42.7844 10.2933 42.9284 10.2933C43.1414 10.2933 43.2854 10.08 43.2854 9.68533V4.016C43.2854 1.86133 44.6505 0.144 47.1255 0.144C49.6005 0.144 50.8587 1.86667 50.8587 4.016V19.9787C50.8587 22.2027 49.4614 23.9627 46.9494 23.9627C45.5144 23.9627 44.1493 23.424 42.8963 20.88L39.5573 14.1707C39.3763 13.8133 39.1623 13.7387 39.0563 13.7387C38.7683 13.7387 38.6613 13.92 38.6613 14.3147M21.2743 20.1067V4.016C21.2743 1.86133 22.6023 0.144 25.0403 0.144C27.4773 0.144 28.8053 1.86667 28.8053 4.016V20.0907C28.8053 22.2453 27.4773 23.9627 25.0403 23.9627C22.6023 23.9627 21.2743 22.24 21.2743 20.0907M70.7787 1.936C69.2697 0.752 67.1207 0 63.8567 0C58.1867 0 52.6618 3.65867 52.6618 12.128C52.6618 20.5973 58.1867 24.0053 63.6377 24.0053C69.3767 24.0053 73.0027 20.416 73.0027 15.1787C73.0027 11.84 70.9607 9.54667 66.8697 9.54667H65.6857C63.5307 9.54667 61.8457 10.5493 61.8457 12.8107C61.8457 14.8213 63.6377 15.7867 65.0027 15.7867C65.6857 15.7867 66.1177 16 66.1177 16.5067C66.1177 17.152 65.3657 17.584 64.4697 17.584C61.7447 17.584 59.8778 15.68 59.8778 12.1333C59.8778 8.18667 62.4267 6.752 64.4007 6.752C66.8377 6.752 67.2327 7.97333 68.9227 7.97333C70.8587 7.97333 72.1867 6.39467 72.1867 4.74667C72.1867 3.49333 71.6107 2.592 70.7897 1.94667" fill="#D62300"/>
</g>
<mask id="mask1_637_2931" style="mask-type:luminance" maskUnits="userSpaceOnUse" x="81" y="0" width="117" height="24">
<path d="M198 0H81V24H198V0Z" fill="white"/>
</mask>
<g mask="url(#mask1_637_2931)">
<path d="M109.917 23.9622C103.853 23.9622 100.627 20.3035 100.627 15.7115V4.01555C100.627 1.86088 101.955 0.143549 104.392 0.143549C106.829 0.143549 108.195 1.86622 108.195 4.01555V15.4983C108.195 16.4689 108.659 17.4715 109.917 17.4715C111.176 17.4715 111.709 16.4689 111.709 15.4983V4.01555C111.709 1.86088 113.037 0.143549 115.475 0.143549C117.912 0.143549 119.24 1.86622 119.24 4.01555V15.7115C119.24 20.3035 115.976 23.9622 109.912 23.9622M85.4427 23.7808H90.824C95.88 23.7808 98.968 20.5862 98.968 16.6075C98.968 13.4128 96.9573 11.9462 96.4933 11.5835C96.312 11.4395 96.0987 11.2956 96.0987 11.1516C96.0987 10.9703 96.2053 10.9008 96.424 10.6875C97.176 9.93555 97.8587 8.64488 97.8587 6.81555C97.864 2.51155 94.776 0.212882 90.0027 0.212882H85.448C82.4347 0.212882 81 1.86622 81 4.09022V19.9088C81 22.1328 82.4347 23.7808 85.448 23.7808M88.6427 9.64755C87.9973 9.64755 87.7093 9.29022 87.7093 8.82088V6.38355C87.7093 5.91955 87.9973 5.55688 88.6427 5.55688H89.144C90.792 5.55688 91.2987 6.63422 91.2987 7.56755C91.2987 8.42622 90.7973 9.64755 89.144 9.64755H88.6427ZM88.6427 13.9515H89.3253C91.1547 13.9515 91.6933 15.0983 91.6933 16.1383C91.6933 17.0716 91.1547 18.3995 89.3253 18.3995H88.6427C87.9973 18.3995 87.7093 18.0422 87.7093 17.5728V14.7729C87.7093 14.3089 87.9973 13.9462 88.6427 13.9462M129.613 10.2502C128.968 10.2502 128.68 9.89288 128.68 9.42355V6.98622C128.68 6.52222 128.968 6.15955 129.613 6.15955H130.152C131.768 6.15955 132.269 7.23688 132.269 8.17022C132.269 9.10355 131.768 10.2502 130.152 10.2502H129.613ZM121.539 20.0795C121.539 22.2342 122.867 23.9515 125.304 23.9515C127.741 23.9515 129.069 22.2288 129.069 20.0795V16.2768C129.069 15.8128 129.32 15.5942 129.677 15.5942C130.141 15.5942 130.285 15.8448 130.397 16.2768C130.861 18.0688 131.651 20.5809 132.659 21.8396C133.949 23.4556 135.171 23.9569 136.392 23.9569C138.403 23.9569 140.088 22.4849 140.088 20.6556C140.088 19.4342 139.549 18.5382 138.867 17.7115C137.752 16.3462 136.749 15.1622 136.285 13.9088C136.179 13.6208 136.248 13.3702 136.611 13.1195C137.795 12.2928 139.16 10.3568 139.16 7.34355C139.16 2.78888 135.144 0.202216 130.296 0.202216H126.029C123.016 0.202216 121.544 1.85022 121.544 4.07955V20.0795H121.539ZM179.336 20.0795C179.336 22.2342 180.664 23.9515 183.101 23.9515C185.539 23.9515 186.867 22.2288 186.867 20.0795V16.2768C186.867 15.8128 187.08 15.5942 187.475 15.5942C187.939 15.5942 188.083 15.8448 188.157 16.2768C188.483 18.1062 189.411 20.5809 190.456 21.8396C191.784 23.4182 192.968 23.9569 194.189 23.9569C196.163 23.9569 197.885 22.4849 197.885 20.6556C197.885 19.4342 197.347 18.5382 196.664 17.7115C195.373 16.1702 194.547 15.1622 194.083 13.9088C193.976 13.6208 194.013 13.3702 194.371 13.1195C195.555 12.2928 196.92 10.3568 196.92 7.34355C196.92 2.78888 192.936 0.202216 188.093 0.202216H183.789C180.776 0.202216 179.341 1.85022 179.341 4.07955V20.0795H179.336ZM173.197 14.8155H170.541C169.896 14.8155 169.608 15.1729 169.608 15.6423V16.3249C169.608 16.7889 169.896 17.1516 170.541 17.1516H173.987C176.104 17.1516 177.789 18.3356 177.789 20.4529C177.789 22.5703 176.104 23.7915 173.987 23.7915H166.776C163.763 23.7915 162.328 22.1435 162.328 19.9195V4.09022C162.328 1.86622 163.763 0.212882 166.776 0.212882H173.987C176.104 0.212882 177.789 1.39688 177.789 3.51422C177.789 5.63155 176.104 6.85288 173.987 6.85288H170.541C169.896 6.85288 169.608 7.21022 169.608 7.67955V8.25555C169.608 8.71955 169.896 9.08222 170.541 9.08222H173.197C174.989 9.08222 176.461 10.1222 176.461 11.9515C176.461 13.7808 174.989 14.8208 173.197 14.8208M158.488 1.94088C156.979 0.756882 154.829 0.00488281 151.565 0.00488281C145.896 0.00488281 140.371 3.66355 140.371 12.1328C140.371 20.6023 145.896 24.0103 151.347 24.0103C157.085 24.0103 160.712 20.4208 160.712 15.1835C160.712 11.8448 158.669 9.55155 154.579 9.55155H153.395C151.24 9.55155 149.555 10.5542 149.555 12.8155C149.555 14.8262 151.347 15.7915 152.712 15.7915C153.395 15.7915 153.827 16.0048 153.827 16.5115C153.827 17.1568 153.075 17.5889 152.179 17.5889C149.453 17.5889 147.587 15.6848 147.587 12.1382C147.587 8.19155 150.136 6.75688 152.109 6.75688C154.547 6.75688 154.941 7.97822 156.632 7.97822C158.568 7.97822 159.896 6.39955 159.896 4.75155C159.896 3.49822 159.32 2.59688 158.499 1.95155M187.416 10.2768C186.771 10.2768 186.445 9.91955 186.445 9.45022V7.01288C186.445 6.54888 186.771 6.18622 187.416 6.18622H187.955C189.533 6.18622 190.035 7.26355 190.035 8.19688C190.035 9.13022 189.533 10.2768 187.955 10.2768H187.416Z" fill="#D62300"/>
</g>
</svg>
