<svg width="24" height="24" viewBox="0 0 24 24" fill="none" xmlns="http://www.w3.org/2000/svg">
<g clip-path="url(#clip0_350_23516)">
<path fill-rule="evenodd" clip-rule="evenodd" d="M4.04583 9.95606C4.38856 6.21539 7.71777 3.44981 11.4502 3.77586L11.4528 3.77609L11.4528 3.7761C13.1457 3.93153 14.8423 4.60103 16.0884 5.83533C17.3471 7.08196 18.1088 8.86926 17.9695 11.1661C17.8622 12.9475 17.2219 14.6424 16.1698 15.6646L18.7698 19.1131C19.1614 19.6324 19.0578 20.3709 18.5384 20.7625C18.0191 21.154 17.2806 21.0505 16.889 20.5311L14.2547 17.0371C14.2254 17.0506 14.1958 17.0641 14.1659 17.0773C13.291 17.4656 12.1788 17.7096 10.6562 17.7178L10.653 17.7178H10.6461H10.6461C10.5301 17.7178 10.4032 17.7178 10.2664 17.7099H10.2587L10.2412 17.7089C8.63153 17.6132 7.14276 16.8985 5.99312 15.6804C4.64799 14.2585 3.90389 12.2628 4.01866 10.3341C4.01953 10.2147 4.02851 10.0827 4.04583 9.95606ZM6.34039 10.1767C6.3323 10.2738 6.32691 10.343 6.32691 10.4081V10.4253L6.32591 10.4425C6.24915 11.7544 6.74715 13.1187 7.67253 14.0932L7.67383 14.0946C8.48615 14.9555 9.53345 15.4084 10.6337 15.4016L10.6339 15.4016C11.9278 15.3941 12.7492 15.1796 13.3096 14.9188C13.8673 14.6592 14.2058 14.3376 14.5392 14.0196C14.9743 13.5955 15.5609 12.5732 15.6555 11.0241C15.7593 9.31363 15.1902 8.15134 14.3641 7.38257C13.5263 6.6029 12.378 6.18718 11.2697 6.08196C11.2306 6.08183 11.1703 6.08066 11.1034 6.07251C8.68444 5.9317 6.56348 7.74261 6.34039 10.1767Z" fill="#502314"/>
</g>
<defs>
<clipPath id="clip0_350_23516">
<rect width="24" height="24" fill="white"/>
</clipPath>
</defs>
</svg>
