<svg width="20" height="20" viewBox="0 0 20 20" fill="none" xmlns="http://www.w3.org/2000/svg">
<g clip-path="url(#clip0_303_6007)">
<path d="M18.8833 7.55022C18.8583 8.41688 18.8416 9.28355 18.8666 10.1585C18.9166 11.9335 18.9999 13.7169 18.9916 15.4919C18.9916 16.3002 18.6416 16.9169 17.9333 17.3085C17.6833 17.4419 17.4083 17.5169 17.1333 17.6085C15.9666 18.0002 14.8083 18.3919 13.6416 18.7836C13.0166 18.9919 12.4583 18.8169 11.8666 18.6002C11.1499 18.3419 10.4333 18.1002 9.7166 17.8502C8.9416 17.5752 8.1166 17.1835 7.3166 17.0085C6.73327 16.8835 6.18327 17.2169 5.64994 17.4169C5.02494 17.6586 4.39994 17.9002 3.77494 18.1502C2.5666 18.6336 1.27493 17.9252 1.0416 16.6419C1.02493 16.5335 1.0166 16.4169 1.0166 16.3085C1.0166 14.4169 1.1916 12.4919 1.1416 10.5752C1.0916 8.54188 1.0166 6.50855 1.0166 4.47522C1.0166 3.60022 1.55827 2.84188 2.38327 2.56688C3.69993 2.12522 5.0166 1.67522 6.3416 1.23355C6.78327 1.08355 7.23327 1.08355 7.67493 1.24188C9.2666 1.80022 10.7083 2.56688 12.3833 2.91688C13.6749 3.18355 15.0666 2.30022 16.2499 1.84188C17.5999 1.31688 18.9833 2.26688 18.9916 3.71688C18.9916 5.00022 18.9249 6.26688 18.8833 7.54188V7.55022ZM7.03327 14.7585C7.24993 15.0002 7.8416 15.0919 8.0916 15.1835C8.63327 15.3919 9.17493 15.6002 9.70827 15.8085C10.7833 16.2169 11.8666 16.6086 12.9833 16.8836C13.1333 16.4836 12.9999 16.0002 12.9999 15.5836C12.9999 15.0669 12.9999 14.5502 12.9999 14.0335C12.9999 13.0252 12.9999 12.0169 12.9999 11.0085C12.9999 10.0335 12.9999 9.05855 12.9999 8.08355C12.9999 7.60022 12.9999 7.10855 12.9999 6.62522C12.9999 6.25855 13.0999 5.71688 12.9999 5.36688C12.9166 5.05022 12.1749 4.95022 11.9083 4.85022C11.4249 4.68355 10.9416 4.50855 10.4583 4.34188C9.4916 4.00022 8.52493 3.65855 7.55827 3.32522C7.2166 3.20022 6.9166 3.06688 6.93327 3.59188C6.95827 4.36688 6.9666 5.14188 6.97494 5.91688C6.97494 6.89188 6.99993 7.86688 6.99993 8.85022C6.99993 9.83355 6.99993 10.8585 6.99993 11.8669C6.99993 12.4085 6.98327 12.9502 6.9666 13.4836C6.95827 13.7919 6.79994 14.5169 7.02494 14.7669L7.03327 14.7585Z" fill="#502314"/>
</g>
<defs>
<clipPath id="clip0_303_6007">
<rect width="20" height="20" fill="white"/>
</clipPath>
</defs>
</svg>
