<svg width="24" height="24" viewBox="0 0 24 24" fill="none" xmlns="http://www.w3.org/2000/svg">
<g clip-path="url(#clip0_768_23460)">
<path d="M21.97 13.7702C21.83 12.3202 20.29 11.4802 19.4 12.4002C18.82 12.9902 18.81 14.3502 18.54 15.2502C18.2 16.3502 17.38 17.2702 16.53 17.8702C14.65 19.1802 11.92 19.2802 9.72004 18.7902C8.66004 18.5502 7.74004 17.9402 6.97004 17.1802C5.03004 15.2702 4.96004 11.8202 6.26004 9.60021C7.25004 7.90021 9.11004 6.70021 11.08 6.64021C11.14 7.04021 11.05 7.46021 11.08 7.86021C11.1 8.27021 11.38 8.90021 12.07 8.86021C12.94 8.82021 15.67 7.08021 16.89 6.22021C17.18 6.01021 17.47 5.68021 17.36 5.35021C17.3 5.17021 16.84 4.72021 16.69 4.61021C15.32 3.57021 14.61 2.94021 13.24 1.90021C12.8 1.56021 11.89 1.09021 11.38 1.59021C10.97 1.98021 11.11 2.56021 11.16 3.20021C8.86004 3.32021 6.61004 4.30021 4.95004 5.91021C0.91004 9.81021 1.08004 16.6802 5.36004 20.3402C10.21 24.4802 19.56 22.9102 21.66 16.6802C21.96 15.7902 22.1 14.7302 22.01 13.7702" fill="#502314"/>
</g>
<defs>
<clipPath id="clip0_768_23460">
<rect width="24" height="24" fill="white"/>
</clipPath>
</defs>
</svg>
