<svg width="18" height="18" viewBox="0 0 18 18" fill="none" xmlns="http://www.w3.org/2000/svg">
<g id="Component 49">
<g id="select arrow_down" clip-path="url(#clip0_1610_23739)">
<path id="select arrow_down_2" fill-rule="evenodd" clip-rule="evenodd" d="M9.5021 12.7551L15.7868 6.39992C15.9135 6.27152 15.9975 6.05852 15.9975 5.84492C15.9975 5.63132 15.9135 5.41772 15.7868 5.28992L14.7324 4.22192C14.6057 4.09412 14.3951 4.00832 14.1845 4.00832C13.9738 4.00832 13.8039 4.09412 13.6359 4.22192L8.99683 8.91332L4.36856 4.23212C4.24192 4.10372 4.03128 4.01852 3.82001 4.01852C3.60938 4.01852 3.39874 4.10372 3.2721 4.23212L2.21765 5.29952C2.09101 5.42792 2.00701 5.64152 2.00701 5.85512C2.00701 6.06872 2.09101 6.23912 2.21765 6.41012L8.47947 12.7419C8.47947 12.7419 8.97074 13.3005 9.5021 12.7551Z" fill="#502314"/>
</g>
</g>
<defs>
<clipPath id="clip0_1610_23739">
<rect width="14" height="9" fill="white" transform="translate(16 13) rotate(-180)"/>
</clipPath>
</defs>
</svg>
