<svg width="7" height="10" viewBox="0 0 7 10" fill="none" xmlns="http://www.w3.org/2000/svg">
<g id="ICO_more arrow" clip-path="url(#clip0_3401_31032)">
<path id="Vector" fill-rule="evenodd" clip-rule="evenodd" d="M6.48505 4.6415L1.7775 0.152407C1.68239 0.0619529 1.52461 0.0019529 1.36639 0.00195289C1.20817 0.00195289 1.04994 0.0619529 0.955277 0.152407L0.164166 0.905589C0.069499 0.996044 0.00594325 1.1465 0.00594324 1.29695C0.00594324 1.44741 0.0694989 1.56877 0.164166 1.68877L3.63928 5.00241L0.171721 8.30832C0.0766097 8.39877 0.0134984 8.54923 0.0134984 8.70013C0.0134984 8.85059 0.0766097 9.00104 0.171721 9.0915L0.962388 9.84468C1.0575 9.93514 1.21572 9.99514 1.37394 9.99514C1.53217 9.99514 1.65839 9.93514 1.78505 9.84468L6.47528 5.37195C6.47528 5.37195 6.88905 5.02104 6.48505 4.6415Z" fill="#502314"/>
</g>
<defs>
<clipPath id="clip0_3401_31032">
<rect width="10" height="6.66667" fill="white" transform="translate(6.66675) rotate(90)"/>
</clipPath>
</defs>
</svg>
