<svg width="15" height="15" viewBox="0 0 15 15" fill="none" xmlns="http://www.w3.org/2000/svg">
<path d="M7.11333 15.0078C5.41333 15.0078 3.78 14.3478 2.47333 13.1278C0.926667 11.6745 0 9.57448 0 7.49448C0 7.37448 0 7.24115 0 7.10115C0.113333 3.07448 3.50667 -0.105517 7.52 -0.00551722C11.24 0.107816 15 2.47448 15 7.49448C15 9.48782 14.3933 11.3345 13.3667 12.4478C12.2933 13.6145 10.9667 14.7678 7.54 14.9945C7.39333 15.0011 7.25333 15.0078 7.10667 15.0078H7.11333ZM7.31333 1.32782C4.09333 1.32782 1.42667 3.90115 1.33333 7.14115C1.33333 7.25448 1.33333 7.36115 1.33333 7.47448C1.33333 9.20782 2.1 10.9478 3.38667 12.1545C4.52667 13.2211 5.98 13.7611 7.46 13.6611C10.6333 13.4545 11.6467 12.3478 12.3867 11.5478C13.0067 10.8745 13.6667 9.46115 13.6667 7.49448C13.6667 3.08782 10.3333 1.42115 7.48 1.32782C7.42667 1.32782 7.36667 1.32782 7.31333 1.32782Z" fill="#502314"/>
<g clip-path="url(#clip0_422_8546)">
<path fill-rule="evenodd" clip-rule="evenodd" d="M3.38324 6.4299C3.29757 6.00132 3.70022 5.6499 4.06003 5.83847L5.54212 6.60132C5.76486 6.72132 6.039 6.62704 6.15894 6.38704L7.04134 4.74132C7.22981 4.3899 7.69243 4.39847 7.87234 4.74132L8.72904 6.40418C8.84897 6.63561 9.10598 6.73847 9.33729 6.63561L10.9564 5.8899C11.3163 5.72704 11.6932 6.0699 11.6161 6.4899L10.8965 10.0642C10.8451 10.3042 10.648 10.4756 10.4253 10.4756H4.57405C4.35131 10.4756 4.15427 10.3042 4.10287 10.0556L3.38324 6.4299Z" fill="#502314"/>
</g>
<defs>
<clipPath id="clip0_422_8546">
<rect width="8.25" height="6" fill="white" transform="translate(3.37451 4.49268)"/>
</clipPath>
</defs>
</svg>
