<svg width="24" height="24" viewBox="0 0 24 24" fill="none" xmlns="http://www.w3.org/2000/svg">
<rect x="24" width="24" height="24" rx="12" transform="rotate(90 24 0)" fill="#502314"/>
<path d="M5.99562 13.1313C6.43403 13.7112 7.11285 14.2486 7.44519 14.6233L9.12104 16.5537C9.47459 16.9639 10.507 17.7417 10.8888 18.1235C11.6454 18.8801 12.5646 18.074 13.3283 17.3103C14.4738 16.1648 14.9759 15.3941 16.086 14.2132C16.6659 13.591 18.2993 12.4101 17.3588 11.4696C16.8356 10.9464 15.987 10.9464 15.4779 11.4696C15.0607 11.8868 14.6506 12.3252 14.2405 12.7495C14.0354 12.9546 13.8374 13.1526 13.6324 13.3576C13.4768 13.5132 13.201 13.8597 12.996 13.895C12.8758 13.3788 12.8828 12.8061 12.8333 12.2899C12.7202 11.0312 12.8899 9.73016 12.9253 8.46444C12.9536 7.55935 12.9111 6.65425 12.8828 5.74915C12.8828 5.01376 12.1192 4.16523 11.3838 4.16523C10.6484 4.16523 10.316 4.73799 10.316 5.47338C10.316 7.84926 10.3868 10.211 10.507 12.5939C10.5282 13.0818 10.7191 13.9516 10.4928 14.4041C10.0191 14.2274 9.50287 13.5415 9.14225 13.1808C8.69677 12.7354 8.25837 12.297 7.81289 11.8515C7.62197 11.6606 7.46641 11.4201 7.24013 11.2646C6.81587 10.9535 6.25725 11.1444 5.91784 11.4838C5.38751 12.0141 5.57843 12.601 5.98855 13.1384L5.99562 13.1313Z" fill="#FFFCF8"/>
</svg>
