<svg width="14" height="14" viewBox="0 0 14 14" fill="none" xmlns="http://www.w3.org/2000/svg">
<g clip-path="url(#clip0_108_2309)">
<path fill-rule="evenodd" clip-rule="evenodd" d="M11.0659 6.58163L5.57375 1.34435C5.46279 1.23882 5.27871 1.16882 5.09412 1.16882C4.90953 1.16882 4.72493 1.23882 4.61449 1.34435L3.69153 2.22307C3.58108 2.3286 3.50693 2.50413 3.50693 2.67966C3.50693 2.85519 3.58108 2.99678 3.69153 3.13678L7.74582 7.00269L3.70034 10.8596C3.58938 10.9651 3.51575 11.1406 3.51575 11.3167C3.51575 11.4922 3.58938 11.6678 3.70034 11.7733L4.62279 12.652C4.73375 12.7575 4.91834 12.8275 5.10293 12.8275C5.28753 12.8275 5.43479 12.7575 5.58256 12.652L11.0545 7.43382C11.0545 7.43382 11.5372 7.02443 11.0659 6.58163Z" fill="#502314"/>
</g>
<defs>
<clipPath id="clip0_108_2309">
<rect width="11.6667" height="7.77778" fill="white" transform="translate(11.2778 1.16669) rotate(90)"/>
</clipPath>
</defs>
</svg>
