<svg width="14" height="14" viewBox="0 0 14 14" fill="none" xmlns="http://www.w3.org/2000/svg">
<g clip-path="url(#clip0_768_23250)">
<path d="M2.79406 12.0577C2.78239 11.9527 2.77656 11.8419 2.77072 11.7369C2.77072 11.6727 2.79989 11.1244 2.77072 11.1069C2.18739 10.8385 1.72656 10.3252 1.52239 9.71853C1.27156 8.98353 1.49322 8.34186 1.89572 7.71186C2.02406 7.5077 2.16989 7.30936 2.34489 7.14603C2.51989 6.9827 2.77656 6.92436 2.79406 6.65603C2.81739 6.25936 2.79406 5.8452 2.83489 5.4427C2.88156 5.01686 2.89906 4.57353 2.89322 4.14186C2.88739 3.73936 2.79406 3.34853 2.79406 2.94603C2.79406 2.65436 2.78822 2.35686 2.77656 2.0652C2.77072 1.7502 2.75322 1.4177 2.92822 1.14353C3.10322 0.869362 3.41822 0.700195 3.73906 0.700195C4.26989 0.700195 4.70739 1.13186 4.70739 1.66853C4.67239 2.77686 4.59656 3.8852 4.64322 4.99353C4.66072 5.39603 4.67239 5.80436 4.68406 6.20686C4.68406 6.37603 4.59656 6.7377 4.73072 6.86603C4.85906 6.99436 5.09239 7.0702 5.23822 7.18103C5.42489 7.32686 5.59989 7.4902 5.73989 7.6827C6.52156 8.72686 5.83322 10.576 4.70156 11.0952L4.70156 12.1044C4.70156 12.6352 4.26989 13.2827 3.73322 13.2827C3.22572 13.2827 2.96322 12.886 2.85822 12.4369C2.82906 12.3085 2.81156 12.1802 2.79406 12.0519L2.79406 12.0577ZM3.73322 10.0219C3.91406 10.0277 4.08906 9.98686 4.24656 9.89936C4.45072 9.7827 4.60822 9.60186 4.70156 9.38603C4.75406 9.26353 4.78322 9.12936 4.78322 8.98936C4.78322 8.84936 4.75406 8.7152 4.70156 8.5927C4.54406 8.21353 4.17072 7.9452 3.73322 7.9452C3.29572 7.9452 2.92239 8.21353 2.76489 8.5927C2.71239 8.7152 2.68322 8.84936 2.68322 8.98936C2.68322 9.12936 2.71239 9.26353 2.76489 9.38603C2.92239 9.77103 3.33072 10.0044 3.73322 10.016L3.73322 10.0219Z" fill="#502314"/>
<path d="M11.2057 1.94229C11.2174 2.04729 11.2232 2.15812 11.2291 2.26312C11.2291 2.32729 11.1999 2.87562 11.2291 2.89312C11.8124 3.16145 12.2732 3.67479 12.4774 4.28145C12.7282 5.01645 12.5066 5.65812 12.1041 6.28812C11.9757 6.49229 11.8299 6.69062 11.6549 6.85395C11.4799 7.01729 11.2232 7.07562 11.2057 7.34395C11.1824 7.74062 11.2057 8.15479 11.1649 8.55729C11.1182 8.98312 11.1007 9.42645 11.1066 9.85812C11.1124 10.2606 11.2057 10.6515 11.2057 11.054C11.2057 11.3456 11.2116 11.6431 11.2232 11.9348C11.2291 12.2498 11.2466 12.5823 11.0716 12.8565C10.8966 13.1306 10.5816 13.2998 10.2607 13.2998C9.7299 13.2998 9.2924 12.8681 9.2924 12.3315C9.3274 11.2231 9.40323 10.1148 9.35657 9.00645C9.33907 8.60395 9.3274 8.19562 9.31573 7.79312C9.31573 7.62395 9.40323 7.26229 9.26906 7.13395C9.14073 7.00562 8.9074 6.92979 8.76156 6.81895C8.5749 6.67312 8.3999 6.50979 8.2599 6.31729C7.47823 5.27312 8.16656 3.42395 9.29823 2.90479L9.29823 1.89562C9.29823 1.36479 9.7299 0.717285 10.2666 0.717285C10.7741 0.717285 11.0366 1.11395 11.1416 1.56312C11.1707 1.69145 11.1882 1.81979 11.2057 1.94812L11.2057 1.94229ZM10.2666 3.97812C10.0857 3.97229 9.91073 4.01312 9.75323 4.10062C9.54906 4.21729 9.39156 4.39812 9.29823 4.61395C9.24573 4.73645 9.21656 4.87062 9.21656 5.01062C9.21656 5.15062 9.24573 5.28479 9.29823 5.40729C9.45573 5.78645 9.82906 6.05479 10.2666 6.05479C10.7041 6.05479 11.0774 5.78645 11.2349 5.40729C11.2874 5.28479 11.3166 5.15062 11.3166 5.01062C11.3166 4.87062 11.2874 4.73645 11.2349 4.61395C11.0774 4.22895 10.6691 3.99562 10.2666 3.98395L10.2666 3.97812Z" fill="#502314"/>
</g>
<defs>
<clipPath id="clip0_768_23250">
<rect width="14" height="14" fill="white" transform="matrix(4.37114e-08 1 1 -4.37114e-08 0 0)"/>
</clipPath>
</defs>
</svg>
