<svg width="14" height="14" viewBox="0 0 14 14" fill="none" xmlns="http://www.w3.org/2000/svg">
<g clip-path="url(#clip0_768_23752)">
<path d="M6.66167 13.5684C5.17417 13.5684 3.745 12.9909 2.60167 11.9234C1.24833 10.6517 0.4375 8.8142 0.4375 6.9942C0.4375 6.8892 0.4375 6.77253 0.4375 6.65003C0.536667 3.1267 3.50583 0.344196 7.0175 0.431696C10.2725 0.530863 13.5625 2.6017 13.5625 6.9942C13.5625 8.73836 13.0317 10.3542 12.1333 11.3284C11.1942 12.3492 10.0333 13.3584 7.035 13.5567C6.90667 13.5625 6.78417 13.5684 6.65583 13.5684H6.66167ZM6.83667 1.59836C4.01917 1.59836 1.68583 3.85003 1.60417 6.68503C1.60417 6.7842 1.60417 6.87753 1.60417 6.9767C1.60417 8.49336 2.275 10.0159 3.40083 11.0717C4.39833 12.005 5.67 12.4775 6.965 12.39C9.74167 12.2092 10.6283 11.2409 11.2758 10.5409C11.8183 9.9517 12.3958 8.71503 12.3958 6.9942C12.3958 3.13836 9.47917 1.68003 6.9825 1.59836C6.93583 1.59836 6.88333 1.59836 6.83667 1.59836Z" fill="#502314"/>
<path d="M6.43431 6.94739C6.43431 6.70822 6.13098 6.85989 5.90931 6.91822C5.65848 6.96489 5.50098 6.81906 5.50098 6.64989C5.50098 6.53322 5.54181 6.44572 5.66431 6.35239C5.81014 6.24739 6.00264 6.14822 6.19514 6.06072C6.60348 5.89739 7.02931 5.79239 7.44348 5.79822C7.60681 5.79822 7.77014 5.82156 7.78181 6.24739L7.71764 9.21072C7.71764 9.41489 7.86348 9.88739 8.03848 9.96322C8.14348 10.0099 8.19598 10.0216 8.27181 10.0507C8.41764 10.0974 8.49348 10.1382 8.49348 10.2899V10.4532C8.49348 10.5699 8.41764 10.6341 8.26014 10.6341H5.84514C5.69348 10.6341 5.61181 10.5641 5.61181 10.4532V10.2899C5.61181 10.1382 5.68764 10.0974 5.83348 10.0507C5.90931 10.0216 5.96764 10.0099 6.07264 9.96322C6.36431 9.67739 6.38181 8.62739 6.38181 8.42322L6.42848 6.94739H6.43431ZM6.02598 4.28156C6.02598 3.77989 6.39348 3.36572 6.95348 3.36572C7.48431 3.36572 7.88098 3.78572 7.88098 4.28156C7.88098 4.77739 7.63014 5.18572 7.09931 5.18572C6.52764 5.18572 6.02598 4.77739 6.02598 4.28156Z" fill="#502314"/>
</g>
<defs>
<clipPath id="clip0_768_23752">
<rect width="14" height="14" fill="white"/>
</clipPath>
</defs>
</svg>
