<svg width="18" height="18" viewBox="0 0 18 18" fill="none" xmlns="http://www.w3.org/2000/svg">
<g clip-path="url(#clip0_54_1194)">
<path fill-rule="evenodd" clip-rule="evenodd" d="M9.538 14.2278L16.2716 7.16649C16.4073 7.02383 16.4973 6.78716 16.4973 6.54983C16.4973 6.31249 16.4073 6.07516 16.2716 5.93316L15.1419 4.74649C15.0062 4.60449 14.7805 4.50916 14.5548 4.50916C14.3291 4.50916 14.1471 4.60449 13.9671 4.74649L8.99663 9.95916L4.03777 4.75783C3.90209 4.61516 3.67641 4.52049 3.45004 4.52049C3.22436 4.52049 2.99868 4.61516 2.863 4.75783L1.73322 5.94383C1.59754 6.08649 1.50754 6.32383 1.50754 6.56116C1.50754 6.79849 1.59754 6.98783 1.73322 7.17783L8.44231 14.2132C8.44231 14.2132 8.96868 14.8338 9.538 14.2278Z" fill="#502314"/>
</g>
<defs>
<clipPath id="clip0_54_1194">
<rect width="15" height="10" fill="white" transform="translate(16.5 14.5005) rotate(-180)"/>
</clipPath>
</defs>
</svg>
