<svg width="27" height="26" viewBox="0 0 27 26" fill="none" xmlns="http://www.w3.org/2000/svg">
<g id="apply_step_03" clip-path="url(#clip0_1610_24052)">
<path id="Vector" d="M25.9475 14.4008C25.7428 13.0131 25.4015 11.6481 24.4038 10.8063C23.7635 10.2668 23.0193 9.97109 22.2588 9.80534C21.3585 6.09709 20.9848 5.09609 19.7108 3.42884C18.3815 1.68684 17.062 0.871094 15.0373 0.871094H11.9303C9.652 0.871094 7.92625 1.71609 6.7205 3.94234C5.765 5.70709 4.74125 7.69609 4.60475 9.83784C3.88975 10.0101 3.1975 10.2993 2.593 10.8063C1.59525 11.6448 1.254 13.0131 1.04925 14.4008C0.815251 15.9673 0.513001 17.7613 1.098 19.2661C1.4555 20.1826 2.073 20.9268 2.79775 21.4176C4.17575 22.3503 5.908 22.2431 7.43225 22.4186C7.7475 22.4186 8.00425 22.1066 8.00425 21.7198V10.4683C8.00425 9.74359 7.34125 9.57459 6.69125 9.56809C6.96425 5.86309 9.249 2.86009 11.927 2.86009H15.034C17.7088 2.86009 19.9968 5.86309 20.2698 9.57134C19.6295 9.58109 18.986 9.75659 18.986 10.4716V21.4728C18.57 22.0936 17.79 23.0068 16.8085 22.9646C16.5225 22.4836 15.8985 22.2041 15.1738 22.2041L13.8868 22.2528C12.8923 22.2528 12.0863 22.7273 12.0863 23.5821C12.0863 25.0933 14.111 25.1258 15.1738 25.1258C15.8335 25.1258 16.4088 24.8203 16.7208 24.3686C17.6925 24.1638 18.4725 23.8453 19.077 23.5008C19.7985 23.0881 20.273 22.6493 20.5558 22.3341C21.807 22.2431 23.1103 22.1553 24.1925 21.4208C24.9173 20.9301 25.538 20.1858 25.8923 19.2693C26.4773 17.7646 26.175 15.9673 25.941 14.4041L25.9475 14.4008Z" fill="#502314"/>
</g>
<defs>
<clipPath id="clip0_1610_24052">
<rect width="26" height="26" fill="white" transform="translate(0.5)"/>
</clipPath>
</defs>
</svg>
