<svg width="27" height="26" viewBox="0 0 27 26" fill="none" xmlns="http://www.w3.org/2000/svg">
<g id="apply_step_01" clip-path="url(#clip0_1610_24045)">
<path id="Vector" d="M21.196 3.75377C21.196 3.12652 20.6598 2.61302 20 2.61302C19.285 2.61302 18.5635 2.51227 17.8453 2.44727V3.94877C17.8453 4.64752 17.2115 5.21627 16.4348 5.21627H7.3575C6.58075 5.21627 5.947 4.64752 5.947 3.94877V2.53502C5.11175 2.59027 4.2765 2.63252 3.4445 2.61627C2.78475 2.61627 2.2485 3.12652 2.2485 3.75702C2.32975 7.42952 2.6125 11.0923 2.45975 14.7713C2.34275 17.5695 2.2485 20.3678 2.2485 23.166C2.2485 23.7933 2.78475 24.3068 3.4445 24.3068C6.4215 24.167 9.40175 23.8095 12.3853 23.8615C12.4145 23.465 12.499 22.9873 12.6193 22.3893C12.6583 22.1975 12.6908 22.0318 12.707 21.9278C12.8273 21.099 13.8738 19.903 16.7565 16.9455C17.3805 16.3053 17.92 15.7528 18.2158 15.418C18.284 15.34 18.3913 15.2133 18.5115 15.0703C19.3663 14.053 19.5613 13.8418 19.8798 13.7215C19.987 13.6793 20.156 13.6273 20.3608 13.6273C20.3803 13.6273 20.3965 13.6305 20.416 13.6305C20.416 12.8798 21.0823 12.3175 21.3455 12.0965C21.4235 12.0283 21.5015 11.9633 21.5503 11.9145C21.5178 9.19752 21.3228 6.47727 21.1993 3.76352L21.196 3.75377ZM12.122 18.8955C11.5208 18.902 10.9325 18.7233 10.3313 18.7688C9.8145 18.8078 9.28476 18.8695 8.75501 18.8988C8.53076 18.9118 8.3065 18.9183 8.0855 18.9183C7.793 18.9183 7.41925 18.9833 7.13326 18.8403C6.3825 18.4568 6.662 16.7863 7.46151 16.952C7.59151 16.9618 8.04 17.03 8.638 17.03C9.64876 17.03 11.0853 16.9553 12.1155 16.9423C12.9735 16.9325 12.9963 18.889 12.122 18.8988V18.8955ZM15.9993 15.119C14.969 15.1255 13.9583 14.9468 12.928 14.9923C12.044 15.0313 11.134 15.093 10.2273 15.1223C9.84375 15.1353 9.46026 15.1418 9.08001 15.1418C8.57626 15.1418 7.93925 15.2068 7.45175 15.0638C6.16475 14.6803 6.6425 13.0098 8.01725 13.1755C8.23826 13.1853 9.00851 13.2535 10.0323 13.2535C11.7645 13.2535 14.2248 13.1788 15.9928 13.1658C17.4618 13.156 17.504 15.1125 16.0025 15.1223L15.9993 15.119ZM15.9993 11.3458C14.969 11.3523 13.9583 11.1735 12.928 11.219C12.044 11.258 11.134 11.3198 10.2273 11.349C9.84375 11.362 9.46026 11.3685 9.08001 11.3685C8.57626 11.3685 7.93925 11.4335 7.45175 11.2905C6.16475 10.907 6.6425 9.23652 8.01725 9.40227C8.23826 9.41202 9.00851 9.48027 10.0323 9.48027C11.7645 9.48027 14.2248 9.40552 15.9928 9.39252C17.4618 9.38277 17.504 11.3393 16.0025 11.349L15.9993 11.3458Z" fill="#502314"/>
<path id="Vector_2" d="M21.3292 19.6113C20.7735 20.2353 17.92 23.4268 16.9742 24.1646C17.985 24.2426 18.9957 24.3011 20 24.3011C21.6575 24.3011 21.2642 21.3533 21.3032 20.3231C21.313 20.0858 21.3195 19.8486 21.3292 19.6113Z" fill="#502314"/>
<path id="Vector_3" d="M7.69875 4.47235H11.1925C12.954 4.47235 14.8 4.6446 16.555 4.49835C17.4715 4.42035 17.0458 2.81485 17.0458 2.18435C17.0458 2.00235 17.0945 1.6416 16.8053 1.6416H11.9725C10.4158 1.6416 8.77775 1.4856 7.234 1.6416C6.82125 1.68385 6.792 1.8691 6.73675 2.26235C6.662 2.80835 6.58075 3.7021 6.82125 4.2221C6.9805 4.5666 7.35425 4.4691 7.69875 4.4691V4.47235Z" fill="#502314"/>
<path id="Vector_4" d="M24.5565 13.8229L23.12 12.5034C22.8795 12.2824 22.5057 12.2986 22.2847 12.5391C22.08 12.7601 21.7452 12.9811 21.547 13.2314C21.3877 13.4329 21.3162 13.6539 21.4885 13.9106C21.5015 13.9301 21.5177 13.9431 21.5307 13.9594C21.7745 14.2876 22.1547 14.5119 22.444 14.7849C22.6975 15.0221 22.9477 15.3211 23.2305 15.5226C23.6465 15.8184 23.7537 15.5356 24.0592 15.2171C24.2347 15.0319 24.4135 14.8466 24.589 14.6614C24.81 14.4209 24.7937 14.0471 24.5532 13.8261L24.5565 13.8229Z" fill="#502314"/>
<path id="Vector_5" d="M21.482 15.5549C21.1895 15.3307 20.9003 15.0999 20.637 14.8237C20.442 14.6189 20.4453 14.5409 20.221 14.6254C20.0748 14.6807 19.22 15.7434 18.947 16.0554C17.8485 17.3034 13.8055 21.1417 13.669 22.0679C13.6203 22.4059 13.4058 23.3127 13.357 23.9009C13.3375 24.1512 13.344 24.3462 13.4123 24.4079C13.526 24.5152 14.215 24.2812 14.9235 24.0049C15.4858 23.7872 16.0643 23.5434 16.3828 23.4199C16.6753 23.2932 20.0715 19.5784 20.702 18.8634C20.9068 18.6327 21.1473 18.3629 21.391 18.0834C21.8395 17.5699 22.3043 17.0077 22.5968 16.5169C22.2588 16.1399 21.872 15.8539 21.4853 15.5549H21.482Z" fill="#502314"/>
</g>
<defs>
<clipPath id="clip0_1610_24045">
<rect width="26" height="26" fill="white" transform="translate(0.5)"/>
</clipPath>
</defs>
</svg>
