<svg width="27" height="26" viewBox="0 0 27 26" fill="none" xmlns="http://www.w3.org/2000/svg">
<g id="apply_step_02" clip-path="url(#clip0_1610_24048)">
<path id="Vector" d="M12.8955 24.7655C10.2273 24.7655 7.66626 23.732 5.62201 21.8177C3.19751 19.546 1.74801 16.2472 1.74801 12.994C1.74151 12.8087 1.74151 12.5942 1.74801 12.3797C1.92676 6.06175 7.23726 1.08275 13.5325 1.242H13.5358C19.3695 1.424 25.2553 5.129 25.2553 12.994C25.2553 16.114 24.2998 19.0162 22.7008 20.755C21.0238 22.5815 18.9373 24.395 13.5715 24.7427C13.3473 24.7557 13.123 24.7655 12.8988 24.7655H12.8955ZM13.2075 3.32525C8.15701 3.32525 3.98076 7.3585 3.83776 12.4382C3.83126 12.6137 3.83126 12.786 3.83776 12.9615C3.83776 15.6752 5.04026 18.4052 7.05201 20.2902C8.83951 21.9672 11.1113 22.8122 13.435 22.6562C18.4108 22.3312 20 20.6022 21.1603 19.3412C22.1288 18.2882 23.1655 16.0685 23.1655 12.994C23.1655 6.08775 17.9428 3.4715 13.4708 3.33175C13.383 3.33175 13.2953 3.3285 13.2075 3.3285V3.32525Z" fill="#502314"/>
<path id="Vector_2" d="M12.1415 18.5807C11.8067 18.5807 11.485 18.4539 11.2412 18.2199C10.5717 17.4984 9.90549 16.7704 9.17424 16.1074C8.59574 15.5874 7.98474 15.1032 7.41599 14.5734C7.05849 14.2322 6.74974 13.6959 6.70424 13.1987C6.68799 13.0297 6.72049 12.8542 6.82774 12.7209C7.15924 12.3147 7.99124 12.3829 8.42349 12.5357C9.10924 12.7794 9.70074 13.2604 10.185 13.7967C10.6367 14.2939 11.1275 14.7262 11.6572 15.1357C11.7807 15.2299 11.9335 15.3047 12.083 15.2657C12.4535 15.1714 15.0632 11.8629 15.7522 10.9822C16.4412 10.1014 17.0457 9.22067 17.8127 8.45042C18.3295 7.91417 19.4117 7.72567 20.0227 8.21317C20.5882 8.66167 20.1885 9.23692 19.74 9.80242L16.5777 13.4522L13.162 18.0867C12.9345 18.3727 12.5965 18.5514 12.2292 18.5774C12.2 18.5774 12.1675 18.5774 12.1382 18.5774L12.1415 18.5807Z" fill="#502314"/>
</g>
<defs>
<clipPath id="clip0_1610_24048">
<rect width="26" height="26" fill="white" transform="translate(0.5)"/>
</clipPath>
</defs>
</svg>
