<svg width="27" height="26" viewBox="0 0 27 26" fill="none" xmlns="http://www.w3.org/2000/svg">
<g id="apply_step_04" clip-path="url(#clip0_1610_24055)">
<path id="Vector" fill-rule="evenodd" clip-rule="evenodd" d="M15.8952 11.5311C14.2767 20.4296 0.382987 14.3326 7.20474 7.6896C7.57524 7.3841 8.02374 7.08835 8.55024 6.80885C11.5662 5.2196 16.503 8.18035 15.892 11.5311H15.8952ZM10.6465 17.6249C16.3047 17.6346 19.9187 19.8186 19.9187 23.7576C19.9187 24.2094 20.0617 25.6361 19.7107 25.7076C19.5352 25.7434 18.6707 25.7596 18.0727 25.7628H17.8192C16.6817 25.7628 15.19 25.7011 14.8487 25.6849C13.5617 25.6296 12.655 25.6101 11.979 25.6069C9.81449 25.6069 6.02824 25.7726 4.15624 25.6751C2.76199 25.6036 1.67974 25.7206 1.38399 25.3241C1.22799 25.1161 1.27999 23.6601 1.27999 23.2831C1.28649 18.9866 6.39874 17.6184 10.6465 17.6249Z" fill="#502314"/>
<path id="Vector_2" d="M25.6225 3.71845C25.3105 2.6037 24.8133 1.61895 23.7798 1.03395C22.7008 0.422954 21.2968 0.179204 19.974 0.247454C19.454 0.273454 18.9438 0.351454 18.4758 0.474954C17.062 0.845454 15.8075 1.80745 15.203 3.15295C14.9788 3.6567 14.8488 4.20595 14.8488 4.75845C14.8488 5.9772 15.6158 7.03021 16.542 7.67696C16.9028 7.93046 17.465 8.09295 17.6113 8.5772C17.7673 9.0842 17.27 9.55545 17.1465 10.0105C17.3253 10.1177 17.5853 9.97145 17.7575 9.9032C18.0208 9.7992 18.258 9.64645 18.4953 9.48721C18.9178 9.20771 19.3533 8.9997 19.8473 8.90545C20.5103 8.7787 21.183 8.81446 21.846 8.6812C22.6423 8.5187 23.3638 8.23271 23.9878 7.83621C25.2228 7.04971 26.0385 5.1972 25.6225 3.71845ZM17.4 5.31745C16.8995 5.31745 16.4965 4.9112 16.4965 4.41395C16.4965 3.9167 16.9028 3.51045 17.4 3.51045C17.8973 3.51045 18.3035 3.9167 18.3035 4.41395C18.3035 4.9112 17.8973 5.31745 17.4 5.31745ZM20.4323 5.31745C19.9318 5.31745 19.5288 4.9112 19.5288 4.41395C19.5288 3.9167 19.935 3.51045 20.4323 3.51045C20.9295 3.51045 21.3358 3.9167 21.3358 4.41395C21.3358 4.9112 20.9295 5.31745 20.4323 5.31745ZM23.4645 5.31745C22.964 5.31745 22.561 4.9112 22.561 4.41395C22.561 3.9167 22.9673 3.51045 23.4645 3.51045C23.9618 3.51045 24.368 3.9167 24.368 4.41395C24.368 4.9112 23.9618 5.31745 23.4645 5.31745Z" fill="#502314"/>
</g>
<defs>
<clipPath id="clip0_1610_24055">
<rect width="26" height="26" fill="white" transform="translate(0.5)"/>
</clipPath>
</defs>
</svg>
