<svg width="17" height="18" viewBox="0 0 17 18" fill="none" xmlns="http://www.w3.org/2000/svg">
<g clip-path="url(#clip0_664_22828)">
<path d="M16.5194 9.86859C16.204 9.63346 15.7288 9.46057 15.057 9.46057C13.8527 9.46057 12.6798 10.2296 12.6798 12.0207C12.6798 13.8119 13.8527 14.5339 15.0106 14.5339C16.2258 14.5339 16.9959 13.7745 16.9959 12.6653C16.9959 11.964 16.5617 11.4772 15.6879 11.4772H15.4353C14.9806 11.4772 14.6296 11.6916 14.6296 12.1632C14.6296 12.592 15.012 12.7967 15.296 12.7967C15.4353 12.7967 15.5336 12.8382 15.5336 12.9488C15.5336 13.0844 15.3683 13.1743 15.1922 13.1743C14.6078 13.1743 14.2105 12.7718 14.2105 12.0221C14.2105 11.1895 14.7525 10.8866 15.1717 10.8866C15.6838 10.8866 15.7657 11.148 16.1221 11.148C16.5358 11.148 16.8143 10.8077 16.8143 10.462C16.8143 10.2061 16.701 10.0069 16.5194 9.86998" fill="#D72300"/>
<path d="M9.6349 12.4965V13.6279C9.6349 14.1355 9.34543 14.5394 8.81291 14.5394C8.28039 14.5394 7.99092 14.1369 7.99092 13.6279V10.3928C7.99092 9.87413 8.29132 9.46057 8.83339 9.46057C9.15836 9.46057 9.44374 9.58644 9.71683 10.1259L10.435 11.5394C10.4719 11.6127 10.5019 11.639 10.5429 11.639C10.6003 11.639 10.6303 11.5975 10.6303 11.5034V10.3721C10.6303 9.86444 10.9198 9.46057 11.4523 9.46057C11.9848 9.46057 12.2743 9.86306 12.2743 10.3721V13.6072C12.2743 14.1259 11.9739 14.5394 11.4318 14.5394C11.1164 14.5394 10.8215 14.4135 10.5484 13.8741L9.83016 12.4606C9.79466 12.3873 9.76325 12.361 9.72229 12.361C9.66494 12.361 9.6349 12.4025 9.6349 12.4965Z" fill="#D72300"/>
<path d="M2.59064 13.6128V12.8686C2.59064 12.8064 2.61659 12.7594 2.67803 12.7594C2.76132 12.7594 2.7818 12.8437 2.80228 12.8852C2.92108 13.1729 3.2679 13.7856 3.58741 14.1466C3.80451 14.3873 4.0735 14.5395 4.35751 14.5395C4.83814 14.5395 5.24095 14.1148 5.24095 13.6598C5.24095 13.3776 5.12215 13.1674 4.89413 12.9157C4.60465 12.5962 4.2633 12.1771 4.13904 11.9834C4.09262 11.9101 4.08716 11.8631 4.08716 11.8424C4.08716 11.7843 4.11856 11.7428 4.18001 11.6847C4.32474 11.5491 4.68112 11.2089 4.87774 10.8991C5.02794 10.6639 5.08938 10.4482 5.08938 10.2711C5.08938 9.81608 4.68112 9.45923 4.23599 9.45923C3.95198 9.45923 3.68299 9.62105 3.50139 9.91981C3.25834 10.3181 2.96887 10.7787 2.78317 10.9613C2.73674 11.0083 2.7108 11.0194 2.6753 11.0194C2.61386 11.0194 2.58791 10.9779 2.58791 10.9101V10.3859C2.58791 9.87278 2.28752 9.45923 1.74544 9.45923C1.20336 9.45923 0.905701 9.87417 0.905701 10.3873V13.6128C0.905701 14.1259 1.20063 14.5395 1.74817 14.5395C2.29571 14.5395 2.59064 14.1259 2.59064 13.6128Z" fill="#D72300"/>
<path d="M16.5658 15.0677C16.8662 15.0677 17 15.2144 17 15.4702C17 15.9211 16.5918 16.5491 15.7848 17.0097C14.4412 17.7787 12.1364 17.9986 8.94672 17.9986C5.75708 17.9986 3.45223 17.7787 2.10864 17.0097C1.30167 16.5491 0.89341 15.9211 0.89341 15.4702C0.89341 15.2144 1.02722 15.0677 1.32762 15.0677H16.5645H16.5658Z" fill="#FF8732"/>
<path d="M16.5658 5.07331H1.32898C1.02859 5.07331 0.894775 4.91563 0.894775 4.63347C0.894775 2.95851 3.38123 0 8.94672 0C14.5122 0 16.9987 2.95851 16.9987 4.63347C16.9987 4.91563 16.8649 5.07331 16.5645 5.07331" fill="#FF8732"/>
<path d="M4.85453 9.15633C4.01752 9.15633 3.57785 8.64873 3.57785 8.00972V6.24485C3.57785 5.93088 3.75945 5.67915 4.08988 5.67915C4.42032 5.67915 4.60738 5.93088 4.60738 6.24485V7.95163C4.60738 8.07749 4.66883 8.22411 4.85589 8.22411C5.04296 8.22411 5.11396 8.07749 5.11396 7.95163V6.24485C5.11396 5.93088 5.2942 5.67915 5.626 5.67915C5.9578 5.67915 6.13803 5.93088 6.13803 6.24485V8.00972C6.13803 8.64873 5.6929 9.15633 4.85589 9.15633M1.50103 9.13005H2.23017C2.91698 9.13005 3.33617 8.66394 3.33617 8.08303C3.33617 7.61691 3.06172 7.40253 3.00027 7.34997C2.97433 7.32922 2.94838 7.30848 2.94838 7.28773C2.94838 7.26145 2.9634 7.25177 2.98935 7.21996C3.08766 7.10516 3.18597 6.9212 3.18597 6.65426C3.18597 6.02632 2.76678 5.6916 2.11547 5.6916H1.50103C1.0914 5.6916 0.894775 5.93227 0.894775 6.25592V8.56435C0.894775 8.88939 1.0914 9.13005 1.49966 9.13005M1.93387 7.06781C1.84648 7.06781 1.80415 7.01525 1.80415 6.94748V6.59202C1.80415 6.52424 1.84512 6.47169 1.93387 6.47169H2.00077C2.22334 6.47169 2.29025 6.62936 2.29025 6.76491C2.29025 6.89077 2.22334 7.0692 2.00077 7.0692H1.93387V7.06781ZM1.93387 7.69575H2.02672C2.27523 7.69575 2.34759 7.86311 2.34759 8.01525C2.34759 8.1508 2.27523 8.34444 2.02672 8.34444H1.93387C1.84648 8.34444 1.80415 8.29188 1.80415 8.22411V7.81608C1.80415 7.74831 1.84512 7.69575 1.93387 7.69575ZM7.56218 7.15633C7.47479 7.15633 7.43246 7.10377 7.43246 7.036V6.68054C7.43246 6.61276 7.47342 6.56021 7.56218 6.56021H7.63454C7.85165 6.56021 7.91855 6.71788 7.91855 6.85343C7.91855 6.98897 7.85165 7.15772 7.63454 7.15772H7.56218V7.15633ZM6.4671 8.59063C6.4671 8.9046 6.64734 9.15633 6.97914 9.15633C7.31094 9.15633 7.49117 8.9046 7.49117 8.59063V8.036C7.49117 7.96823 7.52258 7.93642 7.57447 7.93642C7.63591 7.93642 7.65776 7.97238 7.66732 8.036C7.71374 8.30294 7.83799 8.66394 7.97727 8.8479C8.15341 9.08303 8.31863 9.15633 8.48384 9.15633C8.75283 9.15633 8.98496 8.94195 8.98496 8.675C8.98496 8.49658 8.91259 8.36657 8.81974 8.24624C8.66954 8.04707 8.53573 7.87417 8.46882 7.6916C8.4538 7.65011 8.46336 7.61276 8.50979 7.5768C8.66954 7.45094 8.85661 7.17431 8.85661 6.73448C8.85661 6.0692 8.31453 5.69299 7.65776 5.69299H7.07335C6.66509 5.69299 6.46847 5.93365 6.46847 6.25868V8.5934L6.4671 8.59063ZM14.4835 8.59063C14.4835 8.9046 14.6638 9.15633 14.9956 9.15633C15.3274 9.15633 15.5076 8.9046 15.5076 8.59063V8.036C15.5076 7.96823 15.539 7.93642 15.5909 7.93642C15.6524 7.93642 15.6742 7.97238 15.6838 8.036C15.7302 8.30294 15.8544 8.66394 15.9937 8.8479C16.1699 9.08303 16.3351 9.15633 16.5003 9.15633C16.7693 9.15633 17.0014 8.94195 17.0014 8.675C17.0014 8.49658 16.929 8.36657 16.8362 8.24624C16.66 8.02079 16.5522 7.87417 16.4853 7.6916C16.4703 7.65011 16.4798 7.61276 16.5262 7.5768C16.686 7.45094 16.8731 7.17431 16.8731 6.73448C16.8731 6.0692 16.331 5.69299 15.6742 5.69299H15.0898C14.6815 5.69299 14.4849 5.93365 14.4849 6.25868V8.5934L14.4835 8.59063ZM13.6261 7.82162H13.2697C13.1823 7.82162 13.14 7.87417 13.14 7.94195V8.04153C13.14 8.10931 13.1809 8.16186 13.2697 8.16186H13.7353C14.0248 8.16186 14.2528 8.33476 14.2528 8.64319C14.2528 8.95163 14.0248 9.13005 13.7353 9.13005H12.759C12.3507 9.13005 12.1541 8.88939 12.1541 8.56435V6.25592C12.1541 5.93088 12.3507 5.69022 12.759 5.69022H13.7353C14.0248 5.69022 14.2528 5.86311 14.2528 6.17155C14.2528 6.47998 14.0248 6.65841 13.7353 6.65841H13.2697C13.1823 6.65841 13.14 6.71097 13.14 6.77874V6.86311C13.14 6.93088 13.1809 6.98344 13.2697 6.98344H13.6261C13.8746 6.98344 14.0712 7.13559 14.0712 7.40253C14.0712 7.66947 13.8746 7.82162 13.6261 7.82162ZM11.5943 5.94195C11.3772 5.78012 11.0727 5.65979 10.618 5.65979C9.8165 5.65979 9.03684 6.19368 9.03684 7.42881C9.03684 8.66394 9.81787 9.16186 10.588 9.16186C11.399 9.16186 11.9111 8.63766 11.9111 7.87417C11.9111 7.38731 11.6216 7.0526 11.0427 7.0526H10.8774C10.573 7.0526 10.3354 7.19921 10.3354 7.52839C10.3354 7.82162 10.588 7.96269 10.7805 7.96269C10.8788 7.96269 10.9403 7.99451 10.9403 8.06781C10.9403 8.16186 10.8324 8.22549 10.7081 8.22549C10.3203 8.22549 10.0568 7.94748 10.0568 7.43019C10.0568 6.85481 10.4187 6.64458 10.6972 6.64458C11.0386 6.64458 11.0945 6.823 11.3335 6.823C11.6079 6.823 11.7936 6.59202 11.7936 6.35135C11.7936 6.17293 11.7158 6.03738 11.597 5.94333M15.5814 7.15772C15.494 7.15772 15.4516 7.10516 15.4516 7.03738V6.68192C15.4516 6.61415 15.4926 6.56159 15.5814 6.56159H15.6537C15.8708 6.56159 15.9377 6.71926 15.9377 6.85481C15.9377 6.99036 15.8708 7.1591 15.6537 7.1591H15.5814V7.15772Z" fill="#D72300"/>
<path d="M7.3915 10.4495C7.3915 9.90041 7.07608 9.46057 6.49714 9.46057C5.9182 9.46057 5.60278 9.90041 5.60278 10.4495V13.5491C5.60278 14.0982 5.9182 14.538 6.49714 14.538C7.07608 14.538 7.3915 14.0982 7.3915 13.5491V10.4495Z" fill="#D72300"/>
</g>
<defs>
<clipPath id="clip0_664_22828">
<rect width="16.1053" height="18" fill="white" transform="translate(0.894775)"/>
</clipPath>
</defs>
</svg>
