<svg width="25" height="24" viewBox="0 0 25 24" fill="none" xmlns="http://www.w3.org/2000/svg">
<g clip-path="url(#clip0_628_21536)">
<path fill-rule="evenodd" clip-rule="evenodd" d="M14.1398 12.88C15.0798 12.85 16.0498 12.73 16.9398 12.41C17.9198 12.05 19.0398 11.78 19.8798 11.13C20.6798 10.5 21.3198 9.70001 21.9298 8.90001C22.2198 8.51001 22.2198 8.19001 22.1398 7.73001C22.0998 7.50001 22.1098 7.17001 21.7798 7.28001C19.7598 7.96001 18.0498 9.37001 15.8598 9.44001C14.5498 9.48001 13.2398 9.18001 12.0298 8.69001C11.6598 8.02001 10.5998 6.24001 9.20984 5.15001C9.27984 5.07001 9.33984 4.98001 9.38984 4.88001C9.68984 4.26001 9.39984 3.53001 8.72984 3.18001C8.50984 3.06001 8.26984 3.04001 8.06984 3.05001C7.85984 2.77001 7.49984 2.51001 6.95984 2.51001C6.41984 2.51001 6.03984 2.81001 5.82984 3.12001C5.61984 3.11001 5.36984 3.13001 5.13984 3.25001C4.82984 3.41001 4.59984 3.67001 4.49984 4.00001C4.39984 4.33001 4.43984 4.67001 4.60984 4.97001C4.60984 4.99001 4.62984 5.00001 4.63984 5.02001L3.67984 5.62001C3.43984 5.77001 2.77984 6.15001 2.82984 6.42001C2.87984 6.69001 3.62984 6.79001 3.89984 6.85001L5.34984 7.19001C5.34984 7.19001 5.40984 7.19001 5.44984 7.20001C5.63984 7.73001 5.73984 8.33001 5.36984 9.97001C4.45984 13.99 6.55984 15.93 8.20984 16.59C8.32984 16.64 8.59984 17.32 8.70984 17.46C8.95984 17.78 9.25984 18.05 9.58984 18.28C10.3398 18.79 10.4798 18.44 11.2198 18.8C11.5298 18.95 12.2598 19.83 12.2598 20.13C12.2598 20.57 11.4598 20.86 11.1498 21.09C11.0298 21.18 10.9298 21.35 11.0298 21.47C10.9698 21.39 11.9798 21.29 12.0298 21.29C12.4298 21.23 12.8098 21.27 13.1998 21.31C13.3798 21.33 13.4298 21.37 13.5098 21.34C13.5398 21.33 13.5698 21.31 13.6098 21.27C13.9798 20.95 13.6698 20.68 13.4598 20.45C13.2498 20.22 13.3498 19.63 13.5498 19.33C13.7198 19.08 13.8098 19.13 14.1198 19.07C14.8298 18.94 15.4998 18.69 16.1198 18.33C17.7498 17.4 18.8998 15.82 19.7298 14.17C20.9498 13.65 20.7598 11.94 20.7998 11.73C20.7698 11.88 20.0798 12.2 19.9398 12.28C19.6698 12.43 19.3898 12.58 19.1098 12.7C18.7098 12.88 18.2898 13.03 17.8698 13.15C16.8698 13.43 15.7798 13.75 14.7598 13.46C14.5798 13.41 14.1898 13.29 14.1098 13.08C14.0898 13.01 14.0198 12.88 14.1498 12.87L14.1398 12.88Z" fill="#502314"/>
</g>
<defs>
<clipPath id="clip0_628_21536">
<rect width="24" height="24" fill="white" transform="translate(0.5)"/>
</clipPath>
</defs>
</svg>
