<svg width="26" height="26" viewBox="0 0 26 26" fill="none" xmlns="http://www.w3.org/2000/svg">
<g id="ICO_order_TOGO" clip-path="url(#clip0_3401_30959)">
<path id="Vector" d="M8.11499 4.21928C8.85778 2.41914 10.3034 1.0881 12.6003 1.00601C14.0345 0.953235 15.6401 1.22883 16.4229 2.60678C16.7029 3.09346 16.8914 3.65051 17.0171 4.23687H14.7373C14.3831 3.28696 13.6803 3.1521 12.6061 3.21073C11.6518 3.26351 10.9948 3.65051 10.5377 4.22514H8.11499V4.21928ZM22.8681 21.7457C22.5767 17.6411 21.9996 6.30673 21.9996 6.30673L9.53773 6.28914H7.58931L3.47535 6.27742L3.01253 22.5725C2.99539 23.8683 2.82969 24.7713 4.46384 24.871C6.12086 24.9707 8.29783 25 10.5834 25C13.8974 25 17.4285 24.9355 19.8569 24.9355C23.6223 24.9355 23.0281 24.0501 22.8681 21.7457Z" fill="#502314"/>
</g>
<defs>
<clipPath id="clip0_3401_30959">
<rect width="26" height="26" fill="white"/>
</clipPath>
</defs>
</svg>
