<svg width="26" height="26" viewBox="0 0 26 26" fill="none" xmlns="http://www.w3.org/2000/svg">
<g id="ICO_Membership" clip-path="url(#clip0_3401_31000)">
<path id="Vector" d="M13 0C5.8175 0 0 5.8175 0 13C0 20.1825 5.8175 26 13 26C20.1825 26 26 20.1825 26 13C26 5.8175 20.1825 0 13 0ZM20.605 11.18L19.2725 17.7883C19.1858 18.2325 18.8175 18.5575 18.4058 18.5575H7.59417C7.17167 18.5575 6.81417 18.2325 6.7275 17.7883L5.395 11.05C5.24333 10.2592 5.98 9.60917 6.64083 9.95583L9.37083 11.375C9.7825 11.5917 10.2808 11.4183 10.5192 10.985L12.1442 7.95167C12.4908 7.30167 13.3467 7.3125 13.6825 7.9625L15.2642 11.0283C15.4808 11.4617 15.9683 11.635 16.38 11.4508L19.3808 10.075C20.0417 9.77167 20.7458 10.4108 20.5942 11.1908L20.605 11.18Z" fill="#502314"/>
</g>
<defs>
<clipPath id="clip0_3401_31000">
<rect width="26" height="26" fill="white"/>
</clipPath>
</defs>
</svg>
