<svg width="25" height="24" viewBox="0 0 25 24" fill="none" xmlns="http://www.w3.org/2000/svg">
<g clip-path="url(#clip0_628_21528)">
<path d="M5.7299 9.22002C5.8099 8.65002 5.9399 8.07002 6.3399 7.70002C6.5699 7.49002 6.8499 7.42002 7.1399 7.34002C7.2399 7.32002 7.3299 7.29002 7.4199 7.26002C7.6099 7.20002 7.8499 7.10002 8.0699 6.89002C8.0899 6.87002 8.1199 6.84002 8.1599 6.78002C8.2799 6.63002 8.7999 6.33002 8.4499 6.15002C8.2699 6.06002 7.9299 6.07002 7.7199 6.01002C7.5699 5.97002 7.4099 5.93002 7.2599 5.90002C7.1299 5.88002 7.0099 5.85002 6.8799 5.83002C6.2599 5.72002 5.6199 5.61002 5.0499 5.37002C4.5899 5.18002 4.3199 4.82002 4.0299 4.44002C3.9699 4.36002 3.9099 4.29002 3.8499 4.21002C3.8199 4.17002 3.7699 4.15002 3.7099 4.16002C3.6599 4.16002 3.6199 4.21002 3.5999 4.26002C3.5099 4.55002 3.5699 4.84002 3.6399 5.12002C3.6699 5.23002 3.6899 5.34002 3.6999 5.44002C3.7099 5.53002 3.7299 5.61002 3.7499 5.70002C3.8099 5.94002 3.8399 6.10002 3.7099 6.25002C3.4699 6.54002 3.1399 6.81002 2.8199 7.07002C2.6399 7.21002 2.4599 7.36002 2.2999 7.51002C1.8599 7.91002 1.3499 8.38002 0.849898 8.89002C0.549898 9.19002 0.449898 9.77002 0.519898 10.13C0.589898 10.45 1.2099 10.67 1.5099 10.69C1.9199 10.72 2.3299 10.72 2.7299 10.71C3.1099 10.71 3.5099 10.7 3.8899 10.73C3.9799 10.73 4.0699 10.74 4.1499 10.74C5.0999 10.74 5.5699 10.28 5.7199 9.23002L5.7299 9.22002Z" fill="#502314"/>
<path d="M5.85014 11.4999C5.79014 11.3599 5.54014 11.2999 5.12014 11.3099C4.56014 11.3299 4.50014 11.4599 4.48014 11.5099C4.31014 11.9099 4.27014 12.3499 4.21014 12.8199C4.19014 12.9999 4.17014 13.1899 4.14014 13.3799C4.14014 13.4199 4.14014 13.4599 4.17014 13.4899C4.20014 13.5199 4.24014 13.5399 4.28014 13.5399H6.12014C6.12014 13.5399 6.20014 13.5199 6.23014 13.4899C6.26014 13.4599 6.27014 13.4199 6.26014 13.3699C6.22014 13.1699 6.19014 12.9699 6.16014 12.7799C6.09014 12.3199 6.02014 11.8799 5.84014 11.4899L5.85014 11.4999Z" fill="#502314"/>
<path d="M22.98 12.58L23.09 14.03C23.09 14.1 23.15 14.15 23.22 14.16L23.51 14.19C23.51 14.19 23.59 14.19 23.62 14.16C23.65 14.13 23.67 14.1 23.67 14.06C23.67 13.89 23.88 9.82003 23.39 8.73003C23.35 8.55003 22.97 7.24003 20.94 7.06003C19.86 6.96003 17.44 6.99003 15.1 7.02003C12.95 7.05003 10.93 7.07003 10.02 7.00003C9.97998 7.00003 8.91998 7.13003 7.65998 7.61003C7.25998 7.76003 6.76998 7.69003 6.40998 8.63003C6.11998 9.38003 5.77998 10.89 6.83998 12.98C8.51998 16.26 8.78998 19.69 8.79998 19.72C8.79998 19.79 8.86998 19.85 8.93998 19.85L9.98998 19.83C10.07 19.83 10.13 19.77 10.13 19.69V14.58C10.13 14.66 10.97 14.78 11.09 14.79C11.39 14.83 11.7 14.86 12 14.89C12.96 14.98 13.93 15.03 14.9 15.02C15.87 15.01 16.92 14.96 17.87 14.67C18.12 14.59 18.38 14.52 18.63 14.46C18.77 14.43 19.17 14.28 19.3 14.35C19.33 14.37 19.35 14.39 19.36 14.42C19.74 14.97 20 15.76 20.04 16.42C20.07 16.9 19.93 17.35 19.83 17.81C19.79 17.98 19.34 19.69 19.68 19.68H20.17C20.23 19.68 20.78 19.64 20.8 19.58L22.9 12.56H22.97L22.98 12.58Z" fill="#502314"/>
</g>
<defs>
<clipPath id="clip0_628_21528">
<rect width="24" height="24" fill="white" transform="translate(0.5)"/>
</clipPath>
</defs>
</svg>
