<svg width="25" height="24" viewBox="0 0 25 24" fill="none" xmlns="http://www.w3.org/2000/svg">
<g clip-path="url(#clip0_628_21533)">
<path fill-rule="evenodd" clip-rule="evenodd" d="M21.9 9.92006C22.05 10.9901 22.13 10.9901 22.17 12.0601C22.27 14.6701 21.48 17.0701 20.18 19.3101C20.1 19.4501 19.87 19.5601 19.69 19.5901C19.41 19.6401 19.11 19.6001 18.82 19.5901C18.77 19.5901 18.73 19.5701 18.67 19.5501C18.7 19.0501 18.76 18.5601 18.76 18.0701C18.75 17.1201 18.5 16.2501 17.78 15.5901C17.67 15.4901 17.47 15.4201 17.33 15.4501C16.58 15.6401 15.85 15.9101 15.09 16.0701C14.35 16.2301 13.59 16.2801 12.79 16.3901C12.65 16.8301 12.51 17.3201 12.34 17.8001C12.23 18.1001 12.1 18.4001 11.95 18.6801C11.43 19.6801 11.25 19.7601 10.05 19.5601C10.05 18.9101 10.05 18.2601 10.05 17.6101C10.05 17.4801 10.02 17.3501 9.99002 17.2301C9.78002 16.2801 9.78002 16.2901 8.81002 16.2201C6.65002 16.0501 4.51002 15.7601 2.47002 14.9601C2.29002 14.8901 2.12002 14.8001 1.94002 14.7301C1.39002 14.5201 1.03002 14.1701 0.91002 13.5701C0.83002 13.1501 0.66002 12.7501 0.52002 12.3101C1.08002 12.1401 1.61002 12.0001 2.12002 11.8201C2.26002 11.7701 2.42002 11.6201 2.45002 11.4901C2.61002 10.7401 2.96002 10.1101 3.56002 9.57006C2.70002 8.96006 2.24002 8.14006 2.13002 7.04006C2.66002 7.19006 3.16002 7.31006 3.64002 7.46006C4.32002 7.68006 4.85002 7.64006 5.45002 7.07006C7.99002 4.66006 11.09 4.02006 14.47 4.51006C16.11 4.75006 17.69 5.22006 19.11 6.11006C19.73 6.49006 20.29 6.97006 20.75 7.54006C21.3 8.21006 21.41 8.48006 22.27 8.47006C23.05 8.46006 24.02 8.68006 24.5 9.35006C24.32 9.40006 21.9 9.91006 21.9 9.93006V9.92006Z" fill="#502314"/>
</g>
<defs>
<clipPath id="clip0_628_21533">
<rect width="24" height="24" fill="white" transform="translate(0.5)"/>
</clipPath>
</defs>
</svg>
