<svg width="27" height="26" viewBox="0 0 27 26" fill="none" xmlns="http://www.w3.org/2000/svg">
<g id="ICO_Order" clip-path="url(#clip0_3401_31005)">
<path id="Vector" d="M25.2001 6.65112C24.1276 6.57529 22.7301 6.56445 21.2568 6.56445C19.1226 6.56445 16.8585 6.60779 15.2551 6.60779C12.861 6.60779 13.1968 7.23612 13.316 8.85029C14.421 9.06695 15.4718 9.47862 16.436 10.0528C17.3351 10.562 18.0718 11.3095 18.5918 12.2086C19.101 13.1078 19.3718 14.1261 19.3501 15.1553V15.4261L19.816 16.1195C20.0651 16.5311 20.2276 16.9753 20.2926 17.452C20.3576 17.9286 20.336 18.4053 20.2168 18.8711C20.0868 19.532 19.8051 20.1386 19.3935 20.6695L19.3501 21.742C19.3176 22.4028 19.1443 23.042 18.841 23.627C18.5376 24.212 18.1151 24.7211 17.5843 25.1328H24.4851L26.1101 8.28695C26.1426 7.38779 26.251 6.74862 25.2001 6.67279V6.65112Z" fill="#502314"/>
<path id="Vector_2" d="M15.8077 2.77384L18.3535 3.45634L18.3752 3.91134C18.4077 4.39884 18.4294 4.89718 18.451 5.38468C19.101 5.50384 19.7619 5.50384 20.4119 5.38468C20.3794 4.84301 20.3469 4.30134 20.3252 3.75968C20.3252 3.48884 20.3035 3.20718 20.2819 2.93634C20.2819 2.68718 20.206 2.44884 20.0652 2.24301C19.9244 2.03718 19.7294 1.87468 19.5019 1.77718C18.9819 1.59301 18.4402 1.43051 17.8985 1.32218L16.2952 0.888843C15.8185 0.758843 15.7969 2.77384 15.7969 2.77384H15.8077Z" fill="#502314"/>
<path id="Vector_3" d="M15.3851 22.0015H14.7134C13.2509 21.9474 12.2109 21.9257 11.4634 21.9257C10.8351 21.9257 10.4667 21.9257 10.0876 21.9582C9.7084 21.9907 9.1559 22.0015 8.2459 22.0015C7.44423 22.0015 6.46923 22.0015 5.18007 21.9474H4.98507C3.9234 21.9474 2.86173 21.7957 1.8434 21.4707C1.82173 21.6657 1.82173 21.8607 1.8434 22.0449C1.91923 22.5757 2.12507 23.0849 2.45007 23.529C2.77507 23.9732 3.19757 24.309 3.68507 24.5365C4.55173 24.8724 5.4834 25.0024 6.41507 24.9374H13.6084C14.6267 24.9374 15.6884 24.9374 16.6092 24.4065C17.0751 24.114 17.4651 23.724 17.7359 23.2582C18.0176 22.7924 18.1801 22.2615 18.2017 21.709C17.2701 21.9365 16.3167 22.034 15.3634 22.0015H15.3851Z" fill="#502314"/>
<path id="Vector_4" d="M5.22319 20.5944C6.60986 20.6378 7.56319 20.6486 8.24569 20.6486C9.92486 20.6486 10.0657 20.5619 11.4415 20.5619C12.124 20.5619 13.1207 20.5619 14.7457 20.6486H15.3632C16.3274 20.6486 17.7899 20.5728 18.2232 20.2153C19.0249 19.5544 19.5232 17.7778 18.8407 16.7594C18.5157 17.0303 18.1149 17.2144 17.7032 17.3011C17.2482 17.3769 16.7824 17.4094 16.3274 17.3878C15.3307 17.3878 14.0524 17.3336 13.684 17.3119C12.6657 17.2686 11.8749 17.2469 11.2574 17.2469C10.7265 17.2469 10.1849 17.2686 9.65402 17.3336C9.05819 17.4094 8.45152 17.4419 7.84486 17.4419C7.04319 17.4419 5.90569 17.3986 4.39986 17.3228C3.99902 17.3228 3.69569 17.3011 3.40319 17.3011C2.69902 17.3011 1.77819 17.3011 1.16069 16.6836C0.944022 17.1711 0.846522 17.7128 0.868189 18.2436C0.868189 20.5836 3.70652 20.5619 5.22319 20.6053V20.5944Z" fill="#502314"/>
<path id="Vector_5" d="M1.84335 14.614C1.84335 15.4698 1.99502 15.784 2.40669 15.8923C2.95919 15.9682 3.52252 15.9898 4.07502 15.9682H4.47585C6.10085 16.0548 7.13002 16.0873 7.84502 16.0873C9.60002 16.0873 9.38335 15.8923 11.2684 15.8923C11.8534 15.8923 12.6442 15.914 13.76 15.9573C14.0634 15.9573 15.3634 16.0332 16.3384 16.0332C16.6959 16.0332 17.0642 16.0332 17.4217 15.979L17.6059 15.9248L17.7575 15.8707C17.9092 15.8165 18.0284 15.7082 18.1042 15.5782C18.1909 15.4482 18.2234 15.2857 18.2017 15.134C18.2017 11.4723 14.605 9.65234 10.0334 9.65234C7.94252 9.66318 1.83252 10.2265 1.83252 14.6032L1.84335 14.614Z" fill="#502314"/>
</g>
<defs>
<clipPath id="clip0_3401_31005">
<rect width="26" height="26" fill="white" transform="translate(0.5)"/>
</clipPath>
</defs>
</svg>
