<svg width="38" height="26" viewBox="0 0 38 26" fill="none" xmlns="http://www.w3.org/2000/svg">
<g id="Group 427320269">
<g id="Group 427320268">
<path id="Vector" d="M16.4504 18.8832C15.5163 18.8832 14.4712 18.8674 13.2362 18.8516V18.8832H8.91375C8.59708 18.8832 8.34375 19.1366 8.34375 19.4532C8.34375 19.7699 8.59708 20.0232 8.91375 20.0232H13.2996C13.7904 22.4932 16.4029 24.0291 19.0946 21.4799C19.3321 21.2582 19.5379 21.0207 19.7279 20.7674C20.1554 20.1974 20.4879 19.5482 20.7096 18.8991C19.3162 18.8991 18.0337 18.8991 16.4662 18.8674L16.4504 18.8832Z" fill="#502314"/>
<path id="Vector_2" d="M29.6399 17.3942C29.5132 17.3942 29.3866 17.4892 29.1491 17.6633C28.9749 18.5342 29.0224 19.3575 29.3707 19.975C31.3499 23.5692 35.9574 20.7825 36.3216 17.2675C34.7382 17.2358 31.3816 17.2675 29.6399 17.3783V17.3942Z" fill="#502314"/>
<path id="Vector_3" d="M37.5562 13.7385C36.9071 11.981 35.0071 11.0151 33.3604 10.5876C33.2971 10.5718 33.2337 10.556 33.1704 10.5401C32.3946 9.32098 31.6504 8.24431 30.9854 6.93015C31.0487 6.96181 31.1279 6.99348 31.2229 7.00931C31.7771 7.15181 32.5212 7.12015 32.5212 6.91432C32.5212 6.13848 31.9671 3.73181 31.9512 3.65265C31.9196 3.25681 31.8246 3.13015 31.5554 3.05098C31.4762 3.03515 31.3812 3.01931 31.2704 3.00348C30.7321 2.94015 29.8612 3.74765 29.6871 4.87181L29.2279 4.49181C29.1171 4.41265 28.9746 4.34932 28.8162 4.30182C28.1354 4.12765 27.0904 4.27015 26.6629 4.47598C25.7921 4.88765 25.9029 6.17015 26.6154 6.36015C26.7421 6.39181 26.8846 6.39181 27.0429 6.36015C27.3279 6.28098 27.5971 6.26515 27.8504 6.32848C28.5787 6.51848 29.1171 7.35765 29.4021 8.89348C29.5762 9.84348 29.8137 10.5401 29.8929 10.9676C28.4996 11.4901 27.0746 12.8043 26.1562 14.261C25.1587 14.7676 23.6071 13.8968 23.3062 13.4851C22.7996 12.8043 22.5146 11.2368 24.0187 9.73265C24.4621 9.27348 24.0821 8.45015 23.5912 8.32348H23.5596C21.1054 7.88015 19.0471 7.94348 16.4979 7.88015C15.5796 7.84848 15.0729 9.13098 15.6271 9.62182C15.6271 9.62182 15.6271 9.62182 15.6112 9.62182H8.89791C8.58124 9.62182 8.32791 9.87515 8.32791 10.1918C8.32791 10.5085 8.58124 10.7618 8.89791 10.7618H13.1571C13.0146 10.8885 12.8562 11.031 12.6821 11.1893C11.8746 11.9651 11.2571 12.9468 10.8454 14.0393H6.14291C5.82624 14.0551 5.57291 14.3085 5.57291 14.6251C5.57291 14.9418 5.82624 15.1951 6.14291 15.1951H10.5287C10.4812 15.496 10.4812 15.8126 10.5604 16.0976H2.86541C2.54874 16.0976 2.29541 16.351 2.29541 16.6676C2.29541 16.9843 2.54874 17.2376 2.86541 17.2376H16.0229C16.6087 17.2376 17.1471 17.2376 17.6696 17.2376H17.7171C17.9546 17.2376 18.1762 17.2376 18.4137 17.2376C18.4771 17.2376 18.5562 17.2376 18.6196 17.2376C18.8096 17.2376 18.9837 17.2376 19.1737 17.2376C19.2529 17.2376 19.3479 17.2376 19.4271 17.2376C19.6487 17.2376 19.8862 17.2376 20.1079 17.2376H20.1871C20.4404 17.2376 20.7096 17.2376 20.9787 17.2376H21.0104C22.4671 17.2376 24.0662 17.206 26.2987 17.1743C27.6921 17.2693 28.1512 15.8126 29.5604 15.7335C29.7346 15.7335 29.9404 15.7176 30.1621 15.7018C30.2729 15.7018 30.3837 15.7018 30.4946 15.7018C30.6529 15.7018 30.8271 15.7018 31.0012 15.686C31.1121 15.686 31.2229 15.686 31.3496 15.686C31.5712 15.686 31.8087 15.686 32.0304 15.6701C32.1254 15.6701 32.2046 15.6701 32.2996 15.6701C32.5846 15.6701 32.8854 15.6701 33.1704 15.6701C33.3129 15.6701 33.4712 15.6701 33.6137 15.6701C33.7721 15.6701 33.9304 15.6701 34.0887 15.6701C34.2312 15.6701 34.3737 15.6701 34.5321 15.6701C34.6746 15.6701 34.8171 15.6701 34.9596 15.6701C35.1021 15.6701 35.2446 15.6701 35.3712 15.6701C35.4979 15.6701 35.6087 15.6701 35.7354 15.6701C35.8621 15.6701 35.9887 15.6701 36.0996 15.6701C36.2896 15.6701 36.4796 15.6701 36.6379 15.6701C37.7779 15.7018 38.3796 15.8601 37.6037 13.7701L37.5562 13.7385Z" fill="#502314"/>
<path id="Vector_4" d="M4.46473 14.5446C4.46473 14.2279 4.21139 13.9746 3.89473 13.9746H0.664726C0.34806 13.9746 0.0947266 14.2279 0.0947266 14.5446C0.0947266 14.8613 0.34806 15.1146 0.664726 15.1146H3.89473C4.21139 15.1146 4.46473 14.8613 4.46473 14.5446Z" fill="#502314"/>
</g>
</g>
</svg>
