<svg width="26" height="26" viewBox="0 0 26 26" fill="none" xmlns="http://www.w3.org/2000/svg">
<g id="ICO_Coupon" clip-path="url(#clip0_3401_30973)">
<g id="_&#227;&#131;&#153;&#227;&#130;&#175;&#227;&#131;&#136;&#227;&#131;&#171;&#227;&#130;&#185;&#227;&#131;&#158;&#227;&#131;&#188;&#227;&#131;&#136;&#227;&#130;&#170;&#227;&#131;&#150;&#227;&#130;&#184;&#227;&#130;&#167;&#227;&#130;&#175;&#227;&#131;&#136;">
<g id="_&#234;&#183;&#184;&#235;&#163;&#185;_233">
<path id="_&#237;&#140;&#168;&#236;&#138;&#164;_1756" d="M18.9473 5.14506C19.0231 5.87089 18.7089 8.78506 18.7956 10.5509C18.8498 11.5151 18.5464 14.5267 18.8714 16.7367C19.0014 18.1126 19.0231 19.5101 18.9473 20.8859C18.9473 21.0051 19.0339 21.0917 19.1531 21.0917H24.6239C25.3931 21.0917 25.9998 20.4634 25.9998 19.6942V16.6609C25.9998 16.3251 25.7506 16.0326 25.4148 15.9784C23.5189 15.6209 22.2731 13.8009 22.6198 11.9051C22.8798 10.4859 23.9956 9.38089 25.4148 9.11006C25.7506 9.05589 25.9998 8.76339 25.9998 8.42756V6.31506C25.9998 5.54589 25.3931 4.92839 24.6239 4.91756C24.6239 4.91756 23.129 4.85256 22.4248 4.91756C21.7965 4.95006 19.2181 4.91756 19.1531 4.91756L18.9473 5.12339" fill="#502314"/>
<path id="_&#237;&#140;&#168;&#236;&#138;&#164;_1757" d="M18.0483 5.13507C18.1242 5.8609 17.7992 8.34174 17.8967 10.5409C17.94 11.5051 17.615 14.6142 17.9617 16.7267C18.2 18.1459 18.0375 19.8901 18.0375 20.8867C18.0375 21.0059 17.9508 21.0926 17.8317 21.0926C15.2642 21.0926 14.9175 21.2659 11.895 21.0601C8.53667 20.8326 3.87833 21.0926 1.365 21.0926C0.606667 21.0926 0 20.4642 0 19.7059V16.6726C0 16.3367 0.249167 16.0442 0.585 15.9901C2.48083 15.6326 3.72667 13.8126 3.38 11.9167C3.12 10.4976 2.00417 9.39257 0.585 9.12174C0.249167 9.06757 0 8.7859 0 8.43924V6.32674C0 5.55757 0.606667 4.94007 1.37583 4.92924C4.10583 4.92924 6.2075 4.70174 9.05667 4.92924C12.3067 5.15674 15.0908 4.92924 17.8533 4.92924L18.0592 5.13507" fill="#502314"/>
</g>
</g>
</g>
<defs>
<clipPath id="clip0_3401_30973">
<rect width="26" height="26" fill="white"/>
</clipPath>
</defs>
</svg>
