<svg width="26" height="26" viewBox="0 0 26 26" fill="none" xmlns="http://www.w3.org/2000/svg">
<g id="ICO_Menu" clip-path="url(#clip0_3401_31014)">
<path id="Vector" d="M21.0167 11.8735L20.7134 11.8951C18.7526 12.0576 16.7917 12.2418 14.8417 12.4368C14.7334 12.4585 14.5384 12.4801 14.2676 12.5018C13.3792 12.5993 11.6892 12.7835 9.97756 12.946C7.74589 12.9135 5.47089 12.8918 4.85339 12.9026C4.82089 12.296 4.72339 10.931 4.65839 9.85846C4.60423 8.9918 4.56089 8.3093 4.56089 8.29846C4.57173 8.48263 12.1009 7.8218 12.7834 7.73513C13.4876 7.64846 22.2517 6.82513 22.2842 6.82513C22.3492 6.83596 22.3384 7.8543 22.3276 8.39596V9.00263C22.3276 9.17596 22.3276 9.3493 22.3492 9.53346C22.4576 10.2701 22.5442 10.9851 22.5984 11.7326C22.6092 11.7435 21.5584 11.841 21.0276 11.8735H21.0167ZM21.5476 17.9943C20.4209 17.9943 19.2509 18.0051 18.1351 18.0376C16.7917 18.0701 15.3076 18.0051 13.8559 17.9401C13.3359 17.9185 12.8267 17.8968 12.3176 17.8751C11.9384 17.8643 9.59839 17.8968 7.42089 17.9401C5.38423 17.9726 3.47756 18.0051 3.47756 17.9835C3.39089 17.5176 3.43423 17.0735 3.45589 16.6076C3.46673 16.3368 3.48839 16.066 3.47756 15.7951C3.47756 15.676 3.46673 15.5568 3.45589 15.4268C3.44506 15.3076 3.43423 15.1885 3.43423 15.0801C3.43423 14.9068 3.44506 14.7443 3.45589 14.571C3.46673 14.4301 3.47756 14.2893 3.47756 14.1376V13.5418C3.47756 13.5418 7.48589 13.5635 10.4867 13.596C12.0901 13.6176 13.4226 13.6285 13.6826 13.6285H14.0726C15.0259 13.6285 15.9576 13.6285 16.9109 13.6826C17.4742 13.7151 18.0267 13.661 18.5901 13.6176C19.0234 13.5851 19.4676 13.531 19.9009 13.531H21.5476V17.9618V17.9943ZM21.5259 23.5626C21.5259 23.5626 19.3701 23.606 18.4601 23.6493C18.2759 23.6601 18.1459 23.6601 18.0917 23.6601C17.6367 23.6818 17.1817 23.6601 16.7159 23.6493C16.0117 23.6276 15.2967 23.6276 14.5926 23.6276H14.1484C13.8559 23.6276 13.5742 23.6168 13.2926 23.606C12.9242 23.5951 12.5559 23.5735 12.1876 23.5843C11.2451 23.6168 10.3242 23.5951 9.39256 23.5843C8.82923 23.5735 8.26589 23.5626 7.69173 23.5626H5.57923C5.35173 23.5626 5.13506 23.5735 4.90756 23.5843C4.42006 23.5951 3.94339 23.6168 3.43423 23.5626C3.40173 23.5626 3.38006 21.5801 3.41256 21.4068C3.43423 21.2551 3.54256 19.2401 3.43423 19.2293C4.69089 19.2835 5.94756 19.2835 7.21506 19.2726H8.69923C10.6601 19.2835 12.5992 19.2726 14.5601 19.186C15.7192 19.1426 16.8676 19.1643 18.0267 19.1968C19.1859 19.2293 20.3342 19.251 21.4934 19.2076C21.4392 19.2076 21.4609 21.1685 21.4717 21.721V21.8401C21.4717 22.046 21.4717 22.2626 21.4934 22.4685C21.5151 22.7068 21.5042 22.9451 21.5042 23.1835C21.5042 23.3243 21.4934 23.4543 21.4934 23.5735L21.5259 23.5626ZM3.41256 2.3618C3.41256 2.2968 8.43923 2.3618 11.3859 2.3943C12.4151 2.40513 13.1951 2.41596 13.4009 2.41596H13.8451C15.0151 2.41596 16.1851 2.41596 17.3659 2.44846H17.9942C19.1642 2.4593 21.5367 2.47013 21.5367 2.53513V6.80346C21.5367 6.80346 18.7309 6.76013 18.5467 6.7493C16.6834 6.6193 14.7551 6.66263 12.8592 6.70596C11.9601 6.72763 11.0501 6.7493 10.1617 6.7493H9.79339C8.36339 6.73846 3.40173 6.7168 3.40173 6.80346V2.3618H3.41256Z" fill="#502314"/>
</g>
<defs>
<clipPath id="clip0_3401_31014">
<rect width="26" height="26" fill="white"/>
</clipPath>
</defs>
</svg>
