<svg width="24" height="24" viewBox="0 0 24 24" fill="none" xmlns="http://www.w3.org/2000/svg">
<g clip-path="url(#clip0_2681_21839)">
<path d="M5.72266 7.43359V13.9369C5.72266 14.6237 6.27644 15.1832 6.96184 15.1832H15.6287V8.47253H10.8284L9.98903 7.66586C9.83506 7.51851 9.63143 7.43609 9.41786 7.43609H5.72266V7.43359Z" fill="#502314"/>
<path d="M15.6283 15.3907H6.95897C6.16182 15.3907 5.51367 14.7389 5.51367 13.9372V7.43385C5.51367 7.31897 5.60556 7.22656 5.71979 7.22656H9.41499C9.68071 7.22656 9.93401 7.32896 10.1277 7.51377L10.9075 8.263H15.6258C15.74 8.263 15.8319 8.35541 15.8319 8.47029V15.1809C15.8319 15.2958 15.74 15.3882 15.6258 15.3882L15.6283 15.3907ZM5.92839 7.64114V13.9372C5.92839 14.5091 6.39029 14.9761 6.96146 14.9761H15.4222V8.68008H10.828C10.7759 8.68008 10.7237 8.6601 10.6865 8.62263L9.84709 7.81596C9.73038 7.70607 9.57889 7.64364 9.41996 7.64364H5.93087L5.92839 7.64114Z" fill="#502314"/>
<path d="M8.81638 8.81692H7.02838C6.91415 8.81692 6.82227 8.72451 6.82227 8.60963C6.82227 8.49475 6.91415 8.40234 7.02838 8.40234H8.81638C8.93062 8.40234 9.0225 8.49475 9.0225 8.60963C9.0225 8.72451 8.93062 8.81692 8.81638 8.81692Z" fill="#F5EBDC"/>
<path d="M11.5012 23.0006C11.4665 23.0006 11.4292 22.9906 11.3969 22.9732L2.1043 17.5762C2.03973 17.5387 2 17.4713 2 17.3964V6.60489C2 6.52997 2.03973 6.46254 2.1043 6.42508L11.3969 1.0281C11.4615 0.990635 11.5385 0.990635 11.6031 1.0281L20.8957 6.42508C20.9603 6.46254 21 6.52997 21 6.60489V17.3964C21 17.4713 20.9603 17.5387 20.8957 17.5762L11.6031 22.9732C11.5708 22.9906 11.536 23.0006 11.4988 23.0006H11.5012ZM2.41223 17.2765L11.4988 22.5536L20.5853 17.2765V6.72477L11.5012 1.44767L2.41223 6.72477V17.2765Z" fill="#502314"/>
<path fill-rule="evenodd" clip-rule="evenodd" d="M12.7782 9.5918L14.2582 9.62676L14.2458 10.1937C14.7276 10.2786 15.1795 10.4509 15.5843 10.6932L16.1704 10.1337L17.196 11.2076L16.6919 11.6897C17.0396 12.1492 17.2879 12.6861 17.4046 13.2705L18.0279 13.2855L17.9932 14.774L17.4145 14.7615C17.3202 15.266 17.1314 15.7355 16.8657 16.1501L17.417 16.727L16.3442 17.751L15.8451 17.229C15.331 17.5961 14.7276 17.8409 14.0745 17.9258L14.0596 18.5551L12.5795 18.5202L12.5944 17.8334C12.0257 17.6885 11.5092 17.4188 11.0721 17.0567L10.6499 17.4588L9.62432 16.3848L10.126 15.9053C9.90742 15.5008 9.75593 15.0537 9.69137 14.5817L9.11523 14.5692L9.15 13.0807L9.77084 13.0957C9.90742 12.5513 10.1558 12.0518 10.491 11.6247L10.0117 11.1227L11.0845 10.0988L11.6135 10.6532C11.9661 10.4484 12.356 10.2986 12.7657 10.2137L12.7806 9.5918H12.7782Z" fill="#F5EBDC"/>
<path d="M14.2578 9.62311L14.464 9.62811C14.464 9.57316 14.4441 9.52072 14.4068 9.48076C14.3696 9.4408 14.3174 9.41832 14.2628 9.41582L14.2578 9.62311ZM12.7778 9.59064L12.7827 9.38336C12.6685 9.38336 12.5741 9.47077 12.5717 9.58565L12.7778 9.59064ZM14.2429 10.19L14.0368 10.185C14.0368 10.2874 14.1064 10.3773 14.2082 10.3948L14.2429 10.19ZM15.5815 10.692L15.4747 10.8693C15.5541 10.9168 15.656 10.9068 15.723 10.8419L15.5815 10.692ZM16.1675 10.1326L16.3165 9.98774C16.2371 9.90532 16.1079 9.90282 16.026 9.98025L16.1675 10.1301V10.1326ZM17.1931 11.2065L17.3347 11.3563C17.3744 11.3189 17.3968 11.2664 17.3993 11.2115C17.3993 11.1565 17.3794 11.1016 17.3421 11.0641L17.1931 11.209V11.2065ZM16.6865 11.6885L16.545 11.5387C16.468 11.6111 16.4581 11.731 16.5226 11.8159L16.6865 11.691V11.6885ZM17.3993 13.2694L17.1981 13.3118C17.218 13.4067 17.2999 13.4767 17.3943 13.4767L17.3993 13.2694ZM18.0226 13.2844L18.2287 13.2894C18.2287 13.1745 18.1418 13.0796 18.0275 13.0771L18.0226 13.2844ZM17.9903 14.7728L17.9853 14.9801C18.04 14.9801 18.0921 14.9602 18.1318 14.9227C18.1716 14.8852 18.1939 14.8328 18.1964 14.7778L17.9903 14.7728ZM17.4117 14.7579L17.4166 14.5506C17.3148 14.5506 17.2279 14.6205 17.208 14.7204L17.4117 14.7579ZM16.8629 16.1464L16.689 16.0341C16.6369 16.114 16.6468 16.2214 16.7139 16.2913L16.8629 16.1464ZM17.4142 16.7233L17.5557 16.8732C17.5954 16.8357 17.6178 16.7833 17.6203 16.7283C17.6203 16.6734 17.6004 16.6185 17.5632 16.5785L17.4142 16.7233ZM16.3414 17.7473L16.1924 17.8922C16.2718 17.9746 16.401 17.9771 16.4829 17.8996L16.3414 17.7498V17.7473ZM15.8397 17.2253L15.9887 17.0805C15.9167 17.0056 15.8025 16.9956 15.7205 17.0555L15.8397 17.2253ZM14.0691 17.9221L14.0418 17.7173C13.94 17.7298 13.8655 17.8172 13.863 17.9196L14.0691 17.9246V17.9221ZM14.0542 18.5515L14.0492 18.7588C14.1635 18.7588 14.2578 18.6714 14.2603 18.5565L14.0542 18.5515ZM12.5741 18.519L12.368 18.514C12.368 18.569 12.3879 18.6214 12.4251 18.6614C12.4624 18.7013 12.5145 18.7238 12.5692 18.7263L12.5741 18.519ZM12.5915 17.8322L12.7976 17.8372C12.7976 17.7398 12.7356 17.6549 12.6412 17.6324L12.5915 17.8322ZM11.0668 17.0555L11.1984 16.8957C11.1189 16.8282 10.9997 16.8332 10.9252 16.9057L11.0668 17.0555ZM10.6471 17.4576L10.4981 17.6025C10.5775 17.6849 10.7067 17.6874 10.7886 17.6099L10.6471 17.4601V17.4576ZM9.62145 16.3862L9.4799 16.2363C9.44017 16.2738 9.41782 16.3263 9.41533 16.3812C9.41533 16.4361 9.4352 16.4911 9.47245 16.531L9.62145 16.3862ZM10.1231 15.9067L10.2646 16.0565C10.3317 15.9916 10.3491 15.8892 10.3044 15.8068L10.1231 15.9067ZM9.6885 14.5805L9.89213 14.5531C9.87723 14.4532 9.7928 14.3758 9.69347 14.3733L9.6885 14.5805ZM9.11237 14.5681L8.90625 14.5631C8.90625 14.618 8.92612 14.6704 8.96337 14.7104C9.00062 14.7504 9.05277 14.7728 9.1074 14.7753L9.11237 14.5681ZM9.14465 13.0796L9.14962 12.8723C9.03538 12.8723 8.94102 12.9597 8.93853 13.0746L9.14465 13.0796ZM9.76548 13.0946L9.76052 13.3018C9.85737 13.3018 9.9418 13.2394 9.96663 13.1445L9.76548 13.0946ZM10.4881 11.6236L10.6496 11.7534C10.7141 11.671 10.7092 11.5561 10.6371 11.4812L10.4881 11.6261V11.6236ZM10.0064 11.1216L9.86482 10.9717C9.82508 11.0092 9.80273 11.0616 9.80025 11.1166C9.79777 11.1715 9.82012 11.2265 9.85737 11.2639L10.0064 11.1191V11.1216ZM11.0817 10.0976L11.2307 9.95277C11.1512 9.87036 11.0221 9.86786 10.9401 9.94528L11.0817 10.0951V10.0976ZM11.6106 10.6521L11.4616 10.7969C11.5262 10.8668 11.6305 10.8793 11.7124 10.8319L11.6106 10.6521ZM12.7629 10.2125L12.8051 10.4148C12.8995 10.3948 12.9665 10.3124 12.969 10.2175L12.7629 10.2125ZM14.2628 9.41582L12.7827 9.38086L12.7728 9.79544L14.2529 9.8279L14.2628 9.41333V9.41582ZM14.4515 10.195L14.464 9.62811L14.0517 9.61812L14.0393 10.185L14.4515 10.195ZM15.6882 10.5147C15.2636 10.2575 14.7893 10.0751 14.2802 9.98774L14.2082 10.3973C14.6651 10.4772 15.0922 10.6421 15.4747 10.8718L15.6858 10.5172L15.6882 10.5147ZM16.026 9.98274L15.4399 10.5422L15.7255 10.8419L16.3116 10.2824L16.026 9.98274ZM17.3421 11.0616L16.3165 9.98774L16.0185 10.2749L17.0441 11.3488L17.3421 11.0616ZM16.8306 11.8383L17.3347 11.3563L17.0491 11.0541L16.545 11.5362L16.8306 11.8358V11.8383ZM17.6029 13.2269C17.4787 12.6126 17.218 12.0456 16.8529 11.5611L16.5251 11.8134C16.8529 12.2479 17.0888 12.7574 17.2006 13.3093L17.6054 13.2269H17.6029ZM17.3943 13.4767L18.0176 13.4917L18.0275 13.0771L17.4042 13.0621L17.3943 13.4767ZM17.8165 13.2794L17.7842 14.7678L18.1964 14.7778L18.2312 13.2894L17.8189 13.2794H17.8165ZM17.9953 14.5631L17.4166 14.5506L17.4067 14.9651L17.9853 14.9776L17.9953 14.5631ZM17.0367 16.2588C17.3173 15.8218 17.516 15.3273 17.6153 14.7953L17.2105 14.7204C17.1236 15.1974 16.9423 15.642 16.6915 16.0341L17.0392 16.2588H17.0367ZM17.5632 16.5785L17.0119 16.0016L16.7139 16.2888L17.2652 16.8657L17.5632 16.5785ZM16.4829 17.8996L17.5557 16.8732L17.2726 16.5735L16.1998 17.6L16.4829 17.9021V17.8996ZM15.6907 17.3702L16.1899 17.8922L16.4879 17.6049L15.9887 17.083L15.6907 17.3702ZM14.0939 18.1294C14.7818 18.042 15.42 17.7823 15.9589 17.3952L15.7205 17.058C15.2338 17.4052 14.6626 17.6399 14.0418 17.7173L14.0939 18.1294ZM14.2603 18.5565L14.2752 17.9271L13.863 17.9171L13.8481 18.5465L14.2603 18.5565ZM12.5717 18.7263L14.0517 18.7613L14.0617 18.3467L12.5816 18.3117L12.5717 18.7263ZM12.3854 17.8272L12.3705 18.514L12.7827 18.524L12.7976 17.8372L12.3854 17.8272ZM10.9376 17.2153C11.397 17.5975 11.9434 17.8797 12.5419 18.0345L12.6437 17.6324C12.1048 17.4951 11.6156 17.2403 11.2009 16.8957L10.9376 17.2153ZM10.7886 17.6099L11.2108 17.2079L10.9252 16.9057L10.503 17.3078L10.7861 17.6074L10.7886 17.6099ZM9.47245 16.5285L10.4981 17.6025L10.7961 17.3152L9.77045 16.2413L9.47245 16.5285ZM9.97905 15.7543L9.47742 16.2339L9.763 16.536L10.2646 16.0565L9.97905 15.7568V15.7543ZM9.48238 14.6105C9.55192 15.11 9.71085 15.5795 9.9418 16.0066L10.3044 15.8068C10.0958 15.4247 9.95422 15.0001 9.89213 14.5531L9.48238 14.6105ZM9.69098 14.3733L9.11485 14.3608L9.10492 14.7753L9.68105 14.7878L9.69098 14.3733ZM9.31848 14.573L9.35325 13.0846L8.94102 13.0746L8.90625 14.5631L9.31848 14.573ZM9.13968 13.2869L9.76052 13.3018L9.77045 12.8873L9.14962 12.8723L9.13968 13.2869ZM10.3267 11.4962C9.9716 11.9457 9.71085 12.4702 9.56682 13.0446L9.96663 13.1445C10.0958 12.63 10.3317 12.158 10.6496 11.7534L10.3267 11.4962ZM9.85985 11.2664L10.3391 11.7684L10.6371 11.4812L10.1579 10.9792L9.85985 11.2664ZM10.9376 9.94778L9.86482 10.9742L10.1504 11.2739L11.2232 10.2475L10.9376 9.94778ZM11.7596 10.5072L11.2307 9.95277L10.9327 10.24L11.4616 10.7944L11.7596 10.5072ZM12.7207 10.0102C12.2886 10.1001 11.8788 10.2575 11.5063 10.4722L11.7124 10.8319C12.0477 10.6396 12.4152 10.4972 12.8051 10.4148L12.7207 10.0077V10.0102ZM12.5717 9.58565L12.5568 10.2075L12.969 10.2175L12.9839 9.59564L12.5717 9.58565Z" fill="#502314"/>
<path d="M13.2049 13.5069L12.7753 14.9055H12.3184L12.9665 13.1348H13.2546L13.2049 13.5069ZM13.5625 14.9055L13.1329 13.5069L13.0783 13.1348H13.3713L14.0219 14.9055H13.565H13.5625ZM13.5451 14.2436V14.5733H12.6412V14.2436H13.5451ZM14.5981 13.1348V14.9055H14.1734V13.1348H14.5981Z" fill="#502314"/>
</g>
<defs>
<clipPath id="clip0_2681_21839">
<rect width="19" height="22" fill="white" transform="translate(2 1)"/>
</clipPath>
</defs>
</svg>
