<svg width="24" height="24" viewBox="0 0 24 24" fill="none" xmlns="http://www.w3.org/2000/svg">
<g clip-path="url(#clip0_2681_21821)">
<path d="M6.4674 10.2019V8.19472L8.15199 6.41541L8.45153 6.14659C8.52834 6.07747 8.63074 6.03906 8.73315 6.03906H15.8274V16.1235C15.8274 17.0631 15.0644 17.8261 14.1249 17.8261H6.46484V10.2019H6.4674Z" fill="#502314"/>
<path d="M14.1284 18.0427H6.46835C6.35059 18.0427 6.25586 17.9479 6.25586 17.8302V8.19628C6.25586 8.14251 6.27634 8.08875 6.31474 8.05035L7.99933 6.27103L8.31167 5.98942C8.42944 5.88445 8.58049 5.82812 8.73666 5.82812H15.8309C15.9486 5.82812 16.0434 5.92285 16.0434 6.04062V16.1251C16.0434 17.1799 15.1857 18.0401 14.1284 18.0401V18.0427ZM6.68085 17.6177H14.1284C14.9502 17.6177 15.6184 16.9495 15.6184 16.1277V6.25567H9.37158V8.32428C9.37158 8.44205 9.27685 8.53678 9.15908 8.53678H7.59482C7.47706 8.53678 7.38233 8.44205 7.38233 8.32428C7.38233 8.20652 7.47706 8.11179 7.59482 8.11179H8.94659V6.25567H8.73922C8.68801 6.25567 8.63681 6.27359 8.59585 6.30944L8.29631 6.57569L6.68341 8.28076V17.6177H6.68085Z" fill="#F5EBDC"/>
<path d="M21.7875 22H2.21249C2.09473 22 2 21.9053 2 21.7875V2.21249C2 2.09473 2.09473 2 2.21249 2H21.7849C21.9027 2 21.9974 2.09473 21.9974 2.21249V21.7849C21.9974 21.9027 21.9027 21.9974 21.7849 21.9974L21.7875 22ZM2.42499 21.5725H21.5725V2.42499H2.42499V21.5725Z" fill="#502314"/>
<path d="M10.1309 11.0113L14.1273 9.01953L18.1237 11.0113V14.0451C17.8421 15.5505 16.8999 16.8536 15.5584 17.5935L14.1273 18.3795L12.476 17.5244C11.1524 16.8383 10.2691 15.53 10.1309 14.0426V11.0088V11.0113Z" fill="#F5EBDC"/>
<path d="M14.1269 18.5941C14.0936 18.5941 14.0603 18.5865 14.0296 18.5711L12.3783 17.716C10.983 16.994 10.0639 15.6295 9.91797 14.0652V11.0109C9.91797 10.9316 9.96405 10.8573 10.0357 10.8215L14.0322 8.82968C14.091 8.79896 14.1627 8.79896 14.2216 8.82968L18.218 10.8215C18.2897 10.8573 18.3358 10.9316 18.3358 11.0109V14.0447C18.0388 15.6576 17.0634 17.0043 15.6604 17.78L14.2293 18.5685C14.1986 18.5865 14.1627 18.5941 14.1269 18.5941ZM10.343 11.1441V14.0473C10.4735 15.4451 11.3081 16.6843 12.5729 17.3397L14.1218 18.1436L15.453 17.4114C16.7459 16.6996 17.642 15.4579 17.9108 14.0089V11.1466L14.1243 9.25979L10.3404 11.1466L10.343 11.1441Z" fill="#502314"/>
<path d="M16.5771 13.7031C16.5771 15.0651 15.4788 16.166 14.1245 16.166C12.7702 16.166 11.6719 15.0651 11.6719 13.7031C11.6719 12.3411 12.7702 11.2402 14.1245 11.2402C15.4788 11.2402 16.5771 12.3411 16.5771 13.7031Z" fill="#502314"/>
<path d="M14.128 16.3781C12.6585 16.3781 11.4629 15.1774 11.4629 13.7027C11.4629 12.2281 12.6585 11.0273 14.128 11.0273C15.5976 11.0273 16.7932 12.2281 16.7932 13.7027C16.7932 15.1774 15.5976 16.3781 14.128 16.3781ZM14.128 11.4498C12.894 11.4498 11.8904 12.4585 11.8904 13.7002C11.8904 14.9418 12.894 15.9505 14.128 15.9505C15.362 15.9505 16.3656 14.9418 16.3656 13.7002C16.3656 12.4585 15.362 11.4498 14.128 11.4498Z" fill="#502314"/>
<path d="M9.01953 13.0352C10.059 13.2912 10.6427 13.304 11.6847 13.0352V14.5533C10.6478 14.9015 10.059 14.9066 9.01953 14.5533V13.0352Z" fill="#F5EBDC"/>
<path d="M10.3492 15.0283C9.9191 15.0283 9.49411 14.9362 8.95392 14.7518C8.86687 14.7211 8.81055 14.6418 8.81055 14.5496V13.0314C8.81055 12.9674 8.84127 12.9034 8.89247 12.865C8.94368 12.824 9.01024 12.8112 9.07424 12.8266C10.1034 13.0801 10.6539 13.0801 11.6344 12.8266C11.6984 12.8112 11.765 12.8266 11.8187 12.865C11.8699 12.906 11.9007 12.9674 11.9007 13.034V14.5521C11.9007 14.6443 11.8418 14.7237 11.7547 14.7544C11.2094 14.9387 10.7793 15.0309 10.3518 15.0309L10.3492 15.0283ZM9.23297 14.3985C10.0829 14.6699 10.6103 14.6699 11.4706 14.3985V13.3053C10.6564 13.4897 10.0829 13.4897 9.23297 13.3053V14.4011V14.3985Z" fill="#502314"/>
<path d="M19.2315 13.0352C18.1921 13.2912 17.6084 13.304 16.5664 13.0352V14.5533C17.6033 14.9015 18.1921 14.9066 19.2315 14.5533V13.0352Z" fill="#F5EBDC"/>
<path d="M17.9063 15.0289C17.4788 15.0289 17.0487 14.9368 16.5034 14.7524C16.4163 14.7243 16.3574 14.6424 16.3574 14.5502V13.032C16.3574 12.9655 16.3881 12.904 16.4393 12.863C16.4906 12.8221 16.5597 12.8093 16.6237 12.8246C17.6042 13.0781 18.1547 13.0781 19.1838 12.8246C19.2478 12.8093 19.3144 12.8246 19.3656 12.863C19.4168 12.904 19.4475 12.9655 19.4475 13.0295V14.5476C19.4475 14.6398 19.3887 14.7192 19.3042 14.7499C18.764 14.9342 18.3364 15.0264 17.9089 15.0264L17.9063 15.0289ZM16.7824 14.3991C17.6426 14.6705 18.17 14.6705 19.02 14.3991V13.3034C18.17 13.4903 17.594 13.4903 16.7824 13.3034V14.3966V14.3991Z" fill="#502314"/>
<path d="M13.7301 12.9709V13.9233H14.2063C14.2729 13.9233 14.3343 13.9105 14.3906 13.89C14.4469 13.8644 14.4981 13.8312 14.5417 13.7876C14.5852 13.7415 14.6185 13.6929 14.6441 13.634C14.6697 13.5751 14.6825 13.5137 14.6825 13.4471C14.6825 13.3831 14.6697 13.3191 14.6441 13.2654C14.6185 13.2065 14.5852 13.1553 14.5417 13.1117C14.4981 13.0682 14.4469 13.0349 14.3906 13.0093C14.3317 12.9837 14.2703 12.9709 14.2063 12.9709H13.7301ZM13.7301 14.8757H13.2539V12.4922H14.2088C14.2959 12.4922 14.3804 12.505 14.4623 12.5255C14.5442 12.546 14.6185 12.5818 14.6876 12.6228C14.7593 12.6663 14.8233 12.7124 14.8796 12.7712C14.9385 12.8301 14.9897 12.8941 15.0307 12.9633C15.0716 13.0349 15.1049 13.1117 15.1279 13.1937C15.151 13.2756 15.1638 13.3601 15.1638 13.4446C15.1638 13.5777 15.1382 13.7006 15.0895 13.8158C15.0409 13.931 14.9718 14.0334 14.8847 14.1179C14.7977 14.2075 14.6978 14.2741 14.5801 14.3253C14.4649 14.3713 14.342 14.3969 14.2114 14.3969H13.7352V14.8731L13.7301 14.8757Z" fill="#F5EBDC"/>
</g>
<defs>
<clipPath id="clip0_2681_21821">
<rect width="20" height="20" fill="white" transform="translate(2 2)"/>
</clipPath>
</defs>
</svg>
