<svg width="24" height="24" viewBox="0 0 24 24" fill="none" xmlns="http://www.w3.org/2000/svg">
<g clip-path="url(#clip0_2681_21924)">
<path d="M6.4674 10.2019V8.19472L8.15199 6.41541L8.45153 6.14659C8.52834 6.07747 8.63074 6.03906 8.73315 6.03906H15.8274V16.1235C15.8274 17.0631 15.0644 17.8261 14.1249 17.8261H6.46484V10.2019H6.4674Z" fill="#502314"/>
<path d="M6.46835 8.19567L6.31474 8.04974L6.25586 8.10862V8.19311H6.46835V8.19567ZM15.8309 6.04257H16.0434C16.0434 5.92224 15.9486 5.83008 15.8309 5.83008V6.04257ZM9.15652 8.32368V8.53617C9.27429 8.53617 9.36902 8.44145 9.36902 8.32368H9.15652ZM7.59226 8.11118C7.4745 8.11118 7.37977 8.20591 7.37977 8.32368C7.37977 8.44145 7.4745 8.53617 7.59226 8.53617V8.11118ZM8.15294 6.41636L8.01213 6.26019L8.00445 6.26531L7.99933 6.27299L8.15294 6.41892V6.41636ZM6.46835 17.8296H6.25586C6.25586 17.9499 6.35059 18.0421 6.46835 18.0421V17.8296ZM6.25586 8.19567V10.2028H6.68085V8.19567H6.25586ZM16.0434 8.64114V6.04001H15.6184V8.64114H16.0434ZM15.8309 5.83008H9.15908V6.25507H15.8309V5.83008ZM8.94403 6.04257V8.32368H9.36902V6.04257H8.94403ZM9.15652 8.11118H7.59226V8.53617H9.15652V8.11118ZM6.62196 8.34416L8.30655 6.56228L7.99677 6.27299L6.31218 8.0523L6.62196 8.34672V8.34416ZM15.6184 8.64114V16.1271H16.0434V8.64114H15.6184ZM14.1284 17.6171H6.46835V18.0421H14.1284V17.6171ZM6.68085 17.8296V10.2054H6.25586V17.8296H6.68085ZM8.29631 6.57509L8.59585 6.31139L8.31423 5.99137L8.01469 6.26019L8.29631 6.57509ZM8.73666 6.25507H9.15652V5.83008H8.73666V6.25507ZM8.59585 6.31139C8.63425 6.27299 8.68545 6.25507 8.73666 6.25507V5.83008C8.58049 5.83008 8.42944 5.8864 8.31167 5.99137L8.59329 6.31139H8.59585ZM15.6184 16.1271C15.6184 16.9514 14.9527 17.6171 14.1284 17.6171V18.0421C15.1857 18.0421 16.0434 17.187 16.0434 16.1271H15.6184Z" fill="#F5EBDC"/>
<path d="M21.7875 22H2.21249C2.09473 22 2 21.9053 2 21.7875V2.21249C2 2.09473 2.09473 2 2.21249 2H21.7849C21.9027 2 21.9974 2.09473 21.9974 2.21249V21.7849C21.9974 21.9027 21.9027 21.9974 21.7849 21.9974L21.7875 22ZM2.42499 21.5725H21.5725V2.42499H2.42499V21.5725Z" fill="#502314"/>
<path d="M11.5759 10.5109H9.23593C9.11816 10.5109 9.02344 10.4162 9.02344 10.2984C9.02344 10.1807 9.11816 10.0859 9.23593 10.0859H11.5759C11.6937 10.0859 11.7884 10.1807 11.7884 10.2984C11.7884 10.4162 11.6937 10.5109 11.5759 10.5109Z" fill="#F5EBDC"/>
<path d="M11.5759 13.0617H9.23593C9.11816 13.0617 9.02344 12.967 9.02344 12.8492C9.02344 12.7314 9.11816 12.6367 9.23593 12.6367H11.5759C11.6937 12.6367 11.7884 12.7314 11.7884 12.8492C11.7884 12.967 11.6937 13.0617 11.5759 13.0617Z" fill="#F5EBDC"/>
<path d="M12.637 11.7883H9.23202C9.11426 11.7883 9.01953 11.6935 9.01953 11.5758C9.01953 11.458 9.11426 11.3633 9.23202 11.3633H12.637C12.7548 11.3633 12.8495 11.458 12.8495 11.5758C12.8495 11.6935 12.7548 11.7883 12.637 11.7883Z" fill="#F5EBDC"/>
<path d="M15.4027 19.4479C17.4006 19.4479 19.0202 17.8283 19.0202 15.8304C19.0202 13.8325 17.4006 12.2129 15.4027 12.2129C13.4048 12.2129 11.7852 13.8325 11.7852 15.8304C11.7852 17.8283 13.4048 19.4479 15.4027 19.4479Z" fill="#F5EBDC"/>
<path d="M15.4023 19.66C13.2901 19.66 11.5723 17.9421 11.5723 15.83C11.5723 13.7179 13.2901 12 15.4023 12C17.5144 12 19.2323 13.7179 19.2323 15.83C19.2323 17.9421 17.5144 19.66 15.4023 19.66ZM15.4023 12.425C13.5257 12.425 11.9973 13.9508 11.9973 15.83C11.9973 17.7092 13.5231 19.235 15.4023 19.235C17.2814 19.235 18.8073 17.7092 18.8073 15.83C18.8073 13.9508 17.2814 12.425 15.4023 12.425Z" fill="#F5EBDC"/>
<path d="M12.4122 15.5953C12.4122 15.5953 12.3917 15.5953 12.3789 15.5953C12.2637 15.5773 12.1818 15.4698 12.1997 15.3521C12.3047 14.6659 12.6196 14.0464 13.1086 13.5599C13.7179 12.9506 14.5295 12.6152 15.3923 12.6152C16.255 12.6152 17.0666 12.9506 17.6759 13.5625C17.8961 13.7827 18.083 14.0284 18.2264 14.2947C18.2827 14.3971 18.2443 14.5277 18.1419 14.584C18.0395 14.6403 17.9089 14.6019 17.8526 14.4995C17.7271 14.2691 17.5658 14.054 17.3738 13.8646C16.8439 13.3346 16.1398 13.0428 15.3897 13.0428C14.6396 13.0428 13.9355 13.3346 13.4056 13.8646C12.9806 14.287 12.7066 14.8221 12.617 15.4186C12.6017 15.5236 12.5095 15.5978 12.4071 15.5978L12.4122 15.5953Z" fill="#502314"/>
<path d="M18.2395 14.6928H16.6676C16.5498 14.6928 16.4551 14.5981 16.4551 14.4804C16.4551 14.3626 16.5498 14.2679 16.6676 14.2679H18.027V12.9059C18.027 12.7881 18.1217 12.6934 18.2395 12.6934C18.3573 12.6934 18.452 12.7881 18.452 12.9059V14.4804C18.452 14.5981 18.3573 14.6928 18.2395 14.6928Z" fill="#502314"/>
<path d="M15.4128 18.9376C14.5859 18.9376 13.759 18.6227 13.1292 17.9929C12.9064 17.7651 12.7221 17.5167 12.5787 17.2556C12.5224 17.1532 12.5608 17.0226 12.6632 16.9663C12.7656 16.91 12.8962 16.9484 12.9525 17.0508C13.078 17.2786 13.2392 17.4937 13.4338 17.6934C14.527 18.7866 16.3063 18.7866 17.3995 17.6934C17.8245 17.2684 18.0984 16.7282 18.188 16.1343C18.206 16.019 18.3135 15.9397 18.4313 15.9576C18.5465 15.9755 18.6284 16.0831 18.6105 16.2008C18.5055 16.8844 18.1906 17.5039 17.7016 17.9955C17.0718 18.6253 16.2449 18.9402 15.4179 18.9402L15.4128 18.9376Z" fill="#502314"/>
<path d="M12.568 18.853C12.4502 18.853 12.3555 18.7583 12.3555 18.6405V17.066C12.3555 16.9482 12.4502 16.8535 12.568 16.8535H14.1399C14.2577 16.8535 14.3524 16.9482 14.3524 17.066C14.3524 17.1838 14.2577 17.2785 14.1399 17.2785H12.7805V18.6405C12.7805 18.7583 12.6857 18.853 12.568 18.853Z" fill="#502314"/>
</g>
<defs>
<clipPath id="clip0_2681_21924">
<rect width="20" height="20" fill="white" transform="translate(2 2)"/>
</clipPath>
</defs>
</svg>
