<svg width="24" height="24" viewBox="0 0 24 24" fill="none" xmlns="http://www.w3.org/2000/svg">
<g clip-path="url(#clip0_2681_21752)">
<path d="M12.0013 24.0007C11.9647 24.0007 11.9255 23.9902 11.8915 23.9719L2.10979 18.3296C2.04182 18.2905 2 18.22 2 18.1416V6.85966C2 6.78133 2.04182 6.71084 2.10979 6.67167L11.8915 1.02937C11.9595 0.990209 12.0405 0.990209 12.1085 1.02937L21.8902 6.67167C21.9582 6.71084 22 6.78133 22 6.85966V18.1416C22 18.22 21.9582 18.2905 21.8902 18.3296L12.1085 23.9719C12.0745 23.9902 12.0379 24.0007 11.9987 24.0007H12.0013ZM2.43393 18.0163L11.9987 23.5333L21.5635 18.0163V6.98499L12.0013 1.46802L2.43393 6.98499V18.0163Z" fill="#502314"/>
<path fill-rule="evenodd" clip-rule="evenodd" d="M6.19607 9.05276C6.19607 8.08148 6.98551 7.29297 7.95793 7.29297C8.93036 7.29297 9.7198 8.08148 9.7198 9.05276V9.31908C9.93937 9.38174 10.0962 9.57234 10.0962 9.79689C10.0962 10.0736 9.85573 10.2982 9.56034 10.2982H9.54727C9.26234 10.8909 8.6585 11.3008 7.95793 11.3008C7.25737 11.3008 6.65092 10.8909 6.3686 10.2982H6.35553C6.06014 10.2982 5.82227 10.0736 5.82227 9.79689C5.82227 9.57234 5.98172 9.38174 6.19869 9.31908V9.05276H6.19607Z" fill="#502314"/>
<path d="M9.7163 9.31675H9.60651V9.39769L9.68494 9.42119L9.71369 9.31675H9.7163ZM9.54639 10.2985V10.1888H9.47843L9.44706 10.2515L9.54639 10.2985ZM6.36511 10.2985L6.46183 10.2515L6.43046 10.1888H6.35988L6.36249 10.2985H6.36511ZM6.1952 9.31675L6.22395 9.42119L6.30237 9.39769V9.31675H6.19258H6.1952ZM7.95706 7.18359C6.92451 7.18359 6.08541 8.0191 6.08541 9.05043H6.30237C6.30237 8.13921 7.04214 7.4003 7.95444 7.4003V7.18359H7.95706ZM9.82609 9.05305C9.82609 8.02171 8.9896 7.1862 7.95706 7.1862V7.40291C8.86936 7.40291 9.60913 8.14182 9.60913 9.05305H9.82609ZM9.82609 9.31675V9.05043H9.60913V9.31675H9.82609ZM10.2025 9.79717C10.2025 9.5178 10.0065 9.28803 9.74506 9.21493L9.68494 9.4238C9.86269 9.47602 9.98294 9.62746 9.98294 9.79717H10.1999H10.2025ZM9.55946 10.4055C9.90713 10.4055 10.2025 10.1392 10.2025 9.79717H9.98555C9.98555 10.0087 9.80257 10.1888 9.55946 10.1888V10.4055ZM9.54378 10.4055H9.55946V10.1888H9.54901L9.54378 10.4055ZM7.95706 11.4081C8.70206 11.4081 9.34511 10.9721 9.64572 10.3455L9.44967 10.2515C9.18304 10.8076 8.61579 11.1914 7.95706 11.1914V11.4081ZM6.26839 10.3455C6.569 10.9747 7.21206 11.4081 7.95706 11.4081V11.1914C7.29832 11.1914 6.73107 10.8076 6.46444 10.2515L6.26839 10.3455ZM6.36249 10.1888H6.35204V10.4055H6.36772L6.36249 10.1888ZM6.35204 10.1888C6.10893 10.1888 5.92595 10.006 5.92595 9.79717H5.70898C5.70898 10.1392 6.00437 10.4055 6.35204 10.4055V10.1888ZM5.92595 9.79717C5.92595 9.62485 6.0462 9.47341 6.22395 9.4238L6.16383 9.21493C5.90504 9.29064 5.70898 9.5178 5.70898 9.79717H5.92595ZM6.08541 9.05305V9.31936H6.30237V9.05305H6.08541Z" fill="#502314"/>
<path d="M4.7688 13.4228L4.7505 13.7022L4.61719 16.1069H11.5679V15.8405L11.4346 13.71L11.4294 13.629C11.3457 12.2687 9.97335 11.3706 8.69247 11.8379L8.62451 11.8614C8.1958 12.0181 7.72789 12.0103 7.30442 11.8405C6.14117 11.3758 4.86029 12.1774 4.77142 13.4254L4.7688 13.4228Z" fill="#502314"/>
<path d="M11.5644 16.3217H4.61367C4.55354 16.3217 4.49604 16.2982 4.45683 16.2538C4.415 16.2094 4.39409 16.152 4.3967 16.0919L4.55093 13.4052C4.59798 12.7394 4.94826 12.1546 5.51551 11.8021C6.08014 11.447 6.76241 11.387 7.38193 11.635C7.75574 11.7838 8.16876 11.7917 8.54779 11.6533L8.61837 11.6272C9.29279 11.3817 10.0273 11.4653 10.6286 11.8596C11.2298 12.2538 11.601 12.8909 11.6454 13.6089L11.784 16.1024C11.784 16.2225 11.6873 16.3191 11.567 16.3191L11.5644 16.3217ZM4.8437 15.8883H11.3474V15.8387L11.2089 13.6376C11.1723 13.058 10.8743 12.5436 10.3881 12.2251C9.90187 11.9065 9.30848 11.8387 8.76215 12.0371L8.69157 12.0632C8.2132 12.2381 7.69039 12.2277 7.21725 12.0397C6.72842 11.8439 6.18993 11.8935 5.74293 12.1729C5.29593 12.4522 5.01884 12.9144 4.98225 13.4392L4.96395 13.7186L4.8437 15.8909V15.8883Z" fill="#502314"/>
<path fill-rule="evenodd" clip-rule="evenodd" d="M14.0131 9.05276C14.0131 8.08148 14.8026 7.29297 15.775 7.29297C16.7474 7.29297 17.5369 8.08148 17.5369 9.05276V9.31908C17.7564 9.38174 17.9133 9.57234 17.9133 9.79689C17.9133 10.0736 17.6728 10.2982 17.3774 10.2982H17.3643C17.082 10.8909 16.4756 11.3008 15.775 11.3008C15.0744 11.3008 14.468 10.8909 14.1857 10.2982H14.1726C13.8772 10.2982 13.6367 10.0736 13.6367 9.79689C13.6367 9.57234 13.7962 9.38174 14.0131 9.31908V9.05276Z" fill="#F5EBDC"/>
<path d="M15.7752 11.5135C15.0589 11.5135 14.395 11.1193 14.0473 10.5005C13.6866 10.4404 13.4199 10.1454 13.4199 9.79289C13.4199 9.52918 13.5663 9.2942 13.7963 9.16887V9.04877C13.7963 7.95999 14.6851 7.07227 15.7752 7.07227C16.8652 7.07227 17.754 7.95999 17.754 9.04877V9.16887C17.984 9.2942 18.1304 9.52918 18.1304 9.79289C18.1304 10.148 17.8586 10.4456 17.5004 10.5005C17.1528 11.1193 16.4888 11.5109 15.7726 11.5109L15.7752 11.5135ZM15.7752 7.5083C14.923 7.5083 14.2303 8.2002 14.2303 9.05138V9.47958L14.0734 9.52396C13.9427 9.56313 13.8539 9.67018 13.8539 9.79289C13.8539 9.94955 13.9976 10.0775 14.1702 10.0775H14.3061L14.3793 10.2002C14.6354 10.7328 15.1818 11.0775 15.7726 11.0775C16.3633 11.0775 16.9123 10.7328 17.1658 10.2002L17.226 10.0775H17.3619C17.5501 10.0775 17.6939 9.94955 17.6939 9.79289C17.6939 9.67018 17.605 9.56052 17.4743 9.52396L17.3175 9.47958V9.05138C17.3175 8.2002 16.6247 7.5083 15.7726 7.5083H15.7752Z" fill="#502314"/>
<path d="M12.4362 16.3209C12.4362 16.3209 12.4283 16.3209 12.4231 16.3209C12.3029 16.3131 12.2114 16.2113 12.2192 16.0912L12.3734 13.4045C12.4205 12.7387 12.7734 12.1538 13.338 11.8013C13.9027 11.4489 14.5823 11.3862 15.2044 11.6342C15.5783 11.7831 15.9913 11.7909 16.3703 11.6525L16.4409 11.6264C17.1153 11.381 17.8499 11.4645 18.4511 11.8588C19.0523 12.253 19.4235 12.8901 19.4679 13.6081L19.6065 15.9554C19.6143 16.0755 19.5228 16.1773 19.4026 16.1852C19.2876 16.193 19.1804 16.1016 19.1726 15.9815L19.034 13.6342C18.9974 13.0546 18.6994 12.5402 18.2132 12.2217C17.727 11.9032 17.1336 11.8353 16.5873 12.0337L16.5167 12.0598C16.0409 12.2348 15.5155 12.2243 15.0424 12.0363C14.5536 11.8405 14.0151 11.8901 13.5681 12.1695C13.1211 12.4489 12.844 12.911 12.8074 13.4358L12.7891 13.7152L12.6558 16.1147C12.6505 16.2295 12.5538 16.3183 12.4388 16.3183L12.4362 16.3209Z" fill="#502314"/>
<path d="M16.7649 14.5923C16.7649 14.6941 16.7466 14.7881 16.7074 14.8769C16.6682 14.9657 16.6159 15.0414 16.5505 15.1093C16.4852 15.1745 16.4068 15.2268 16.3205 15.2659C16.2316 15.3051 16.1375 15.3234 16.0356 15.3234H15.0605V14.8377H16.0356C16.0696 14.8377 16.1009 14.8325 16.1297 14.8195C16.1584 14.8064 16.1846 14.7907 16.2055 14.7698C16.229 14.7463 16.2447 14.7202 16.2578 14.6915C16.2708 14.6628 16.2761 14.6315 16.2761 14.5975C16.2761 14.5636 16.2708 14.5322 16.2578 14.5035C16.2447 14.4748 16.229 14.4487 16.2055 14.4278C16.1846 14.4043 16.1584 14.3886 16.1297 14.3756C16.1009 14.3625 16.0696 14.3573 16.0356 14.3573H15.3716V13.8717H16.0356C16.0696 13.8717 16.1009 13.8664 16.1297 13.8534C16.1584 13.8403 16.1846 13.8247 16.2055 13.8012C16.229 13.7777 16.2447 13.7516 16.2578 13.7228C16.2708 13.6915 16.2761 13.6602 16.2761 13.6262C16.2761 13.5923 16.2708 13.561 16.2578 13.5322C16.2447 13.5035 16.229 13.4774 16.2055 13.4565C16.1846 13.433 16.1584 13.4174 16.1297 13.4043C16.1009 13.3913 16.0696 13.386 16.0356 13.386H15.0605V12.9004H16.0356C16.1375 12.9004 16.2316 12.9187 16.3205 12.9578C16.4094 12.997 16.4852 13.0492 16.5505 13.1171C16.6159 13.1824 16.6708 13.2607 16.7074 13.3469C16.7466 13.4356 16.7649 13.5296 16.7649 13.6288C16.7649 13.7176 16.7492 13.8038 16.7152 13.8899C16.6813 13.9735 16.6368 14.0492 16.5767 14.1145C16.6368 14.1824 16.6839 14.2581 16.7152 14.3416C16.7466 14.4252 16.7649 14.5114 16.7649 14.6001V14.5923Z" fill="#502314"/>
<path d="M4.61345 17.2738C4.4932 17.2738 4.39648 17.3704 4.39648 17.4905C4.39648 17.6106 4.4932 17.7072 4.61345 17.7072V17.2738ZM15.1951 17.6445C15.2787 17.5584 15.2787 17.4226 15.1951 17.3364L13.8122 15.9552C13.726 15.8717 13.5901 15.8717 13.5038 15.9552C13.4201 16.0414 13.4201 16.1772 13.5038 16.2633L14.7324 17.4905L13.5038 18.7176C13.4201 18.8038 13.4201 18.9396 13.5038 19.0257C13.5901 19.1093 13.726 19.1093 13.8122 19.0257L15.1951 17.6445ZM15.0408 17.2738H4.61345V17.7072H15.0408V17.2738Z" fill="#502314"/>
</g>
<defs>
<clipPath id="clip0_2681_21752">
<rect width="20" height="23" fill="white" transform="translate(2 1)"/>
</clipPath>
</defs>
</svg>
