<svg width="24" height="24" viewBox="0 0 24 24" fill="none" xmlns="http://www.w3.org/2000/svg">
<g clip-path="url(#clip0_2681_21807)">
<path d="M12 24.0007C11.9634 24.0007 11.9242 23.9902 11.8902 23.9719L2.10978 18.3296C2.04182 18.2905 2 18.22 2 18.1416V6.85966C2 6.78133 2.04182 6.71084 2.10978 6.67167L11.8928 1.02937C11.9608 0.990209 12.0418 0.990209 12.1098 1.02937L21.8928 6.67167C21.9608 6.71084 22.0026 6.78133 22.0026 6.85966V18.1416C22.0026 18.22 21.9608 18.2905 21.8928 18.3296L12.1098 23.9719C12.0758 23.9902 12.0392 24.0007 12 24.0007ZM2.43387 18.0163L12 23.5333L21.5661 18.0163V6.98499L12 1.46802L2.43387 6.98499V18.0163Z" fill="#502314"/>
<path d="M8.60156 9.99805H15.4181L14.911 16.5725C14.877 17.0242 14.4981 17.374 14.0459 17.374H9.97637C9.51897 17.374 9.1426 17.0242 9.10862 16.5725L8.60418 9.99805H8.60156Z" fill="#502314"/>
<path d="M14.0456 17.4827H9.97611C9.46644 17.4827 9.03779 17.0858 8.99858 16.5819L8.49414 10.0075C8.49414 9.97613 8.50198 9.94741 8.52289 9.92652C8.5438 9.90302 8.57255 9.89258 8.60392 9.89258H15.4204C15.4518 9.89258 15.4805 9.90563 15.5015 9.92652C15.5224 9.95002 15.5328 9.97874 15.5302 10.0075L15.0232 16.5819C14.9839 17.0884 14.5579 17.4827 14.0509 17.4827H14.0456ZM8.71892 10.1041L9.21291 16.5636C9.24427 16.9579 9.57621 17.2659 9.97349 17.2659H14.043C14.4377 17.2659 14.7696 16.9579 14.7984 16.5636L15.2976 10.1041H8.7163H8.71892Z" fill="#502314"/>
<path d="M15.9095 9.61089C15.7893 9.61089 15.6926 9.51429 15.6926 9.39418V9.17747C15.6926 9.05737 15.5959 8.96076 15.4756 8.96076H8.52581C8.40558 8.96076 8.30887 9.05737 8.30887 9.17747V9.39418C8.30887 9.51429 8.21217 9.61089 8.09194 9.61089C7.97171 9.61089 7.875 9.51429 7.875 9.39418V9.17747C7.875 8.81977 8.16773 8.52734 8.52581 8.52734H15.4756C15.8337 8.52734 16.1264 8.81977 16.1264 9.17747V9.39418C16.1264 9.51429 16.0297 9.61089 15.9095 9.61089Z" fill="#502314"/>
<path d="M13.5046 8.91708L13.3792 8.43405C13.3034 8.14684 13.0446 7.94319 12.7467 7.94319H11.2699C10.972 7.94319 10.7132 8.14423 10.6426 8.43144L10.5146 8.91708L10.0938 8.80742L10.2192 8.32439C10.3368 7.84658 10.7707 7.50977 11.2673 7.50977H12.744C13.238 7.50977 13.6719 7.84397 13.7974 8.32439L13.9228 8.80742L13.502 8.91708H13.5046Z" fill="#502314"/>
<path d="M11.9337 14.8199C11.8135 14.8199 11.7168 14.7233 11.7168 14.6032V12.2011C11.7168 12.081 11.8135 11.9844 11.9337 11.9844C12.054 11.9844 12.1507 12.081 12.1507 12.2011V14.6032C12.1507 14.7233 12.054 14.8199 11.9337 14.8199Z" fill="#F5EBDC"/>
<path d="M10.3712 15.3873C10.251 15.3873 10.1543 15.2907 10.1543 15.1706V11.6327C10.1543 11.5126 10.251 11.416 10.3712 11.416C10.4915 11.416 10.5882 11.5126 10.5882 11.6327V15.1706C10.5882 15.2907 10.4915 15.3873 10.3712 15.3873Z" fill="#F5EBDC"/>
<path d="M13.4982 15.3873C13.378 15.3873 13.2812 15.2907 13.2812 15.1706V11.6327C13.2812 11.5126 13.378 11.416 13.4982 11.416C13.6184 11.416 13.7151 11.5126 13.7151 11.6327V15.1706C13.7151 15.2907 13.6184 15.3873 13.4982 15.3873Z" fill="#F5EBDC"/>
</g>
<defs>
<clipPath id="clip0_2681_21807">
<rect width="20" height="23" fill="white" transform="translate(2 1)"/>
</clipPath>
</defs>
</svg>
