<svg width="24" height="24" viewBox="0 0 24 24" fill="none" xmlns="http://www.w3.org/2000/svg">
<g clip-path="url(#clip0_2681_21784)">
<path d="M12 24.0007C11.9634 24.0007 11.9242 23.9902 11.8902 23.9719L2.10978 18.3296C2.04182 18.2905 2 18.22 2 18.1416V6.85966C2 6.78133 2.04182 6.71084 2.10978 6.67167L11.8928 1.02937C11.9608 0.990209 12.0418 0.990209 12.1098 1.02937L21.8928 6.67167C21.9608 6.71084 22.0026 6.78133 22.0026 6.85966V18.1416C22.0026 18.22 21.9608 18.2905 21.8928 18.3296L12.1098 23.9719C12.0758 23.9902 12.0392 24.0007 12 24.0007ZM2.43387 18.0163L12 23.5333L21.5661 18.0163V6.98499L12 1.46802L2.43387 6.98499V18.0163Z" fill="#502314"/>
<path d="M18.2023 20.0759C18.082 20.0759 17.9853 19.9793 17.9853 19.8592C17.9853 17.5641 16.6419 15.4414 14.564 14.4545L14.4516 14.4049C13.6754 14.0576 12.8494 13.88 11.9974 13.8774C8.69626 13.8774 6.012 16.5589 6.012 19.8566C6.012 19.9767 5.91529 20.0733 5.79506 20.0733C5.67483 20.0733 5.57812 19.9767 5.57812 19.8566C5.57812 16.3187 8.45842 13.4414 12 13.4414C12.9122 13.4414 13.7982 13.632 14.6294 14.0054L14.7444 14.0576C16.9791 15.1176 18.4192 17.3944 18.4192 19.8566C18.4192 19.9767 18.3225 20.0733 18.2023 20.0733V20.0759Z" fill="#502314"/>
<path d="M14.1717 20.5275C14.156 20.5275 14.1403 20.5275 14.122 20.5222C14.0645 20.5092 14.0123 20.4726 13.9835 20.4204L12.4623 17.8173C12.444 17.7833 12.4336 17.7468 12.4336 17.7076V16.4047C12.4336 16.3342 12.4676 16.269 12.5251 16.2272L13.9548 15.2063V14.4491C13.9548 14.329 14.0515 14.2324 14.1717 14.2324C14.2919 14.2324 14.3886 14.329 14.3886 14.4491V15.316C14.3886 15.3865 14.3547 15.4517 14.2972 15.4935L12.8675 16.5144V17.645L14.2423 20L15.2564 19.3238V17.269C15.2564 17.2115 15.2799 17.1567 15.3191 17.1149L16.6233 15.8121C16.707 15.7285 16.8455 15.7285 16.9318 15.8121C17.018 15.8956 17.0154 16.034 16.9318 16.1202L15.6929 17.3577V19.4387C15.6929 19.5118 15.6563 19.5797 15.5962 19.6188L14.2919 20.4857C14.2553 20.5092 14.2135 20.5222 14.1717 20.5222V20.5275Z" fill="#502314"/>
<path d="M14.3883 22.48C14.3883 22.48 14.3674 22.48 14.3543 22.48L11.5315 22.0466C11.4557 22.0361 11.3904 21.9839 11.3643 21.9134L10.9304 20.8272C10.9095 20.775 10.9095 20.7176 10.9304 20.6654L11.3146 19.7019L10.1933 18.3938L8.3768 18.9996C8.35589 19.0074 8.33236 19.01 8.30884 19.01H6.13686C6.01663 19.01 5.91992 18.9134 5.91992 18.7933C5.91992 18.6732 6.01663 18.5766 6.13686 18.5766H8.27486L10.1959 17.9369C10.2796 17.9082 10.3737 17.9369 10.4285 18.0022L11.7328 19.5218C11.7851 19.5818 11.7981 19.668 11.7694 19.7437L11.3669 20.7489L11.7223 21.6393L14.4223 22.0544C14.5399 22.0727 14.6209 22.1823 14.6026 22.3024C14.5869 22.4095 14.4928 22.4852 14.3883 22.4852V22.48Z" fill="#502314"/>
<path d="M4.3969 19.0071C4.75634 19.0071 5.04771 18.619 5.04771 18.1403C5.04771 17.6615 4.75634 17.2734 4.3969 17.2734C4.03747 17.2734 3.74609 17.6615 3.74609 18.1403C3.74609 18.619 4.03747 19.0071 4.3969 19.0071Z" fill="#F5EBDC"/>
<path d="M19.6039 19.0071C19.9634 19.0071 20.2547 18.619 20.2547 18.1403C20.2547 17.6615 19.9634 17.2734 19.6039 17.2734C19.2445 17.2734 18.9531 17.6615 18.9531 18.1403C18.9531 18.619 19.2445 19.0071 19.6039 19.0071Z" fill="#F5EBDC"/>
<path fill-rule="evenodd" clip-rule="evenodd" d="M10.3145 6.83845C10.3145 5.89067 11.0829 5.12305 12.0317 5.12305C12.9804 5.12305 13.7489 5.89067 13.7489 6.83845V7.09694C13.9606 7.15699 14.1174 7.34498 14.1174 7.5643C14.1174 7.83323 13.8822 8.05255 13.5973 8.05255H13.5842C13.3072 8.62957 12.7165 9.02905 12.0343 9.02905C11.3521 9.02905 10.7614 8.62957 10.4844 8.05255H10.4713C10.1838 8.05255 9.95117 7.83323 9.95117 7.5643C9.95117 7.34498 10.108 7.1596 10.3197 7.09694V6.83845H10.3145Z" fill="#502314"/>
<path d="M8.89444 11.2535L8.87615 11.5329L8.74023 12.6347H15.6901L15.5541 11.5381L15.5489 11.4572C15.4653 10.0969 14.0931 9.19869 12.8124 9.66605L12.7418 9.68955C12.3158 9.84621 11.8427 9.83838 11.4219 9.66866C10.2588 9.20391 8.98069 10.0055 8.88921 11.2535H8.89444Z" fill="#502314"/>
<path d="M15.6933 12.8509H8.74344C8.68071 12.8509 8.62321 12.8248 8.58139 12.7778C8.53957 12.7308 8.52128 12.6681 8.52912 12.6081L8.68071 11.24C8.73037 10.5715 9.08322 9.98669 9.64778 9.63421C10.2123 9.28173 10.8919 9.22167 11.5113 9.4671C11.8851 9.61593 12.3007 9.62376 12.6771 9.48538L12.7476 9.45927C13.422 9.21384 14.1538 9.29739 14.7576 9.69165C15.3587 10.0859 15.7298 10.723 15.7743 11.441L15.7795 11.5245L15.9128 12.6055C15.9206 12.6681 15.9024 12.7282 15.8605 12.7752C15.8187 12.8222 15.7612 12.8483 15.6985 12.8483L15.6933 12.8509ZM8.98651 12.4175H15.445L15.3352 11.4671C15.3012 10.8901 15.0006 10.3731 14.5145 10.0546C14.0283 9.73603 13.435 9.66815 12.8914 9.86658L12.8208 9.89269C12.3451 10.0676 11.8198 10.0598 11.3467 9.86919C10.8579 9.67337 10.3221 9.72298 9.87517 9.99974C9.42823 10.2791 9.14856 10.7413 9.11197 11.2661L9.09368 11.5428L8.98651 12.4149V12.4175Z" fill="#502314"/>
<path d="M8.52344 11.9689C11.2155 10.9245 12.7942 10.961 15.6902 11.9689V12.7182H8.52344V11.9689Z" fill="#F5EBDC"/>
<path d="M8.52358 11.9681L8.44517 11.7671C8.36153 11.7984 8.30664 11.8794 8.30664 11.9681H8.52358ZM15.6929 11.9681H15.9099C15.9099 11.8768 15.8524 11.7932 15.7609 11.7645L15.6903 11.9681H15.6929ZM15.6929 12.7175V12.9342H15.9099V12.7175H15.6929ZM8.52358 12.7175H8.30664V12.9342H8.52358V12.7175ZM8.60199 12.1692C9.93497 11.6522 10.9726 11.4094 12.0285 11.4146C13.0897 11.4198 14.1796 11.6705 15.6224 12.1718L15.7609 11.7619C14.3051 11.2554 13.1629 10.9838 12.0338 10.9786C10.9047 10.9734 9.80429 11.2371 8.44517 11.7619L8.60199 12.1666V12.1692ZM15.6929 11.7514H12.1096V12.1849H15.6929V11.7514ZM12.1096 11.7514H8.52619V12.1849H12.1096V11.7514ZM15.476 11.9681V12.7175H15.9099V11.9681H15.476ZM15.6929 12.4982H8.52619V12.9316H15.6929V12.4982ZM8.74313 12.7175V11.9681H8.30925V12.7175H8.74313Z" fill="#F5EBDC"/>
<path d="M19.141 16.4369C19.1279 16.4369 19.1149 16.4369 19.1018 16.4343L17.8211 16.1993C17.7035 16.1784 17.625 16.0635 17.646 15.946C17.6669 15.8285 17.7819 15.7476 17.8995 15.7711L18.9685 15.9669L19.1645 14.899C19.1854 14.7815 19.3004 14.7032 19.418 14.7241C19.5357 14.745 19.6141 14.8598 19.5932 14.9773L19.3579 16.2593C19.3475 16.3168 19.3161 16.3664 19.2664 16.3977C19.2299 16.4238 19.1854 16.4369 19.1436 16.4369H19.141Z" fill="#502314"/>
<path d="M12.1906 12.3604C12.3134 12.363 12.4127 12.269 12.4154 12.1515C12.418 12.0341 12.3239 11.9322 12.2063 11.927L12.188 12.3604H12.1906ZM15.293 12.8591L15.3845 12.6607H15.3793L15.293 12.8591ZM12.2089 11.927C12.086 11.9218 11.9867 12.0158 11.9841 12.1359C11.9815 12.256 12.0756 12.3552 12.1932 12.3604L12.2115 11.927H12.2089ZM4.74155 17.3865C4.76246 17.269 4.68927 17.1542 4.57166 17.128C4.45404 17.1046 4.34165 17.1777 4.31551 17.2952L4.74155 17.3839V17.3865ZM5.01076 15.5458C4.95064 15.6476 4.98462 15.7808 5.08394 15.8435C5.18849 15.9061 5.32179 15.8722 5.38452 15.7677L5.01076 15.5458ZM6.49534 14.4126C6.58159 14.3317 6.58682 14.1933 6.50318 14.1046C6.41954 14.0158 6.28624 14.0106 6.19999 14.0941L6.49534 14.4126ZM7.71593 13.0001C7.61138 13.0576 7.57218 13.1907 7.62968 13.2952C7.6898 13.3996 7.82048 13.4388 7.92503 13.3787L7.71593 13.0001ZM9.56382 12.6972C9.6762 12.6633 9.74155 12.5432 9.70757 12.4283C9.67359 12.3134 9.55597 12.2482 9.43836 12.2821L9.56382 12.6972ZM11.2732 11.9479C11.1503 11.9557 11.0615 12.0602 11.0745 12.1803C11.0824 12.3004 11.1869 12.3891 11.3045 12.3813L11.2732 11.9479ZM12.9381 12.4231C13.0609 12.4388 13.1681 12.3552 13.1812 12.2351C13.1995 12.115 13.1158 12.0079 12.9956 11.9923L12.9381 12.4231ZM14.5377 12.3369C14.4201 12.3004 14.2998 12.363 14.2632 12.4753C14.224 12.5902 14.2894 12.7129 14.4018 12.7495L14.5377 12.3369ZM15.131 13.0262C15.2408 13.0732 15.3662 13.021 15.4133 12.9113C15.4603 12.8017 15.408 12.6737 15.3009 12.6267L15.131 13.0262ZM15.3532 12.6476C15.2434 12.6006 15.1153 12.6502 15.0656 12.7625C15.0212 12.8722 15.0709 13.0001 15.1833 13.0471L15.3532 12.6476ZM16.0353 13.4936C16.1346 13.5562 16.2706 13.5223 16.3307 13.4179C16.396 13.316 16.362 13.1829 16.2575 13.1202L16.0353 13.4936ZM17.8205 14.3213C17.7342 14.2377 17.5983 14.2377 17.5121 14.3239C17.4284 14.41 17.4284 14.5458 17.5173 14.632L17.8205 14.3213ZM18.6542 16.0993C18.7144 16.2038 18.8503 16.2403 18.9548 16.1803C19.0594 16.1202 19.0933 15.9897 19.0332 15.8852L18.6542 16.0993ZM19.7102 17.7573C19.6893 17.6398 19.5795 17.5589 19.4593 17.5797C19.3417 17.598 19.2632 17.7103 19.2815 17.8304L19.7128 17.7599L19.7102 17.7573ZM4.63177 18.2534C4.64484 17.9583 4.67882 17.6711 4.74155 17.3891L4.31551 17.3004C4.25017 17.6059 4.21097 17.9192 4.20312 18.2403L4.63438 18.2534H4.63177ZM5.38452 15.7703C5.67986 15.2769 6.05362 14.82 6.49534 14.4126L6.19999 14.0941C5.72952 14.5275 5.32701 15.0158 5.01076 15.5458L5.38452 15.7677V15.7703ZM7.92503 13.3787C8.43209 13.0967 8.98619 12.867 9.56382 12.6972L9.43836 12.2821C8.82937 12.4623 8.25174 12.7051 7.71855 13.0001L7.92764 13.3787H7.92503ZM11.3045 12.3787C11.5999 12.3578 11.8952 12.35 12.1906 12.3604L12.2089 11.927C11.8926 11.9166 11.5842 11.9218 11.2758 11.9453L11.3072 12.3787H11.3045ZM12.1906 12.3604C12.4415 12.3683 12.6898 12.3891 12.9381 12.4205L12.9956 11.9897C12.7342 11.9557 12.4755 11.9348 12.2089 11.9244L12.1906 12.3578V12.3604ZM14.4018 12.7495C14.6396 12.8252 14.8696 12.9139 15.1022 13.0132L15.2747 12.6137C15.0317 12.5092 14.7834 12.4179 14.5351 12.3369L14.3992 12.7495H14.4018ZM15.1022 13.0132L15.1336 13.0236L15.3035 12.6241L15.2774 12.6137L15.1048 13.0132H15.1022ZM15.1833 13.0471L15.2094 13.0576L15.3793 12.6581L15.3532 12.6476L15.1833 13.0471ZM15.2068 13.0576C15.4891 13.1881 15.7661 13.3317 16.0353 13.4936L16.2575 13.1202C15.9752 12.9505 15.6851 12.7991 15.3845 12.6607L15.2068 13.0549V13.0576ZM17.5173 14.632C17.9695 15.0758 18.3563 15.5693 18.6542 16.0993L19.0332 15.8852C18.7118 15.3186 18.2988 14.7938 17.8205 14.3239L17.5173 14.6346V14.632ZM19.2815 17.8278C19.3338 18.128 19.3547 18.4335 19.3417 18.7442L19.7755 18.7573C19.7886 18.4179 19.7625 18.0837 19.7102 17.7573L19.2789 17.8278H19.2815Z" fill="#502314"/>
<path d="M4.3969 18.5735C4.75634 18.5735 5.04771 18.1854 5.04771 17.7067C5.04771 17.2279 4.75634 16.8398 4.3969 16.8398C4.03747 16.8398 3.74609 17.2279 3.74609 17.7067C3.74609 18.1854 4.03747 18.5735 4.3969 18.5735Z" fill="#F5EBDC"/>
<path d="M19.6039 19.0071C19.9634 19.0071 20.2547 18.619 20.2547 18.1403C20.2547 17.6615 19.9634 17.2734 19.6039 17.2734C19.2445 17.2734 18.9531 17.6615 18.9531 18.1403C18.9531 18.619 19.2445 19.0071 19.6039 19.0071Z" fill="#F5EBDC"/>
<path d="M4.92815 16.6342C5.28759 16.6342 5.57896 16.3432 5.57896 15.9841C5.57896 15.6251 5.28759 15.334 4.92815 15.334C4.56872 15.334 4.27734 15.6251 4.27734 15.9841C4.27734 16.3432 4.56872 16.6342 4.92815 16.6342Z" fill="#F5EBDC"/>
<path d="M4.92928 16.8537C4.92928 16.8537 4.91099 16.8537 4.90315 16.8537C4.42484 16.8406 4.04585 16.4385 4.05892 15.9607C4.0746 15.4829 4.47711 15.107 4.95281 15.1174C5.18542 15.1252 5.39975 15.2218 5.55918 15.3889C5.71862 15.5587 5.80226 15.778 5.79703 16.0104C5.78919 16.2427 5.6951 16.4568 5.52521 16.6161C5.36316 16.7701 5.15145 16.8537 4.92928 16.8537ZM4.92667 15.5508C4.69405 15.5508 4.50064 15.7362 4.4928 15.9712C4.48495 16.2114 4.67575 16.4098 4.9136 16.4177C5.0286 16.4229 5.13838 16.3785 5.22463 16.3002C5.30827 16.2218 5.35793 16.1122 5.36054 15.9973C5.36316 15.8824 5.32134 15.7701 5.24293 15.6866C5.1619 15.603 5.05474 15.5534 4.93974 15.5508C4.93451 15.5508 4.9319 15.5508 4.92667 15.5508Z" fill="#502314"/>
</g>
<defs>
<clipPath id="clip0_2681_21784">
<rect width="20" height="23" fill="white" transform="translate(2 1)"/>
</clipPath>
</defs>
</svg>
