<svg width="24" height="24" viewBox="0 0 24 24" fill="none" xmlns="http://www.w3.org/2000/svg">
<g clip-path="url(#clip0_2681_21866)">
<path d="M21.7875 22H2.21249C2.09473 22 2 21.9053 2 21.7875V2.21249C2 2.09473 2.09473 2 2.21249 2H21.7849C21.9027 2 21.9974 2.09473 21.9974 2.21249V21.7849C21.9974 21.9027 21.9027 21.9974 21.7849 21.9974L21.7875 22ZM2.42499 21.5725H21.5725V2.42499H2.42499V21.5725Z" fill="#502314"/>
<path d="M5.61719 7.98375L11.9997 4.76562L18.3822 7.98375V12.889C17.9316 15.3263 16.4339 17.4512 14.2833 18.6878L11.9997 20.0037L9.36783 18.5777C7.24545 17.4256 5.83736 15.293 5.61719 12.889V7.98375Z" fill="#502314"/>
<path d="M11.9999 20.2164C11.964 20.2164 11.9308 20.2087 11.8975 20.1908L9.26563 18.7648C7.07669 17.5743 5.63276 15.3854 5.40234 12.9072V7.9814C5.40234 7.90204 5.44587 7.82779 5.51755 7.79195L11.9 4.57382C11.9615 4.5431 12.0306 4.5431 12.0921 4.57382L18.4745 7.79195C18.5462 7.82779 18.5923 7.90204 18.5923 7.9814V12.8867C18.1264 15.4315 16.5954 17.5999 14.386 18.8698L12.1023 20.1857C12.069 20.2036 12.0332 20.2139 11.9973 20.2139L11.9999 20.2164ZM5.82989 8.11453V12.8892C6.04494 15.2062 7.40439 17.2697 9.47044 18.391L11.9973 19.7607L14.1786 18.5037C16.2779 17.2953 17.7347 15.2343 18.175 12.8508V8.11453L12.0024 5.00393L5.83245 8.11453H5.82989Z" fill="#502314"/>
<path fill-rule="evenodd" clip-rule="evenodd" d="M9.89859 9.42221C9.89859 8.25989 10.8407 7.32031 12.0005 7.32031C13.1602 7.32031 14.1024 8.25989 14.1024 9.42221V9.74223C14.3635 9.81391 14.553 10.0443 14.553 10.3131C14.553 10.646 14.2662 10.9122 13.9155 10.9122H13.9001C13.5622 11.6188 12.8377 12.1078 12.003 12.1078C11.1684 12.1078 10.4439 11.6188 10.106 10.9122H10.0906C9.7373 10.9122 9.45312 10.6434 9.45312 10.3131C9.45312 10.0443 9.64258 9.81647 9.90371 9.74223V9.42221H9.89859Z" fill="#F5EBDC"/>
<path d="M14.1017 9.73977H13.9942V9.81658L14.071 9.84218L14.0992 9.73977H14.1017ZM13.8969 10.9098V10.8022L13.8304 10.7971L13.7996 10.8611L13.8969 10.9072V10.9098ZM10.1002 10.9098L10.1975 10.8637L10.1668 10.7997L10.0977 10.8048V10.9123L10.1002 10.9098ZM9.89796 9.73977L9.92612 9.84218L10.0029 9.81658V9.73977H9.8954H9.89796ZM11.9999 7.21289C10.7787 7.21289 9.79043 8.20111 9.79043 9.42231H10.0029C10.0029 8.32144 10.8964 7.42794 11.9999 7.42794V7.21545V7.21289ZM14.2093 9.42231C14.2093 8.20111 13.2211 7.21289 11.9999 7.21289V7.42538C13.1033 7.42538 13.9968 8.31888 13.9968 9.41975H14.2093V9.42231ZM14.2093 9.73977V9.41975H13.9968V9.73977H14.2093ZM14.6599 10.3107C14.6599 9.98811 14.4346 9.72441 14.1325 9.63737L14.0736 9.84218C14.2938 9.90618 14.4474 10.0931 14.4474 10.3107H14.6599ZM13.9149 11.0173C14.3194 11.0173 14.6599 10.7075 14.6599 10.3107H14.4474C14.4474 10.5744 14.217 10.8048 13.9149 10.8048V11.0173ZM13.8944 11.0173H13.9149V10.8048H13.9021L13.8969 11.0173H13.8944ZM11.9999 12.2129C12.8806 12.2129 13.6384 11.6983 13.9942 10.9533L13.8022 10.8637C13.4822 11.537 12.7935 12.0004 11.9999 12.0004V12.2129ZM10.0055 10.9533C10.3613 11.6983 11.1192 12.2129 11.9999 12.2129V12.0004C11.2062 12.0004 10.5201 11.537 10.1975 10.8637L10.0055 10.9533ZM10.0977 10.8048H10.0849V11.0173H10.1028L10.0977 10.8048ZM10.0849 10.8048C9.78531 10.8048 9.55234 10.5744 9.55234 10.3107H9.33984C9.33984 10.7075 9.68035 11.0173 10.0849 11.0173V10.8048ZM9.55234 10.3107C9.55234 10.0931 9.70595 9.90618 9.92612 9.84218L9.86724 9.63737C9.56514 9.72185 9.33984 9.98555 9.33984 10.3107H9.55234ZM9.79043 9.42231V9.74233H10.0029V9.42231H9.79043Z" fill="#502314"/>
<path d="M17.3173 15.8176C17.2149 15.8176 17.1227 15.7433 17.1074 15.6384L17.0997 15.5923C16.964 14.6911 16.4392 13.8975 15.666 13.4136C14.8928 12.9323 13.9532 12.8145 13.0853 13.0859C12.3813 13.3061 11.6081 13.2984 10.9066 13.0628C10.0131 12.7659 9.04541 12.8862 8.25175 13.3931C7.46578 13.8949 6.95119 14.709 6.84366 15.6307C6.83086 15.7459 6.72334 15.8278 6.60813 15.8176C6.49036 15.8048 6.40844 15.6973 6.42124 15.582C6.54413 14.5324 7.12784 13.6056 8.0239 13.0347C8.92764 12.4586 10.0285 12.323 11.0423 12.6609C11.6619 12.8683 12.3429 12.876 12.9599 12.6814C13.9456 12.3716 15.0131 12.5073 15.8913 13.0552C16.7694 13.603 17.3634 14.5042 17.5195 15.5308L17.5272 15.5769C17.5451 15.6921 17.4658 15.8022 17.3506 15.8201C17.3403 15.8201 17.3275 15.8201 17.3173 15.8201V15.8176Z" fill="#F5EBDC"/>
<path d="M7.32068 13.8746L6.4707 15.5771L6.89569 16.2146L8.17321 17.7046L10.7257 19.1946L12.0032 19.8321L12.8532 19.4071L15.8307 17.4921L17.3207 16.0021L17.1082 15.1521L16.2582 13.6621L14.9807 12.8121H13.7032L11.7882 13.0246L10.0857 12.5996L8.38315 13.0246L7.31812 13.8746H7.32068Z" fill="#F5EBDC"/>
<path d="M10.6148 16.865C10.5047 16.9597 10.3793 17.0314 10.2436 17.0826C10.1053 17.1338 9.96452 17.1594 9.81603 17.1594C9.70338 17.1594 9.5933 17.1466 9.48833 17.1159C9.38336 17.0852 9.28608 17.0442 9.19391 16.993C9.1043 16.9367 9.01982 16.8727 8.94557 16.7984C8.87133 16.7216 8.80477 16.6423 8.751 16.5475C8.69724 16.4579 8.65628 16.3606 8.62555 16.2531C8.59739 16.1456 8.58203 16.0406 8.58203 15.9254C8.58203 15.8102 8.59739 15.7052 8.62555 15.5977C8.65628 15.4953 8.69724 15.398 8.751 15.3033C8.80477 15.2137 8.87133 15.1292 8.94557 15.0524C9.01982 14.9756 9.1043 14.9116 9.19391 14.8604C9.28608 14.8041 9.38336 14.7631 9.48833 14.7375C9.5933 14.7068 9.70338 14.6914 9.81603 14.6914C9.96452 14.6914 10.1053 14.717 10.2436 14.7682C10.3818 14.8194 10.5047 14.8911 10.6148 14.9884L10.3613 15.4006C10.2922 15.3289 10.2103 15.2674 10.113 15.2316C10.0183 15.1881 9.91844 15.1676 9.81347 15.1676C9.7085 15.1676 9.60866 15.1881 9.51649 15.2265C9.42433 15.27 9.34496 15.3212 9.27584 15.3878C9.20671 15.4569 9.15295 15.5363 9.11455 15.631C9.07358 15.7257 9.05566 15.823 9.05566 15.9254C9.05566 16.0278 9.07614 16.1302 9.11455 16.2198C9.15295 16.3146 9.20927 16.3939 9.27584 16.463C9.34496 16.5322 9.42433 16.5859 9.51649 16.6243C9.60866 16.6627 9.70594 16.6832 9.81347 16.6832C9.921 16.6832 10.0183 16.6627 10.113 16.6243C10.2077 16.5808 10.2897 16.527 10.3613 16.4502L10.6148 16.8675V16.865ZM11.37 15.2009V16.1533H11.8462C11.9102 16.1533 11.9742 16.1405 12.0306 16.12C12.0895 16.0944 12.1381 16.0611 12.1816 16.0125C12.2251 15.9689 12.2584 15.9177 12.284 15.864C12.3096 15.8051 12.3224 15.7411 12.3224 15.6771C12.3224 15.6131 12.3096 15.5491 12.284 15.4953C12.261 15.4364 12.2251 15.3852 12.1816 15.3417C12.1381 15.2982 12.0869 15.2649 12.0306 15.2393C11.9742 15.2137 11.9102 15.2009 11.8462 15.2009H11.37ZM11.37 17.1056H10.8939V14.7221H11.8488C11.9358 14.7221 12.0203 14.7349 12.1023 14.7554C12.1842 14.7759 12.2584 14.8117 12.3276 14.8527C12.3992 14.8911 12.4632 14.9423 12.5196 15.0012C12.5784 15.0575 12.6271 15.1241 12.6681 15.1932C12.709 15.2649 12.7423 15.3417 12.7653 15.4236C12.7884 15.5055 12.8012 15.5849 12.8012 15.6745C12.8012 15.8076 12.7756 15.9305 12.7269 16.0457C12.6783 16.1609 12.6092 16.2633 12.5221 16.3478C12.4351 16.4374 12.3352 16.504 12.2175 16.5526C12.1023 16.6038 11.9794 16.6295 11.8488 16.6295H11.3726V17.1056H11.37ZM15.4151 15.9228C15.4151 16.0381 15.3997 16.143 15.3716 16.2505C15.3434 16.3581 15.3025 16.4554 15.2487 16.545C15.1949 16.6397 15.1309 16.7191 15.0567 16.7959C14.9824 16.8727 14.898 16.9367 14.8083 16.9904C14.7162 17.0416 14.6189 17.0852 14.5139 17.1133C14.409 17.144 14.2989 17.1568 14.1862 17.1568C14.0736 17.1568 13.9635 17.144 13.8585 17.1133C13.7536 17.0826 13.6563 17.0416 13.5641 16.9904C13.4719 16.9341 13.39 16.8701 13.3158 16.7959C13.2415 16.7191 13.175 16.6397 13.1212 16.545C13.0674 16.4554 13.0265 16.3581 12.9958 16.2505C12.9676 16.143 12.9522 16.0381 12.9522 15.9228C12.9522 15.8076 12.9676 15.7027 12.9958 15.5951C13.0265 15.4927 13.0674 15.3955 13.1212 15.3007C13.175 15.2111 13.2415 15.1266 13.3158 15.0549C13.39 14.9781 13.4745 14.9141 13.5641 14.8604C13.6563 14.8092 13.7536 14.7657 13.8585 14.7375C13.9635 14.7068 14.0736 14.694 14.1862 14.694C14.2989 14.694 14.409 14.7068 14.5139 14.7375C14.6189 14.7682 14.7162 14.8092 14.8083 14.8604C14.898 14.9167 14.9824 14.9807 15.0567 15.0549C15.1309 15.1266 15.1975 15.2111 15.2487 15.3007C15.3025 15.3955 15.3434 15.4927 15.3716 15.5951C15.4023 15.7027 15.4151 15.8128 15.4151 15.9228ZM14.9415 15.9228C14.9415 15.8204 14.921 15.7232 14.8826 15.6284C14.8442 15.5337 14.7879 15.4543 14.7213 15.3852C14.6547 15.3161 14.5728 15.2649 14.4806 15.2239C14.3885 15.1855 14.2912 15.165 14.1862 15.165C14.0813 15.165 13.9814 15.1855 13.8893 15.2239C13.7971 15.2674 13.7177 15.3186 13.6486 15.3852C13.5795 15.4543 13.5257 15.5337 13.4847 15.6284C13.4463 15.7232 13.4259 15.8204 13.4259 15.9228C13.4259 16.0253 13.4463 16.1277 13.4847 16.2173C13.5257 16.312 13.5795 16.3914 13.6486 16.4605C13.7177 16.5296 13.7971 16.5834 13.8893 16.6218C13.9814 16.6602 14.0787 16.6807 14.1862 16.6807C14.2938 16.6807 14.3885 16.6602 14.4806 16.6218C14.5728 16.5834 14.6547 16.527 14.7213 16.4605C14.7904 16.3914 14.8442 16.312 14.8826 16.2173C14.9236 16.1277 14.9415 16.0304 14.9415 15.9228Z" fill="#502314"/>
<path d="M11.9999 20.2164C11.964 20.2164 11.9308 20.2087 11.8975 20.1908L9.26563 18.7648C7.07669 17.5743 5.63276 15.3854 5.40234 12.9072V7.9814C5.40234 7.90204 5.44587 7.82779 5.51755 7.79195L11.9 4.57382C11.9615 4.5431 12.0306 4.5431 12.0921 4.57382L18.4745 7.79195C18.5462 7.82779 18.5923 7.90204 18.5923 7.9814V12.8867C18.1264 15.4315 16.5954 17.5999 14.386 18.8698L12.1023 20.1857C12.069 20.2036 12.0332 20.2139 11.9973 20.2139L11.9999 20.2164ZM5.82989 8.11453V12.8892C6.04494 15.2062 7.40439 17.2697 9.47044 18.391L11.9973 19.7607L14.1786 18.5037C16.2779 17.2953 17.7347 15.2343 18.175 12.8508V8.11453L12.0024 5.00393L5.83245 8.11453H5.82989Z" fill="#502314"/>
</g>
<defs>
<clipPath id="clip0_2681_21866">
<rect width="20" height="20" fill="white" transform="translate(2 2)"/>
</clipPath>
</defs>
</svg>
