<svg width="24" height="24" viewBox="0 0 24 24" fill="none" xmlns="http://www.w3.org/2000/svg">
<g clip-path="url(#clip0_2681_21708)">
<path d="M11.9993 21.7955C17.4096 21.7955 21.7955 17.4096 21.7955 11.9993C21.7955 6.58902 17.4096 2.20312 11.9993 2.20312C6.58902 2.20312 2.20312 6.58902 2.20312 11.9993C2.20312 17.4096 6.58902 21.7955 11.9993 21.7955Z" fill="#502314"/>
<path d="M12 22C6.48674 22 2 17.5133 2 12C2 6.48674 6.48674 2 12 2C17.5133 2 22 6.48674 22 12C22 17.5133 17.5133 22 12 22ZM12 2.40766C6.71022 2.40766 2.40766 6.71022 2.40766 12C2.40766 17.2898 6.71022 21.5923 12 21.5923C17.2898 21.5923 21.5923 17.2898 21.5923 12C21.5923 6.71022 17.2898 2.40766 12 2.40766Z" fill="#502314"/>
<path d="M5.46928 19.3475C5.46928 19.3475 5.45209 19.3475 5.44226 19.3475C5.3293 19.3327 5.25071 19.2296 5.26545 19.1191L5.46928 17.5474C5.6068 16.7296 6.05621 16.0297 6.74138 15.5729C7.42409 15.1161 8.24187 14.9639 9.04492 15.1456L11.1864 15.6343C11.7487 15.762 12.3406 15.762 12.903 15.6343L15.0764 15.1432C15.8868 14.959 16.7144 15.1088 17.4118 15.5656C18.1068 16.0199 18.5759 16.7198 18.7306 17.5351L18.9369 18.817C18.9541 18.9275 18.8779 19.0331 18.7674 19.0503C18.6544 19.0675 18.5513 18.9914 18.5341 18.8809L18.3303 17.6039C18.1952 16.904 17.79 16.2974 17.1883 15.9045C16.5867 15.5115 15.8696 15.3814 15.1672 15.5385L12.9938 16.0297C12.3725 16.1697 11.7168 16.1697 11.0955 16.0297L8.95405 15.541C8.26152 15.3838 7.55916 15.514 6.96977 15.9094C6.38038 16.3048 5.99236 16.9064 5.87448 17.6063L5.67065 19.1707C5.65837 19.2738 5.56997 19.3475 5.46928 19.3475Z" fill="#F5EBDC"/>
<path fill-rule="evenodd" clip-rule="evenodd" d="M8.67435 9.89812C8.67435 7.94822 10.2534 6.36914 12.2033 6.36914C14.1532 6.36914 15.7323 7.94822 15.7323 9.89812V10.4458C16.1694 10.5735 16.4887 10.9566 16.4887 11.4109C16.4887 11.9684 16.0098 12.4202 15.418 12.4202C15.4106 12.4202 15.4008 12.4202 15.3934 12.4202C14.8261 13.6137 13.613 14.4364 12.2033 14.4364C10.7937 14.4364 9.58054 13.6113 9.01325 12.4202C9.00589 12.4202 8.99606 12.4202 8.9887 12.4202C8.39685 12.4202 7.91797 11.9684 7.91797 11.4109C7.91797 10.9566 8.23722 10.5735 8.67435 10.4458V9.89812Z" fill="#F5EBDC"/>
<path d="M5.87837 16.6929L5.4707 19.3452L6.69615 20.3668L9.3484 21.3884L12.4697 21.7789L14.6529 21.3884L16.5513 20.5535L18.7345 18.9375L18.3268 16.8968L16.8975 15.4675H15.2644L11.3867 15.8752L7.91668 15.2637L6.89506 15.6713L5.87345 16.6929H5.87837Z" fill="#F5EBDC"/>
<path d="M12 22C6.48674 22 2 17.5133 2 12C2 6.48674 6.48674 2 12 2C17.5133 2 22 6.48674 22 12C22 17.5133 17.5133 22 12 22ZM12 2.40766C6.71022 2.40766 2.40766 6.71022 2.40766 12C2.40766 17.2898 6.71022 21.5923 12 21.5923C17.2898 21.5923 21.5923 17.2898 21.5923 12C21.5923 6.71022 17.2898 2.40766 12 2.40766Z" fill="#502314"/>
</g>
<defs>
<clipPath id="clip0_2681_21708">
<rect width="20" height="20" fill="white" transform="translate(2 2)"/>
</clipPath>
</defs>
</svg>
