<svg width="24" height="24" viewBox="0 0 24 24" fill="none" xmlns="http://www.w3.org/2000/svg">
<g clip-path="url(#clip0_2681_21736)">
<path d="M6.35156 8.16016V14.9591C6.35156 15.6771 6.93442 16.262 7.6558 16.262H16.7776V9.24632H11.7253L10.8393 8.40298C10.6798 8.24893 10.4655 8.16277 10.2407 8.16277H6.35156V8.16016Z" fill="#502314"/>
<path d="M16.7777 16.4786H7.65594C6.81694 16.4786 6.13477 15.7971 6.13477 14.959V8.16007C6.13477 8.03997 6.23147 7.94336 6.3517 7.94336H10.2383C10.5205 7.94336 10.7871 8.05041 10.9884 8.24362L11.8117 9.02691H16.7777C16.898 9.02691 16.9947 9.12352 16.9947 9.24362V16.2593C16.9947 16.3794 16.898 16.476 16.7777 16.476V16.4786ZM6.57125 8.37678V14.959C6.57125 15.5569 7.0574 16.0452 7.65855 16.0452H16.5634V9.46294H11.7281C11.6732 9.46294 11.6183 9.44205 11.5791 9.40289L10.6931 8.55955C10.5728 8.44205 10.4134 8.37939 10.2435 8.37939H6.57387L6.57125 8.37678Z" fill="#502314"/>
<path d="M9.61052 9.60575H7.72866C7.60843 9.60575 7.51172 9.50904 7.51172 9.38881C7.51172 9.26858 7.60843 9.17188 7.72866 9.17188H9.61052C9.73075 9.17188 9.82745 9.26858 9.82745 9.38881C9.82745 9.50904 9.73075 9.60575 9.61052 9.60575Z" fill="#F5EBDC"/>
<path d="M12 24.0007C11.9634 24.0007 11.9242 23.9902 11.8902 23.9719L2.10978 18.3296C2.04182 18.2905 2 18.22 2 18.1416V6.85966C2 6.78133 2.04182 6.71084 2.10978 6.67167L11.8928 1.02937C11.9608 0.990209 12.0418 0.990209 12.1098 1.02937L21.8928 6.67167C21.9608 6.71084 22.0026 6.78133 22.0026 6.85966V18.1416C22.0026 18.22 21.9608 18.2905 21.8928 18.3296L12.1098 23.9719C12.0758 23.9902 12.0392 24.0007 12 24.0007ZM2.43387 18.0163L12 23.5333L21.5661 18.0163V6.98499L12 1.46802L2.43387 6.98499V18.0163Z" fill="#502314"/>
<path d="M14.6057 19.007C17.0048 19.007 18.9496 17.0641 18.9496 14.6676C18.9496 12.271 17.0048 10.3281 14.6057 10.3281C12.2066 10.3281 10.2617 12.271 10.2617 14.6676C10.2617 17.0641 12.2066 19.007 14.6057 19.007Z" fill="#F5EBDC"/>
<path d="M11.0102 14.7215C11.0102 14.8416 11.1095 14.9356 11.2324 14.9356C11.35 14.9356 11.4441 14.8364 11.4441 14.7162L11.0102 14.7215ZM11.7368 16.1523C11.6192 16.1209 11.5016 16.1888 11.4729 16.3063L10.9684 18.1941C10.937 18.3089 11.0076 18.429 11.12 18.4604C11.2376 18.4917 11.3552 18.4212 11.384 18.3063L11.8362 16.6301L13.5142 17.0766C13.6318 17.1079 13.7494 17.04 13.7781 16.9225C13.8095 16.8076 13.7442 16.6875 13.6265 16.6562L11.7368 16.1523ZM16.8963 16.8494C15.694 18.1131 13.6893 18.1601 12.4269 16.9565L12.1263 17.2698C13.5638 18.6379 15.8403 18.5831 17.2125 17.1471L16.8963 16.8468V16.8494ZM12.3171 12.4917C13.5194 11.228 15.5241 11.181 16.7865 12.3847L17.0871 12.0713C15.6495 10.7032 13.373 10.758 12.0008 12.1941L12.3171 12.4943V12.4917ZM16.7891 12.382C18.0541 13.5857 18.1012 15.5857 16.8989 16.8494L17.2151 17.1497C18.5847 15.7136 18.5272 13.4369 17.0897 12.0687L16.7891 12.382ZM11.4441 14.7162C11.431 13.9173 11.7212 13.1157 12.3171 12.4917L12.0008 12.1914C11.3265 12.9016 10.9972 13.8129 11.0102 14.7215L11.4441 14.7162ZM12.4269 16.9591C12.2021 16.745 12.0139 16.5074 11.8701 16.2541L11.4911 16.4708C11.661 16.7606 11.8701 17.0322 12.1263 17.2724L12.4269 16.9591Z" fill="#502314"/>
<path d="M14.7835 11.1875H14.3496V12.0552H14.7835V11.1875Z" fill="#502314"/>
<path d="M14.7835 17.3594H14.3496V18.2271H14.7835V17.3594Z" fill="#502314"/>
<path d="M18.0396 14.4434H17.1719V14.8772H18.0396V14.4434Z" fill="#502314"/>
<path d="M14.5664 15.3401C14.5115 15.3401 14.4592 15.3192 14.4174 15.2826L13.0661 14.0189C12.9799 13.938 12.9747 13.7996 13.0557 13.7108C13.1367 13.6247 13.2752 13.6195 13.3641 13.7004L14.5377 14.797L16.1294 12.6769C16.2026 12.5803 16.3385 12.562 16.4326 12.6325C16.5293 12.7056 16.5476 12.8414 16.477 12.9354L14.7389 15.2487C14.7023 15.2983 14.6448 15.3296 14.5847 15.3349C14.5795 15.3349 14.5716 15.3349 14.5664 15.3349V15.3401Z" fill="#502314"/>
</g>
<defs>
<clipPath id="clip0_2681_21736">
<rect width="20" height="23" fill="white" transform="translate(2 1)"/>
</clipPath>
</defs>
</svg>
