<svg width="24" height="24" viewBox="0 0 24 24" fill="none" xmlns="http://www.w3.org/2000/svg">
<g clip-path="url(#clip0_2681_21717)">
<path d="M12.0013 24.0007C11.9647 24.0007 11.9255 23.9902 11.8915 23.9719L2.10979 18.3296C2.04182 18.2905 2 18.22 2 18.1416V6.85966C2 6.78133 2.04182 6.71084 2.10979 6.67167L11.8915 1.02937C11.9595 0.990209 12.0405 0.990209 12.1085 1.02937L21.8902 6.67167C21.9582 6.71084 22 6.78133 22 6.85966V18.1416C22 18.22 21.9582 18.2905 21.8902 18.3296L12.1085 23.9719C12.0745 23.9902 12.0379 24.0007 11.9987 24.0007H12.0013ZM2.43393 18.0163L11.9987 23.5333L21.5635 18.0163V6.98499L12.0013 1.46802L2.43393 6.98499V18.0163Z" fill="#502314"/>
<path d="M11.1936 15.3611L11.1309 16.4368C13.9749 17.9198 13.9985 17.6039 16.3432 16.4368L16.2622 15.3584C16.2596 15.3088 16.2413 15.2592 16.2152 15.2175C15.8414 14.63 15.1199 14.3637 14.4559 14.5725L14.2651 14.6326C13.9148 14.7423 13.541 14.7423 13.1907 14.6326L13.0182 14.5778C12.3516 14.3689 11.6249 14.6274 11.2433 15.2122C11.2145 15.2592 11.1962 15.3114 11.1936 15.3663V15.3611Z" fill="#502314"/>
<path fill-rule="evenodd" clip-rule="evenodd" d="M12.4881 12.446C12.4881 11.7567 13.0475 11.1953 13.7403 11.1953C14.433 11.1953 14.9924 11.7541 14.9924 12.446V12.7462C15.1701 12.7776 15.3061 12.9212 15.3061 13.0909C15.3061 13.2841 15.1309 13.4434 14.914 13.4434C14.9009 13.4434 14.8878 13.4434 14.8774 13.4434C14.6787 13.8716 14.2448 14.1666 13.7429 14.1666C13.241 14.1666 12.8071 13.8689 12.6084 13.4434C12.5953 13.4434 12.5849 13.4434 12.5718 13.4434C12.3548 13.4434 12.1797 13.2867 12.1797 13.0909C12.1797 12.9212 12.313 12.7776 12.4934 12.7462V12.446H12.4881Z" fill="#502314"/>
<path d="M14.9893 12.7461H14.7723V12.9263L14.9501 12.9576L14.9893 12.7435V12.7461ZM14.8743 13.4407L14.8926 13.2239L14.741 13.2109L14.6782 13.3493L14.8743 13.4407ZM12.6027 13.4407L12.7988 13.3493L12.7334 13.2109L12.5818 13.2239L12.6001 13.4407H12.6027ZM12.4877 12.7461L12.5269 12.9602L12.7046 12.9289V12.7488H12.4877V12.7461ZM13.7372 10.9811C12.9268 10.9811 12.2681 11.6365 12.2681 12.4485H12.702C12.702 11.8793 13.1647 11.4145 13.7372 11.4145V10.9811ZM15.2063 12.4459C15.2063 11.6365 14.5502 10.9785 13.7372 10.9785V11.4119C14.3071 11.4119 14.7723 11.8741 14.7723 12.4459H15.2063ZM15.2063 12.7461V12.4459H14.7723V12.7461H15.2063ZM15.52 13.0908C15.52 12.7984 15.2925 12.5816 15.0285 12.532L14.9501 12.9602C15.0442 12.9759 15.086 13.0438 15.086 13.0908H15.52ZM14.9109 13.66C15.2246 13.66 15.52 13.4276 15.52 13.0908H15.086C15.086 13.143 15.0311 13.2266 14.9135 13.2266V13.66H14.9109ZM14.856 13.6574C14.8743 13.6574 14.8926 13.6574 14.9109 13.6574V13.2239C14.9109 13.2239 14.8978 13.2239 14.8926 13.2239L14.856 13.6574ZM13.7372 14.3832C14.328 14.3832 14.8377 14.036 15.0703 13.5347L14.6756 13.3519C14.5109 13.7044 14.1528 13.9498 13.7372 13.9498V14.3832ZM12.4066 13.532C12.6393 14.0333 13.149 14.3806 13.7398 14.3806V13.9472C13.3242 13.9472 12.966 13.7018 12.8014 13.3493L12.4066 13.532ZM12.5844 13.2239C12.5844 13.2239 12.5713 13.2239 12.5661 13.2239V13.6574C12.5844 13.6574 12.6027 13.6574 12.621 13.6574L12.5844 13.2239ZM12.5661 13.2266C12.4485 13.2266 12.3936 13.1456 12.3936 13.0908H11.9596C11.9596 13.425 12.255 13.66 12.5687 13.66V13.2266H12.5661ZM12.391 13.0908C12.391 13.0438 12.4328 12.9759 12.5269 12.9602L12.4485 12.532C12.1845 12.579 11.957 12.7984 11.957 13.0908H12.391ZM12.2707 12.4459V12.7461H12.7046V12.4459H12.2707Z" fill="#502314"/>
<path d="M12.7992 12.6338C12.7391 12.6338 12.6921 12.5868 12.6895 12.5268C12.6895 12.4667 12.7365 12.4171 12.7966 12.4171C13.6906 12.4066 13.939 12.2369 14.1873 11.7722C14.2161 11.72 14.2814 11.6991 14.3337 11.7278C14.386 11.7565 14.4069 11.8218 14.3781 11.874C14.0697 12.451 13.7142 12.6234 12.7966 12.6338H12.7992Z" fill="#F5EBDC"/>
<path d="M14.6745 12.636C14.6536 12.636 14.6301 12.6281 14.6118 12.615L14.0655 12.2229C14.0158 12.189 14.0053 12.121 14.0393 12.0713C14.0733 12.0217 14.1413 12.0112 14.1909 12.0452L14.7373 12.4373C14.7869 12.4713 14.7974 12.5392 14.7634 12.5889C14.7425 12.6177 14.7085 12.6333 14.6745 12.6333V12.636Z" fill="#F5EBDC"/>
<path d="M6.35156 8.16016V14.9591C6.35156 15.6771 6.93449 16.262 7.65597 16.262H16.779V9.24632H11.726L10.8425 8.40298C10.6804 8.24893 10.4661 8.16277 10.2413 8.16277H6.35156V8.16016Z" fill="#502314"/>
<path d="M16.7791 16.4786H7.65614C6.81703 16.4786 6.13477 15.7971 6.13477 14.959V8.16007C6.13477 8.03997 6.23148 7.94336 6.35173 7.94336H10.2414C10.5211 7.94336 10.7878 8.05041 10.9916 8.24362L11.8125 9.02691H16.7791C16.8994 9.02691 16.9961 9.12352 16.9961 9.24362V16.2593C16.9961 16.3794 16.8994 16.476 16.7791 16.476V16.4786ZM6.5687 8.37678V14.959C6.5687 15.5569 7.05491 16.0452 7.65614 16.0452H16.5622V9.46294H11.7262C11.6713 9.46294 11.6164 9.44205 11.5772 9.40289L10.6936 8.55955C10.5708 8.44467 10.4113 8.37939 10.244 8.37939H6.57131L6.5687 8.37678Z" fill="#502314"/>
<path d="M9.60884 9.60581H7.72673C7.60648 9.60581 7.50977 9.50909 7.50977 9.38884C7.50977 9.26859 7.60648 9.17188 7.72673 9.17188H9.60884C9.72908 9.17188 9.8258 9.26859 9.8258 9.38884C9.8258 9.50909 9.72908 9.60581 9.60884 9.60581Z" fill="#F5EBDC"/>
<path d="M10.2637 17.1169V17.7932H18.0849V17.0856C18.0849 17.0464 18.0796 17.0047 18.0692 16.9655L18.0064 16.7253C17.6692 15.4224 16.2367 14.7357 15.0081 15.2867L14.8173 15.3702C14.2893 15.6078 13.6802 15.5713 13.1809 15.2762C12.2503 14.7253 11.0453 15.1248 10.6323 16.1222L10.3029 16.9185C10.2767 16.9786 10.2637 17.0464 10.2637 17.1117V17.1169Z" fill="#F5EBDC"/>
<path d="M17.9618 17.925H10.2608C10.1981 17.925 10.1406 17.8988 10.0987 17.8518C10.0569 17.8049 10.0386 17.7448 10.0438 17.6821L10.1641 16.609C10.2451 16.0424 10.564 15.5411 11.0346 15.2304C11.5077 14.9171 12.0906 14.8205 12.6396 14.9667L13.531 15.2017C13.9257 15.3062 14.3439 15.3062 14.7387 15.2017L15.6483 14.9641C16.1999 14.8205 16.7933 14.9145 17.2717 15.2252C17.75 15.5359 18.0794 16.0372 18.1709 16.5986L18.2911 17.4759C18.3042 17.5699 18.2545 17.6586 18.1735 17.7004C18.1735 17.7004 18.1735 17.7056 18.1735 17.7082C18.1735 17.8284 18.0768 17.925 17.9565 17.925H17.9618ZM10.5065 17.4915H17.8624L17.7474 16.6665C17.6742 16.2304 17.418 15.8362 17.0416 15.5908C16.6652 15.3479 16.1999 15.2722 15.766 15.3845L14.8563 15.6221C14.3884 15.7448 13.8943 15.7448 13.4264 15.6221L12.535 15.3871C12.1063 15.2748 11.6489 15.3505 11.2803 15.5934C10.9117 15.8362 10.6634 16.2278 10.6006 16.6665L10.5091 17.4915H10.5065Z" fill="#502314"/>
<path fill-rule="evenodd" clip-rule="evenodd" d="M12.0713 12.6029C12.0713 11.4906 12.9731 10.5898 14.0867 10.5898C15.2003 10.5898 16.1021 11.4906 16.1021 12.6029V12.9162C16.3505 12.9893 16.5334 13.206 16.5334 13.4645C16.5334 13.7831 16.259 14.0389 15.9218 14.0389H15.9087C15.5845 14.7178 14.8918 15.1878 14.0893 15.1878C13.2868 15.1878 12.5915 14.7178 12.2673 14.0389H12.2543C11.9171 14.0389 11.6426 13.7804 11.6426 13.4645C11.6426 13.206 11.8256 12.9867 12.0739 12.9162V12.6029H12.0713Z" fill="#F5EBDC"/>
<path d="M14.0869 15.4083C13.2713 15.4083 12.5158 14.9566 12.129 14.249C11.7264 14.1864 11.4258 13.86 11.4258 13.4683C11.4258 13.1707 11.5931 12.9096 11.8571 12.7738V12.6067C11.8571 11.377 12.8583 10.377 14.0895 10.377C15.3207 10.377 16.3219 11.377 16.3219 12.6067V12.7738C16.5833 12.9122 16.7532 13.1785 16.7532 13.4683C16.7532 13.8652 16.4473 14.1942 16.0474 14.2516C15.6579 14.9592 14.9025 15.4109 14.0895 15.4109L14.0869 15.4083ZM14.0869 10.8104C13.0962 10.8104 12.2884 11.6146 12.2884 12.6041V13.0793L12.1316 13.1237C11.9669 13.1707 11.8571 13.3091 11.8571 13.4657C11.8571 13.6642 12.0349 13.8234 12.2518 13.8234H12.3904L12.4636 13.9461C12.7616 14.5702 13.3968 14.9723 14.0895 14.9723C14.7822 14.9723 15.4174 14.5702 15.7128 13.9461L15.7729 13.8234H15.9115C16.1415 13.8234 16.3193 13.6615 16.3193 13.4657C16.3193 13.3091 16.2095 13.1733 16.0448 13.1237L15.8879 13.0793V12.6041C15.8879 11.6146 15.0828 10.8104 14.0895 10.8104H14.0869Z" fill="#502314"/>
</g>
<defs>
<clipPath id="clip0_2681_21717">
<rect width="20" height="23" fill="white" transform="translate(2 1)"/>
</clipPath>
</defs>
</svg>
