<svg width="24" height="24" viewBox="0 0 24 24" fill="none" xmlns="http://www.w3.org/2000/svg">
<g clip-path="url(#clip0_2681_21908)">
<path d="M21.7875 22H2.21249C2.09473 22 2 21.9053 2 21.7875V2.21249C2 2.09473 2.09473 2 2.21249 2H21.7849C21.9027 2 21.9974 2.09473 21.9974 2.21249V21.7849C21.9974 21.9027 21.9027 21.9974 21.7849 21.9974L21.7875 22ZM2.42499 21.5725H21.5725V2.42499H2.42499V21.5725Z" fill="#502314"/>
<path d="M6.04297 8.16315L12.0005 5.19336L17.958 8.16315V12.6946C17.5407 14.9373 16.1147 16.8651 14.0947 17.9251L12.0005 19.0234L9.57599 17.8278C7.58419 16.8447 6.24778 14.9015 6.04297 12.6972V8.16571V8.16315Z" fill="#502314"/>
<path d="M12.0001 19.2316C11.9694 19.2316 11.9361 19.2239 11.9053 19.2085L9.48087 18.0129C7.43786 17.0042 6.04001 14.974 5.83008 12.7108V8.15885C5.83008 8.07948 5.87616 8.00524 5.94785 7.96939L11.9053 4.9996C11.9642 4.96888 12.0359 4.96888 12.0948 4.9996L18.0523 7.96939C18.124 8.00524 18.1701 8.07948 18.1701 8.15885V12.6903C17.7348 15.0508 16.2858 17.0119 14.1916 18.1076L12.0974 19.206C12.0666 19.2213 12.0334 19.2316 11.9975 19.2316H12.0001ZM6.25507 8.29197V12.6929C6.44964 14.7897 7.75788 16.6919 9.66776 17.634L11.995 18.781L13.9919 17.7339C15.9683 16.697 17.338 14.846 17.7451 12.6545V8.29453L11.9975 5.42971L6.25251 8.29453L6.25507 8.29197Z" fill="#502314"/>
<path fill-rule="evenodd" clip-rule="evenodd" d="M16.2541 12.2128C16.2541 12.3485 16.2464 12.4842 16.2285 12.6173C16.1082 12.0259 15.5296 11.5753 14.8384 11.5753C14.1471 11.5753 13.548 12.0336 13.4379 12.6404H13.3995C13.2843 12.0362 12.7006 11.5753 11.9991 11.5753C11.2976 11.5753 10.7139 12.0336 10.5987 12.6404H10.5603C10.4502 12.0362 9.8614 11.5753 9.15991 11.5753C8.45843 11.5753 7.88751 12.0259 7.76974 12.6173C7.75182 12.4842 7.74414 12.3485 7.74414 12.2128C7.74414 10.0981 9.65146 8.38281 11.9991 8.38281C14.3468 8.38281 16.2541 10.0981 16.2541 12.2128Z" fill="#F5EBDC"/>
<path d="M16.2301 12.6169L16.0227 12.6604C16.0432 12.7629 16.1379 12.8345 16.2429 12.8294C16.3453 12.8243 16.4298 12.7475 16.4426 12.6425L16.2301 12.6169ZM13.4395 12.6374V12.8499C13.5419 12.8499 13.6315 12.7782 13.6469 12.6758L13.4395 12.6374ZM13.4011 12.6374L13.1886 12.6758C13.2091 12.7782 13.2987 12.8499 13.4011 12.8499V12.6374ZM10.6003 12.6374V12.8499C10.7027 12.8499 10.7923 12.7782 10.8077 12.6758L10.6003 12.6374ZM10.5619 12.6374L10.3545 12.6758C10.3724 12.7782 10.462 12.8499 10.5619 12.8499V12.6374ZM7.7713 12.6169L7.5588 12.6425C7.57161 12.7449 7.65609 12.8243 7.7585 12.8294C7.86602 12.8345 7.95819 12.7603 7.97611 12.6604L7.7713 12.6169ZM16.4426 12.6425C16.4605 12.5017 16.4682 12.3583 16.4682 12.2124H16.0432C16.0432 12.3404 16.0355 12.4684 16.0227 12.5964L16.4451 12.6425H16.4426ZM14.8373 11.7874C15.4415 11.7874 15.9229 12.1791 16.0201 12.6604L16.4375 12.576C16.2966 11.8694 15.6208 11.3624 14.8373 11.3624V11.7874ZM13.6469 12.6758C13.7416 12.1868 14.2204 11.7874 14.8373 11.7874V11.3624C14.0463 11.3624 13.3601 11.8822 13.2296 12.6016L13.6469 12.6784V12.6758ZM13.4011 12.8499H13.4395V12.4249H13.4011V12.8499ZM12.0007 11.7874C12.6126 11.7874 13.099 12.1868 13.1886 12.6758L13.611 12.599C13.4753 11.8796 12.7943 11.3599 12.0032 11.3599V11.7849L12.0007 11.7874ZM10.8077 12.6758C10.9024 12.1868 11.3811 11.7874 11.9981 11.7874V11.3624C11.207 11.3624 10.5209 11.8822 10.3903 12.6016L10.8077 12.6784V12.6758ZM10.5619 12.8499H10.6003V12.4249H10.5619V12.8499ZM9.16147 11.7874C9.77847 11.7874 10.2598 12.1868 10.3519 12.6758L10.7692 12.599C10.6361 11.8796 9.95256 11.3599 9.16147 11.3599V11.7849V11.7874ZM7.97355 12.6579C8.07596 12.1766 8.55727 11.7849 9.16147 11.7849V11.3599C8.38318 11.3599 7.70729 11.8668 7.56136 12.5734L7.97355 12.6579ZM7.5332 12.2124C7.5332 12.3583 7.54088 12.5017 7.5588 12.6425L7.98123 12.5913C7.96843 12.4684 7.96075 12.3404 7.96075 12.2124H7.53576H7.5332ZM12.0007 8.16992C9.55317 8.16992 7.5332 9.96204 7.5332 12.2124H7.95819C7.95819 10.2334 9.74518 8.59491 12.0007 8.59491V8.16992ZM16.4682 12.2124C16.4682 9.96204 14.4482 8.16992 12.0007 8.16992V8.59491C14.2562 8.59491 16.0432 10.2334 16.0432 12.2124H16.4682Z" fill="#F5EBDC"/>
<path d="M11.9996 8.59567C11.8818 8.59567 11.7871 8.50094 11.7871 8.38318V7.7457C11.7871 7.62793 11.8818 7.5332 11.9996 7.5332C12.1174 7.5332 12.2121 7.62793 12.2121 7.7457V8.38318C12.2121 8.50094 12.1174 8.59567 11.9996 8.59567Z" fill="#F5EBDC"/>
<path d="M12.3863 16.8933C12.2686 16.8933 12.1738 16.7986 12.1738 16.6808V14.9527C12.1738 14.835 12.2686 14.7402 12.3863 14.7402C12.5041 14.7402 12.5988 14.835 12.5988 14.9527V16.6808C12.5988 16.7986 12.5041 16.8933 12.3863 16.8933Z" fill="#F5EBDC"/>
<path d="M12.387 15.1652H11.6676C11.5498 15.1652 11.4551 15.0705 11.4551 14.9527C11.4551 14.835 11.5498 14.7402 11.6676 14.7402H12.387C12.5047 14.7402 12.5995 14.835 12.5995 14.9527C12.5995 15.0705 12.5047 15.1652 12.387 15.1652Z" fill="#F5EBDC"/>
<path d="M13.1064 16.8918H11.6676C11.5498 16.8918 11.4551 16.7971 11.4551 16.6793C11.4551 16.5615 11.5498 16.4668 11.6676 16.4668H13.1064C13.2242 16.4668 13.3189 16.5615 13.3189 16.6793C13.3189 16.7971 13.2242 16.8918 13.1064 16.8918Z" fill="#F5EBDC"/>
<path d="M12.0545 14.4469C11.6731 14.4469 11.3633 14.1372 11.3633 13.7557C11.3633 13.3742 11.6731 13.0645 12.0545 13.0645C12.436 13.0645 12.7458 13.3742 12.7458 13.7557C12.7458 14.1372 12.436 14.4469 12.0545 14.4469ZM12.0545 13.4894C11.9086 13.4894 11.7883 13.6098 11.7883 13.7557C11.7883 13.9016 11.9086 14.022 12.0545 14.022C12.2005 14.022 12.3208 13.9016 12.3208 13.7557C12.3208 13.6098 12.2005 13.4894 12.0545 13.4894Z" fill="#F5EBDC"/>
</g>
<defs>
<clipPath id="clip0_2681_21908">
<rect width="20" height="20" fill="white" transform="translate(2 2)"/>
</clipPath>
</defs>
</svg>
