<svg width="24" height="24" viewBox="0 0 24 24" fill="none" xmlns="http://www.w3.org/2000/svg">
<g clip-path="url(#clip0_2681_21852)">
<path d="M6.4674 10.2019V8.19472L8.15199 6.41541L8.45153 6.14659C8.52834 6.07747 8.63074 6.03906 8.73315 6.03906H15.8274V16.1235C15.8274 17.0631 15.0644 17.8261 14.1249 17.8261H6.46484V10.2019H6.4674Z" fill="#502314"/>
<path d="M14.1284 18.0427H6.46835C6.35059 18.0427 6.25586 17.9479 6.25586 17.8302V8.19628C6.25586 8.14251 6.27634 8.08875 6.31474 8.05035L7.99933 6.27103L8.31167 5.98942C8.42944 5.88445 8.58049 5.82812 8.73666 5.82812H15.8309C15.9486 5.82812 16.0434 5.92285 16.0434 6.04062V16.1251C16.0434 17.1799 15.1857 18.0401 14.1284 18.0401V18.0427ZM6.68085 17.6177H14.1284C14.9502 17.6177 15.6184 16.9495 15.6184 16.1277V6.25567H9.37158V8.32428C9.37158 8.44205 9.27685 8.53678 9.15908 8.53678H7.59482C7.47706 8.53678 7.38233 8.44205 7.38233 8.32428C7.38233 8.20652 7.47706 8.11179 7.59482 8.11179H8.94659V6.25567H8.73922C8.68801 6.25567 8.63681 6.27359 8.59585 6.30944L8.29631 6.57569L6.68341 8.28076V17.6177H6.68085Z" fill="#F5EBDC"/>
<path d="M21.7875 22H2.21249C2.09473 22 2 21.9053 2 21.7875V2.21249C2 2.09473 2.09473 2 2.21249 2H21.7849C21.9027 2 21.9974 2.09473 21.9974 2.21249V21.7849C21.9974 21.9027 21.9027 21.9974 21.7849 21.9974L21.7875 22ZM2.42499 21.5725H21.5725V2.42499H2.42499V21.5725Z" fill="#502314"/>
<path d="M11.5759 10.5109H9.23593C9.11816 10.5109 9.02344 10.4162 9.02344 10.2984C9.02344 10.1807 9.11816 10.0859 9.23593 10.0859H11.5759C11.6937 10.0859 11.7884 10.1807 11.7884 10.2984C11.7884 10.4162 11.6937 10.5109 11.5759 10.5109Z" fill="#F5EBDC"/>
<path d="M11.5759 13.0617H9.23593C9.11816 13.0617 9.02344 12.967 9.02344 12.8492C9.02344 12.7314 9.11816 12.6367 9.23593 12.6367H11.5759C11.6937 12.6367 11.7884 12.7314 11.7884 12.8492C11.7884 12.967 11.6937 13.0617 11.5759 13.0617Z" fill="#F5EBDC"/>
<path d="M12.637 11.7883H9.23202C9.11426 11.7883 9.01953 11.6935 9.01953 11.5758C9.01953 11.458 9.11426 11.3633 9.23202 11.3633H12.637C12.7548 11.3633 12.8495 11.458 12.8495 11.5758C12.8495 11.6935 12.7548 11.7883 12.637 11.7883Z" fill="#F5EBDC"/>
<path d="M17.418 8.54347C17.8455 8.10056 18.5496 8.08776 18.9925 8.51786C19.4354 8.94285 19.4456 9.64946 19.0181 10.0924L15.7052 13.5179C15.1189 14.1221 14.3739 14.547 13.5547 14.7442L12.7969 14.9234L12.9505 14.1605C13.1169 13.3361 13.5163 12.5783 14.1026 11.969L17.4154 8.54347H17.418Z" fill="#F5EBDC"/>
<path d="M12.8013 15.137C12.7475 15.137 12.6938 15.1165 12.6528 15.0781C12.6016 15.0269 12.5786 14.9527 12.5914 14.8835L12.745 14.1206C12.9191 13.2578 13.3364 12.4642 13.9534 11.8241L17.2662 8.39865C17.512 8.14263 17.8448 7.99926 18.1981 7.99414C18.5514 7.9967 18.8868 8.12215 19.1428 8.36792C19.3963 8.61114 19.5396 8.9414 19.5473 9.2947C19.555 9.65057 19.4219 9.98595 19.1735 10.242L15.8607 13.6675C15.2463 14.3024 14.4654 14.7479 13.6077 14.9527L12.8499 15.1319C12.8346 15.137 12.8167 15.137 12.8013 15.137ZM18.2186 8.41913H18.2032C17.9626 8.42169 17.7373 8.52153 17.5709 8.69307L14.258 12.1186C13.6999 12.6997 13.321 13.4217 13.1623 14.2025L13.0752 14.6378L13.5079 14.5354C14.2888 14.3485 14.9954 13.9465 15.5535 13.3679L18.8663 9.94243C19.0327 9.76833 19.1249 9.54048 19.1198 9.29982C19.1147 9.05917 19.0174 8.83643 18.8458 8.67002C18.6769 8.50617 18.4541 8.41401 18.2186 8.41401V8.41913Z" fill="#502314"/>
</g>
<defs>
<clipPath id="clip0_2681_21852">
<rect width="20" height="20" fill="white" transform="translate(2 2)"/>
</clipPath>
</defs>
</svg>
