<svg width="24" height="24" viewBox="0 0 24 24" fill="none" xmlns="http://www.w3.org/2000/svg">
<g clip-path="url(#clip0_2681_21881)">
<path d="M11.9993 21.7955C17.4096 21.7955 21.7955 17.4096 21.7955 11.9993C21.7955 6.58902 17.4096 2.20312 11.9993 2.20312C6.58902 2.20312 2.20312 6.58902 2.20312 11.9993C2.20312 17.4096 6.58902 21.7955 11.9993 21.7955Z" fill="#502314"/>
<path d="M12 22C6.48674 22 2 17.5133 2 12C2 6.48674 6.48674 2 12 2C17.5133 2 22 6.48674 22 12C22 17.5133 17.5133 22 12 22ZM12 2.40766C6.71022 2.40766 2.40766 6.71022 2.40766 12C2.40766 17.2898 6.71022 21.5923 12 21.5923C17.2898 21.5923 21.5923 17.2898 21.5923 12C21.5923 6.71022 17.2898 2.40766 12 2.40766Z" fill="#502314"/>
<path d="M5.67302 19.7545C5.67302 19.7545 5.66565 19.7545 5.66074 19.7545C5.54778 19.7471 5.46182 19.6514 5.46919 19.5384L5.67302 15.8645C5.75161 14.757 6.32135 13.7673 7.23736 13.1435C8.15337 12.5197 9.28304 12.3552 10.339 12.6892L10.9063 12.866C11.6234 13.0919 12.3798 13.0944 13.0993 12.8684L13.6961 12.6818C14.7472 12.3503 15.8769 12.5197 16.788 13.146C17.6991 13.7722 18.2614 14.7668 18.3302 15.8694L18.534 19.1258C18.5414 19.2388 18.4554 19.3346 18.3425 19.3419C18.2148 19.3493 18.1337 19.2633 18.1264 19.1504L17.9225 15.894C17.8611 14.9166 17.3651 14.0374 16.5571 13.4799C15.7516 12.9249 14.7521 12.7751 13.8189 13.0674L13.2221 13.254C12.4215 13.5045 11.5792 13.502 10.786 13.2516L10.2187 13.0747C9.28304 12.78 8.28108 12.9274 7.47066 13.4775C6.66025 14.03 6.15436 14.9068 6.08559 15.8866L5.88176 19.558C5.87685 19.6661 5.78599 19.7496 5.67793 19.7496L5.67302 19.7545Z" fill="#F5EBDC"/>
<path fill-rule="evenodd" clip-rule="evenodd" d="M9.31098 8.56605C9.31098 7.08029 10.5143 5.87695 12.0001 5.87695C13.4858 5.87695 14.6892 7.08029 14.6892 8.56605V8.97126C15.0232 9.06703 15.2638 9.35927 15.2638 9.70308C15.2638 10.1255 14.8955 10.4693 14.4485 10.4693C14.4411 10.4693 14.4313 10.4693 14.4289 10.4693C13.9966 11.3755 13.0708 11.9993 12.0001 11.9993C10.9294 11.9993 10.0035 11.373 9.5713 10.4693C9.56639 10.4693 9.55902 10.4693 9.55165 10.4693C9.10224 10.4693 8.73633 10.1279 8.73633 9.70308C8.73633 9.35927 8.977 9.06703 9.31098 8.97126V8.56605Z" fill="#F5EBDC"/>
<path d="M5.87766 15.4694L5.67383 19.3471L6.08149 19.7547L7.91843 20.7763L10.163 21.5917H13.8369L16.2853 20.9802L18.1223 19.5509L18.3261 18.9394L18.1223 16.6948L17.7146 14.4502L16.693 13.4286L15.4675 12.8171L13.8344 13.0209L12.2013 13.2248L10.5682 13.0209L8.93512 12.6133L7.09819 13.4286L5.87275 15.4694H5.87766Z" fill="#F5EBDC"/>
<path d="M12 22C6.48674 22 2 17.5133 2 12C2 6.48674 6.48674 2 12 2C17.5133 2 22 6.48674 22 12C22 17.5133 17.5133 22 12 22ZM12 2.40766C6.71022 2.40766 2.40766 6.71022 2.40766 12C2.40766 17.2898 6.71022 21.5923 12 21.5923C17.2898 21.5923 21.5923 17.2898 21.5923 12C21.5923 6.71022 17.2898 2.40766 12 2.40766Z" fill="#502314"/>
<path d="M12.0007 20.1639L10.316 17.5386C9.45404 16.2051 10.4143 14.4492 12.0007 14.4492C13.5896 14.4492 14.5474 16.2051 13.6854 17.5386L12.0007 20.1639Z" fill="#F5EBDC"/>
<path d="M11.9995 20.3659C11.9308 20.3659 11.8644 20.3316 11.8276 20.2726L10.1405 17.6498C9.69598 16.9597 9.66405 16.1174 10.057 15.3979C10.4499 14.6759 11.1768 14.2461 11.9971 14.2461C12.8173 14.2461 13.5442 14.6759 13.9371 15.3979C14.3301 16.1174 14.2981 16.9597 13.8536 17.6498L12.169 20.2726C12.1321 20.3316 12.0658 20.3659 11.9971 20.3659H11.9995ZM11.9995 14.6513C11.3291 14.6513 10.7372 15.0025 10.4155 15.5919C10.0963 16.1788 10.1208 16.8664 10.4843 17.4288L11.9995 19.7864L13.5123 17.4288C13.8757 16.8664 13.9003 16.1788 13.581 15.5919C13.2618 15.0049 12.6699 14.6538 11.9995 14.6538V14.6513Z" fill="#502314"/>
<path d="M12.837 16.0837C12.837 16.5209 12.4612 16.8745 11.9995 16.8745C11.5378 16.8745 11.1621 16.5209 11.1621 16.0837C11.1621 15.6466 11.5378 15.293 11.9995 15.293C12.4612 15.293 12.837 15.6466 12.837 16.0837Z" fill="#F5EBDC"/>
<path d="M12.0002 17.0771C11.4256 17.0771 10.959 16.6301 10.959 16.0825C10.959 15.5348 11.4256 15.0879 12.0002 15.0879C12.5749 15.0879 13.0415 15.5348 13.0415 16.0825C13.0415 16.6301 12.5749 17.0771 12.0002 17.0771ZM12.0002 15.498C11.6515 15.498 11.3666 15.7608 11.3666 16.0849C11.3666 16.4091 11.6515 16.6719 12.0002 16.6719C12.349 16.6719 12.6338 16.4091 12.6338 16.0849C12.6338 15.7608 12.349 15.498 12.0002 15.498Z" fill="#502314"/>
</g>
<defs>
<clipPath id="clip0_2681_21881">
<rect width="20" height="20" fill="white" transform="translate(2 2)"/>
</clipPath>
</defs>
</svg>
