<svg width="24" height="24" viewBox="0 0 24 24" fill="none" xmlns="http://www.w3.org/2000/svg">
<g clip-path="url(#clip0_2681_21691)">
<path d="M6.35156 8.16016V14.9591C6.35156 15.6771 6.93449 16.262 7.65597 16.262H16.779V9.24632H11.726L10.8425 8.40298C10.6804 8.24893 10.4661 8.16277 10.2413 8.16277H6.35156V8.16016Z" fill="#502314"/>
<path d="M16.7791 16.4786H7.65614C6.81703 16.4786 6.13477 15.7971 6.13477 14.959V8.16007C6.13477 8.03997 6.23148 7.94336 6.35173 7.94336H10.2414C10.5211 7.94336 10.7878 8.05041 10.9916 8.24362L11.8125 9.02691H16.7791C16.8994 9.02691 16.9961 9.12352 16.9961 9.24362V16.2593C16.9961 16.3794 16.8994 16.476 16.7791 16.476V16.4786ZM6.5687 8.37678V14.959C6.5687 15.5569 7.05491 16.0452 7.65614 16.0452H16.5622V9.46294H11.7262C11.6713 9.46294 11.6164 9.44205 11.5772 9.40289L10.6936 8.55955C10.5708 8.44467 10.4113 8.37939 10.244 8.37939H6.57131L6.5687 8.37678Z" fill="#502314"/>
<path d="M9.60884 9.6053H7.72673C7.60648 9.6053 7.50977 9.50869 7.50977 9.38859C7.50977 9.26848 7.60648 9.17188 7.72673 9.17188H9.60884C9.72908 9.17188 9.8258 9.26848 9.8258 9.38859C9.8258 9.50869 9.72908 9.6053 9.60884 9.6053Z" fill="#F5EBDC"/>
<path d="M12.0013 24.0007C11.9647 24.0007 11.9255 23.9902 11.8915 23.9719L2.10979 18.3296C2.04182 18.2905 2 18.22 2 18.1416V6.85966C2 6.78133 2.04182 6.71084 2.10979 6.67167L11.8915 1.02937C11.9595 0.990209 12.0405 0.990209 12.1085 1.02937L21.8902 6.67167C21.9582 6.71084 22 6.78133 22 6.85966V18.1416C22 18.22 21.9582 18.2905 21.8902 18.3296L12.1085 23.9719C12.0745 23.9902 12.0379 24.0007 11.9987 24.0007H12.0013ZM2.43393 18.0163L11.9987 23.5333L21.5635 18.0163V6.98499L12.0013 1.46802L2.43393 6.98499V18.0163Z" fill="#502314"/>
<path d="M14.6082 19.007C17.0076 19.007 18.9527 17.0641 18.9527 14.6676C18.9527 12.271 17.0076 10.3281 14.6082 10.3281C12.2088 10.3281 10.2637 12.271 10.2637 14.6676C10.2637 17.0641 12.2088 19.007 14.6082 19.007Z" fill="#F5EBDC"/>
<path d="M14.6081 18.1375C14.514 18.1375 14.4172 18.1323 14.3231 18.1271C13.5049 18.0618 12.7364 17.7067 12.1535 17.1297C11.5732 16.5527 11.2124 15.7876 11.1418 14.973C11.0713 14.1584 11.2908 13.3412 11.764 12.6702C12.2371 11.9991 12.9325 11.5135 13.7245 11.302C14.5192 11.0905 15.3635 11.1636 16.1059 11.5109C16.2157 11.5605 16.2627 11.691 16.2105 11.7981C16.1608 11.9078 16.0301 11.9547 15.9229 11.9025C15.272 11.5997 14.5323 11.5344 13.8369 11.7198C13.1416 11.9051 12.5325 12.3307 12.1169 12.9182C11.7039 13.5057 11.5104 14.2211 11.5732 14.9339C11.6359 15.6467 11.9496 16.3151 12.4567 16.819C12.9664 17.3229 13.6383 17.6336 14.3545 17.691C15.0681 17.7511 15.7896 17.5527 16.3752 17.1401C16.9633 16.725 17.3868 16.1166 17.5698 15.4221C17.7162 14.866 17.7031 14.2811 17.5279 13.7328C17.4913 13.6179 17.5541 13.4978 17.6691 13.4613C17.7841 13.4247 17.9044 13.4874 17.941 13.6023C18.1396 14.2289 18.1553 14.8973 17.988 15.5344C17.7789 16.3255 17.2953 17.0226 16.6235 17.4952C16.0301 17.913 15.3217 18.1375 14.6002 18.1375H14.6081Z" fill="#502314"/>
<path d="M14.6095 12.1758C14.4893 12.1758 14.3926 12.0792 14.3926 11.9591V10.873C14.3926 10.7529 14.4893 10.6562 14.6095 10.6562C14.7298 10.6562 14.8265 10.7529 14.8265 10.873V11.9591C14.8265 12.0792 14.7298 12.1758 14.6095 12.1758Z" fill="#502314"/>
<path d="M14.6095 18.6895C14.4893 18.6895 14.3926 18.5929 14.3926 18.4728V17.3866C14.3926 17.2665 14.4893 17.1699 14.6095 17.1699C14.7298 17.1699 14.8265 17.2665 14.8265 17.3866V18.4728C14.8265 18.5929 14.7298 18.6895 14.6095 18.6895Z" fill="#502314"/>
<path d="M18.4138 14.8905H17.3263C17.2061 14.8905 17.1094 14.7938 17.1094 14.6737C17.1094 14.5536 17.2061 14.457 17.3263 14.457H18.4138C18.534 14.457 18.6307 14.5536 18.6307 14.6737C18.6307 14.7938 18.534 14.8905 18.4138 14.8905Z" fill="#502314"/>
<path d="M11.8923 14.8905H10.8049C10.6846 14.8905 10.5879 14.7938 10.5879 14.6737C10.5879 14.5536 10.6846 14.457 10.8049 14.457H11.8923C12.0125 14.457 12.1093 14.5536 12.1093 14.6737C12.1093 14.7938 12.0125 14.8905 11.8923 14.8905Z" fill="#502314"/>
<path d="M14.6065 16.3342C13.689 16.3342 12.9414 15.5874 12.9414 14.671C12.9414 13.7545 13.689 13.0078 14.6065 13.0078C15.5241 13.0078 16.2717 13.7545 16.2717 14.671C16.2717 15.5874 15.5241 16.3342 14.6065 16.3342ZM14.6065 13.4412C13.9269 13.4412 13.3753 13.9921 13.3753 14.671C13.3753 15.3498 13.9269 15.9008 14.6065 15.9008C15.2862 15.9008 15.8378 15.3498 15.8378 14.671C15.8378 13.9921 15.2862 13.4412 14.6065 13.4412Z" fill="#502314"/>
</g>
<defs>
<clipPath id="clip0_2681_21691">
<rect width="20" height="23" fill="white" transform="translate(2 1)"/>
</clipPath>
</defs>
</svg>
