<svg width="24" height="24" viewBox="0 0 24 24" fill="none" xmlns="http://www.w3.org/2000/svg">
<g clip-path="url(#clip0_2681_21894)">
<path d="M5.91797 7.72656V15.7109C5.91797 16.6691 6.69695 17.4472 7.6563 17.4472H18.0837V10.5777C18.0837 9.61951 17.3047 8.84145 16.3454 8.84145H11.2767L10.618 8.04249C10.4533 7.84144 10.2076 7.72656 9.9462 7.72656H5.92058H5.91797Z" fill="#502314"/>
<path d="M18.0813 17.6638H7.65647C6.57949 17.6638 5.70117 16.7891 5.70117 15.7108V7.72648C5.70117 7.60637 5.79789 7.50977 5.91814 7.50977H9.94375C10.2705 7.50977 10.5764 7.65337 10.7829 7.90402L11.3789 8.62465H16.3455C17.4225 8.62465 18.3008 9.49932 18.3008 10.5777V17.4471C18.3008 17.5672 18.2041 17.6638 18.0839 17.6638H18.0813ZM6.1351 7.94319V15.7108C6.1351 16.5489 6.81737 17.2304 7.65647 17.2304H17.8669V10.5777C17.8669 9.73953 17.1846 9.05807 16.3455 9.05807H11.2769C11.2116 9.05807 11.1514 9.02935 11.1096 8.97974L10.4509 8.18078C10.3254 8.02935 10.1424 7.94319 9.94898 7.94319H6.14033H6.1351Z" fill="#502314"/>
<path d="M12.0021 16.6249C13.9222 16.6249 15.4787 15.0701 15.4787 13.1523C15.4787 11.2344 13.9222 9.67969 12.0021 9.67969C10.0819 9.67969 8.52539 11.2344 8.52539 13.1523C8.52539 15.0701 10.0819 16.6249 12.0021 16.6249Z" fill="#F5EBDC"/>
<path d="M12.0022 16.8376C9.96589 16.8376 8.30859 15.1822 8.30859 13.1483C8.30859 11.1143 9.96589 9.45898 12.0022 9.45898C14.0386 9.45898 15.6959 11.1143 15.6959 13.1483C15.6959 15.1822 14.0386 16.8376 12.0022 16.8376ZM12.0022 9.89502C10.2064 9.89502 8.74252 11.3545 8.74252 13.1509C8.74252 14.9472 10.2038 16.4068 12.0022 16.4068C13.8007 16.4068 15.2619 14.9472 15.2619 13.1509C15.2619 11.3545 13.8007 9.89502 12.0022 9.89502Z" fill="#F5EBDC"/>
<path d="M12.0013 24.0007C11.9647 24.0007 11.9255 23.9902 11.8915 23.9719L2.10979 18.3296C2.04182 18.2905 2 18.22 2 18.1416V6.85966C2 6.78133 2.04182 6.71084 2.10979 6.67167L11.8915 1.02937C11.9595 0.990209 12.0405 0.990209 12.1085 1.02937L21.8902 6.67167C21.9582 6.71084 22 6.78133 22 6.85966V18.1416C22 18.22 21.9582 18.2905 21.8902 18.3296L12.1085 23.9719C12.0745 23.9902 12.0379 24.0007 11.9987 24.0007H12.0013ZM2.43393 18.0163L11.9987 23.5333L21.5635 18.0163V6.98499L12.0013 1.46802L2.43393 6.98499V18.0163Z" fill="#502314"/>
<path d="M12.0197 14.3602C11.8995 14.3602 11.8027 14.2636 11.8027 14.1435V11.9921C11.8027 11.872 11.8995 11.7754 12.0197 11.7754C12.1399 11.7754 12.2367 11.872 12.2367 11.9921V14.1435C12.2367 14.2636 12.1399 14.3602 12.0197 14.3602Z" fill="#502314"/>
<path d="M13.0936 13.2874H10.9396C10.8194 13.2874 10.7227 13.1907 10.7227 13.0705C10.7227 12.9502 10.8194 12.8535 10.9396 12.8535H13.0936C13.2138 12.8535 13.3106 12.9502 13.3106 13.0705C13.3106 13.1907 13.2138 13.2874 13.0936 13.2874Z" fill="#502314"/>
<path d="M12.0011 16.157C10.3151 16.157 8.94531 14.7888 8.94531 13.1048C8.94531 11.7105 9.88898 10.4964 11.2378 10.1491C11.3528 10.1204 11.4731 10.1883 11.5018 10.3058C11.5306 10.4233 11.4626 10.5408 11.345 10.5695C10.187 10.8672 9.37924 11.9089 9.37924 13.1048C9.37924 14.5486 10.5556 15.7236 12.0011 15.7236C13.4467 15.7236 14.623 14.5486 14.623 13.1048C14.623 11.9089 13.8153 10.8672 12.6572 10.5695C12.5422 10.5408 12.4716 10.4207 12.5004 10.3058C12.5318 10.1909 12.6494 10.1204 12.7644 10.1491C14.1133 10.4964 15.0569 11.7105 15.0569 13.1048C15.0569 14.7888 13.6872 16.157 12.0011 16.157Z" fill="#502314"/>
</g>
<defs>
<clipPath id="clip0_2681_21894">
<rect width="20" height="23" fill="white" transform="translate(2 1)"/>
</clipPath>
</defs>
</svg>
