<svg width="24" height="24" viewBox="0 0 24 24" fill="none" xmlns="http://www.w3.org/2000/svg">
<g clip-path="url(#clip0_2681_21768)">
<path d="M12.0013 24.0007C11.9647 24.0007 11.9255 23.9902 11.8915 23.9719L2.10979 18.3296C2.04182 18.2905 2 18.22 2 18.1416V6.85966C2 6.78133 2.04182 6.71084 2.10979 6.67167L11.8915 1.02937C11.9595 0.990209 12.0405 0.990209 12.1085 1.02937L21.8902 6.67167C21.9582 6.71084 22 6.78133 22 6.85966V18.1416C22 18.22 21.9582 18.2905 21.8902 18.3296L12.1085 23.9719C12.0745 23.9902 12.0379 24.0007 11.9987 24.0007H12.0013ZM2.43393 18.0163L11.9987 23.5333L21.5635 18.0163V6.98499L12.0013 1.46802L2.43393 6.98499V18.0163Z" fill="#502314"/>
<path fill-rule="evenodd" clip-rule="evenodd" d="M7.16058 8.56938C7.16058 7.38401 8.12255 6.42578 9.30671 6.42578C10.4909 6.42578 11.4528 7.38662 11.4528 8.56938V8.89314C11.7195 8.96886 11.9129 9.20124 11.9129 9.47539C11.9129 9.8122 11.6201 10.0864 11.262 10.0864C11.2568 10.0864 11.2516 10.0864 11.2437 10.0864C10.8987 10.8096 10.1615 11.3083 9.30671 11.3083C8.45192 11.3083 7.71476 10.8096 7.3697 10.0864C7.36448 10.0864 7.35925 10.0864 7.35402 10.0864C6.99328 10.0864 6.70312 9.8122 6.70312 9.47539C6.70312 9.20124 6.89656 8.96886 7.1632 8.89314V8.56938H7.16058Z" fill="#502314"/>
<path d="M11.452 8.89343H11.3422V8.97437L11.4206 8.99787L11.4493 8.89343H11.452ZM11.2428 10.0866V9.97698H11.1749L11.1435 10.0396L11.2402 10.0866H11.2428ZM7.36883 10.0866L7.46816 10.0396L7.43679 9.97698H7.36621V10.0866H7.36883ZM7.1597 8.89343L7.19107 8.99787L7.26949 8.97437V8.89343H7.1597ZM9.30583 6.31641C8.05893 6.31641 7.04991 7.32424 7.04991 8.56967H7.26688C7.26688 7.44434 8.17918 6.53312 9.30583 6.53312V6.31641ZM11.5617 8.56967C11.5617 7.32424 10.5527 6.31641 9.30583 6.31641V6.53312C10.4325 6.53312 11.3448 7.44434 11.3448 8.56967H11.5617ZM11.5617 8.89343V8.56967H11.3448V8.89343H11.5617ZM12.0218 9.47567C12.0218 9.14669 11.7918 8.87776 11.4833 8.78899L11.4232 8.99787C11.648 9.06314 11.8048 9.25635 11.8048 9.47567H12.0218ZM11.2611 10.1963C11.6741 10.1963 12.0218 9.88037 12.0218 9.47829H11.8048C11.8048 9.74983 11.5696 9.97959 11.2611 9.97959V10.1963ZM11.2402 10.1937C11.2402 10.1937 11.2533 10.1937 11.2611 10.1937V9.97698C11.2611 9.97698 11.2507 9.97698 11.2454 9.97698L11.2402 10.1937ZM9.30583 11.4156C10.2051 11.4156 10.9788 10.8908 11.3422 10.1336L11.1461 10.0396C10.8194 10.7263 10.1162 11.1989 9.30583 11.1989V11.4156ZM7.26949 10.1336C7.63284 10.8908 8.4066 11.4156 9.30583 11.4156V11.1989C8.49548 11.1989 7.79492 10.7263 7.46555 10.0396L7.26949 10.1336ZM7.36621 9.97698C7.36621 9.97698 7.35576 9.97698 7.35314 9.97698V10.1937C7.35314 10.1937 7.36621 10.1937 7.37144 10.1937L7.36621 9.97698ZM7.35053 9.97698C7.04469 9.97698 6.80681 9.7446 6.80681 9.47567H6.58984C6.58984 9.88037 6.93751 10.1937 7.35053 10.1937V9.97698ZM6.80681 9.47567C6.80681 9.25374 6.96365 9.06053 7.18846 8.99787L7.12834 8.78899C6.81988 8.87776 6.58984 9.1493 6.58984 9.47567H6.80681ZM7.04991 8.56967V8.89343H7.26688V8.56967H7.04991Z" fill="#502314"/>
<path d="M4.82631 13.9871L4.80017 14.3709L4.61719 17.6764H14.1767V17.3083L13.9937 14.3788L13.9859 14.2665C13.8709 12.3944 11.9862 11.1594 10.2217 11.8017L10.1276 11.8357C9.53942 12.0498 8.89375 12.0393 8.31344 11.8069C6.71365 11.1673 4.9544 12.2691 4.83154 13.9871H4.82631Z" fill="#502314"/>
<path d="M14.1732 17.8907H4.61367C4.55354 17.8907 4.49604 17.8672 4.45683 17.8228C4.415 17.7784 4.39409 17.721 4.3967 17.661L4.60844 13.969C4.67118 13.0813 5.1417 12.3006 5.89716 11.8281C6.65262 11.3555 7.55969 11.2745 8.38834 11.6035C8.9216 11.815 9.50976 11.8254 10.0483 11.6296L10.1424 11.5957C11.0468 11.2667 12.0297 11.379 12.8374 11.9064C13.6452 12.4338 14.1392 13.2876 14.1993 14.2484L14.3902 17.2902V17.6714C14.3902 17.7915 14.2934 17.8881 14.1732 17.8881V17.8907ZM4.8437 17.4573H13.9562V17.3059L13.7654 14.2771C13.7157 13.4547 13.2897 12.7236 12.5996 12.2693C11.9094 11.8176 11.0703 11.721 10.2914 12.003L10.1973 12.0369C9.55681 12.2693 8.85886 12.2589 8.22627 12.0056C7.52832 11.7262 6.76241 11.7967 6.1272 12.1936C5.48937 12.5931 5.09465 13.251 5.04237 13.9978L5.01623 14.3816L4.84632 17.4547L4.8437 17.4573Z" fill="#502314"/>
<path fill-rule="evenodd" clip-rule="evenodd" d="M13.9272 8.40042C13.9272 7.42914 14.7166 6.64062 15.6891 6.64062C16.6615 6.64062 17.4509 7.42914 17.4509 8.40042V8.66673C17.6705 8.7294 17.8273 8.92 17.8273 9.14454C17.8273 9.4213 17.5869 9.64585 17.2915 9.64585H17.2784C16.9935 10.2385 16.3896 10.6485 15.6891 10.6485C14.9885 10.6485 14.382 10.2385 14.0997 9.64585H14.0867C13.7913 9.64585 13.5508 9.4213 13.5508 9.14454C13.5508 8.92 13.7102 8.7294 13.9272 8.66673V8.40042Z" fill="#F5EBDC"/>
<path d="M15.6892 10.8651C14.973 10.8651 14.309 10.4708 13.9614 9.85203C13.6006 9.79197 13.334 9.49694 13.334 9.14445C13.334 8.88075 13.4804 8.64576 13.7104 8.52043V8.40033C13.7104 7.31156 14.5992 6.42383 15.6892 6.42383C16.7793 6.42383 17.6681 7.31156 17.6681 8.40033V8.52043C17.8981 8.64576 18.0445 8.88075 18.0445 9.14445C18.0445 9.49955 17.7726 9.7972 17.4145 9.85203C17.0668 10.4708 16.4029 10.8625 15.6866 10.8625L15.6892 10.8651ZM15.6892 6.85986C14.8371 6.85986 14.1443 7.55177 14.1443 8.40294V8.83114L13.9875 8.87552C13.8568 8.91469 13.7679 9.02174 13.7679 9.14445C13.7679 9.30111 13.9117 9.42905 14.0842 9.42905H14.2201L14.2933 9.55177C14.5495 10.0844 15.0958 10.429 15.6866 10.429C16.2774 10.429 16.8263 10.0844 17.0799 9.55177L17.14 9.42905H17.276C17.4642 9.42905 17.6079 9.30111 17.6079 9.14445C17.6079 9.02174 17.5191 8.91208 17.3884 8.87552L17.2315 8.83114V8.40294C17.2315 7.55177 16.5388 6.85986 15.6866 6.85986H15.6892Z" fill="#502314"/>
<path d="M12.3483 15.6713C12.3483 15.6713 12.3405 15.6713 12.3352 15.6713C12.215 15.6635 12.1235 15.5616 12.1313 15.4415L12.2856 12.7549C12.3326 12.0891 12.6829 11.5068 13.2501 11.1517C13.8174 10.7966 14.497 10.7366 15.1166 10.9846C15.4904 11.1334 15.9034 11.1413 16.2824 11.0029L16.353 10.9768C17.0274 10.7314 17.762 10.8175 18.3632 11.2092C18.9644 11.6034 19.3356 12.2405 19.3801 12.9585L19.5186 15.3058C19.5264 15.4259 19.4349 15.5277 19.3147 15.5355C19.1945 15.5434 19.0925 15.452 19.0847 15.3319L18.9461 12.9846C18.9095 12.405 18.6115 11.8906 18.1253 11.5721C17.6391 11.2535 17.0457 11.1857 16.4994 11.3841L16.4288 11.4102C15.9531 11.5825 15.4276 11.5747 14.9545 11.3867C14.4657 11.1909 13.9272 11.2405 13.4802 11.5199C13.0332 11.7992 12.7561 12.2614 12.7195 12.7862L12.6986 13.0656L12.5653 15.465C12.56 15.5799 12.4633 15.6687 12.3483 15.6687V15.6713Z" fill="#502314"/>
<path d="M15.39 12.498C15.2698 12.498 15.173 12.5947 15.173 12.7148C15.173 12.8349 15.2698 12.9315 15.39 12.9315V12.498ZM8.71899 14.733C8.63534 14.8192 8.63534 14.955 8.71899 15.0411L10.1018 16.4223C10.1855 16.5059 10.324 16.5059 10.4103 16.4223C10.4965 16.3388 10.4965 16.2004 10.4103 16.1142L9.18167 14.8871L10.4103 13.6599C10.4965 13.5738 10.4965 13.438 10.4103 13.3518C10.324 13.2657 10.1881 13.2683 10.1018 13.3518L8.71899 14.733ZM15.39 12.9341H16.6944V12.5007H15.39V12.9341ZM16.6944 14.6678H8.87322V15.1012H16.6944V14.6678ZM17.5623 13.8009C17.5623 14.2813 17.1728 14.6678 16.6944 14.6678V15.1012C17.4133 15.1012 17.9988 14.5189 17.9988 13.7983H17.5649L17.5623 13.8009ZM16.6944 12.9341C17.1728 12.9341 17.5623 13.3231 17.5623 13.8009H17.9962C17.9962 13.0829 17.4133 12.498 16.6918 12.498V12.9315L16.6944 12.9341Z" fill="#F5EBDC"/>
<path d="M15.3884 12.498C15.2681 12.498 15.1714 12.5947 15.1714 12.7148C15.1714 12.8349 15.2681 12.9315 15.3884 12.9315V12.498ZM14.3009 14.6678C14.1807 14.6678 14.084 14.7644 14.084 14.8845C14.084 15.0046 14.1807 15.1012 14.3009 15.1012V14.6678ZM15.3884 12.9341H16.6928V12.5007H15.3884V12.9341ZM16.6928 14.6678H14.3036V15.1012H16.6928V14.6678ZM17.5607 13.8009C17.5607 14.2813 17.1712 14.6678 16.6928 14.6678V15.1012C17.4117 15.1012 17.9972 14.5189 17.9972 13.7983H17.5633L17.5607 13.8009ZM16.6928 12.9341C17.1712 12.9341 17.5607 13.3231 17.5607 13.8009H17.9946C17.9946 13.0829 17.4117 12.498 16.6902 12.498V12.9315L16.6928 12.9341Z" fill="#502314"/>
</g>
<defs>
<clipPath id="clip0_2681_21768">
<rect width="20" height="23" fill="white" transform="translate(2 1)"/>
</clipPath>
</defs>
</svg>
